<svg width="589" height="300" viewBox="0 0 589 300" fill="none" xmlns="http://www.w3.org/2000/svg">
<path d="M150 14.4713C173.189 14.4713 195.99 20.4211 216.222 31.7517C236.455 43.0823 253.441 59.4147 265.558 79.1865C277.674 98.9583 284.514 121.508 285.425 144.679C286.335 167.85 281.285 190.868 270.757 211.529C260.23 232.19 244.577 249.805 225.296 262.688C206.015 275.571 183.751 283.292 160.634 285.111C137.516 286.931 114.318 282.788 93.2596 273.08C72.2007 263.372 53.985 248.422 40.3549 229.662L150 150V14.4713Z" fill="#FF83A8"/>
<path d="M40.6963 230.13C25.4908 209.388 16.5007 184.748 14.7761 159.088C13.0516 133.428 18.6638 107.806 30.9572 85.2166C43.2505 62.6269 61.7176 44.0013 84.2014 31.5152C106.685 19.0292 132.258 13.1982 157.932 14.7034L150 150L40.6963 230.13Z" fill="#FF83A8" fill-opacity="0.5"/>
<circle cx="150" cy="151.08" r="67.4945" transform="rotate(-90 150 151.08)" fill="#121212"/>
<circle cx="265.5" cy="193.699" r="3.5" fill="#F5F5F5"/>
<line y1="-0.5" x2="89.0077" y2="-0.5" transform="matrix(0.999912 -0.0132923 0.00540244 0.999985 267 194.199)" stroke="#F5F5F5"/>
<line x1="355.5" y1="190.766" x2="355.5" y2="83.1993" stroke="#F5F5F5"/>
<circle cx="356.5" cy="90.6995" r="7.5" fill="#F5F5F5"/>
<path d="M398.138 93.3795C396.998 93.3795 396.008 93.1215 395.168 92.6055C394.328 92.0775 393.686 91.3275 393.242 90.3555C392.798 89.3835 392.576 88.2315 392.576 86.8995C392.576 85.5675 392.798 84.4155 393.242 83.4435C393.686 82.4715 394.328 81.7275 395.168 81.2115C396.008 80.6835 396.998 80.4195 398.138 80.4195C399.278 80.4195 400.262 80.6835 401.09 81.2115C401.93 81.7275 402.572 82.4715 403.016 83.4435C403.46 84.4155 403.682 85.5675 403.682 86.8995C403.682 88.2315 403.46 89.3835 403.016 90.3555C402.572 91.3275 401.93 92.0775 401.09 92.6055C400.262 93.1215 399.278 93.3795 398.138 93.3795ZM398.138 91.5615C399.146 91.5615 399.938 91.1475 400.514 90.3195C401.102 89.4915 401.396 88.3515 401.396 86.8995C401.396 85.4475 401.102 84.3075 400.514 83.4795C399.938 82.6395 399.146 82.2195 398.138 82.2195C397.118 82.2195 396.314 82.6395 395.726 83.4795C395.15 84.3075 394.862 85.4475 394.862 86.8995C394.862 88.3515 395.15 89.4915 395.726 90.3195C396.314 91.1475 397.118 91.5615 398.138 91.5615ZM405.908 85.6035H404.432V84.1995H405.908V83.1015C405.908 82.2255 406.178 81.5415 406.718 81.0495C407.258 80.5455 407.996 80.2935 408.932 80.2935C409.34 80.2935 409.724 80.3595 410.084 80.4915C410.444 80.6115 410.744 80.7855 410.984 81.0135L410.264 82.2375C410.12 82.1175 409.952 82.0215 409.76 81.9495C409.568 81.8775 409.37 81.8415 409.166 81.8415C408.794 81.8415 408.5 81.9675 408.284 82.2195C408.068 82.4595 407.96 82.7955 407.96 83.2275V84.1995H410.498V85.6035H407.96V93.1995H405.908V85.6035ZM419.689 93.3795C418.813 93.3795 418.123 93.1275 417.619 92.6235C417.127 92.1075 416.881 91.3995 416.881 90.4995V85.7295H415.261V84.1995H416.881V81.8595L418.861 81.2655H418.933V84.1995H421.525V85.7295H418.933V90.2295C418.933 90.7695 419.047 91.1715 419.275 91.4355C419.515 91.6875 419.881 91.8135 420.373 91.8135C420.901 91.8135 421.333 91.7415 421.669 91.5975L421.777 93.0375C421.285 93.2655 420.589 93.3795 419.689 93.3795ZM423.311 79.8435H425.345V85.3695C425.621 84.9495 426.017 84.6195 426.533 84.3795C427.049 84.1395 427.607 84.0195 428.207 84.0195C429.239 84.0195 430.055 84.3615 430.655 85.0455C431.267 85.7295 431.573 86.6715 431.573 87.8715V93.1995H429.521V87.9795C429.521 87.2115 429.359 86.6175 429.035 86.1975C428.723 85.7655 428.279 85.5495 427.703 85.5495C426.995 85.5495 426.425 85.8015 425.993 86.3055C425.561 86.8095 425.345 87.4695 425.345 88.2855V93.1995H423.311V79.8435ZM441.536 89.4555H435.2C435.404 90.9195 436.202 91.6515 437.594 91.6515C438.122 91.6515 438.59 91.5555 438.998 91.3635C439.406 91.1715 439.784 90.8715 440.132 90.4635L441.248 91.5255C440.9 92.0895 440.384 92.5395 439.7 92.8755C439.028 93.2115 438.29 93.3795 437.486 93.3795C436.106 93.3795 435.032 92.9715 434.264 92.1555C433.496 91.3275 433.112 90.1815 433.112 88.7175C433.112 87.2535 433.496 86.1075 434.264 85.2795C435.044 84.4395 436.106 84.0195 437.45 84.0195C438.734 84.0195 439.736 84.4335 440.456 85.2615C441.176 86.0895 441.536 87.2355 441.536 88.6995V89.4555ZM439.574 87.9255C439.574 87.2175 439.382 86.6655 438.998 86.2695C438.614 85.8735 438.08 85.6755 437.396 85.6755C436.772 85.6755 436.268 85.8855 435.884 86.3055C435.512 86.7135 435.278 87.2895 435.182 88.0335H439.574V87.9255ZM451.336 93.3795C449.956 93.3795 448.876 92.9655 448.096 92.1375C447.328 91.3095 446.944 90.1635 446.944 88.6995C446.944 87.2355 447.328 86.0895 448.096 85.2615C448.876 84.4335 449.956 84.0195 451.336 84.0195C452.14 84.0195 452.848 84.1755 453.46 84.4875C454.072 84.7875 454.546 85.2195 454.882 85.7835L453.658 86.8635C453.418 86.4675 453.1 86.1615 452.704 85.9455C452.308 85.7175 451.882 85.6035 451.426 85.6035C450.658 85.6035 450.058 85.8795 449.626 86.4315C449.194 86.9715 448.978 87.7275 448.978 88.6995C448.978 89.6595 449.194 90.4155 449.626 90.9675C450.058 91.5195 450.658 91.7955 451.426 91.7955C451.882 91.7955 452.308 91.6815 452.704 91.4535C453.1 91.2255 453.418 90.9135 453.658 90.5175L454.882 91.5975C454.546 92.1735 454.072 92.6175 453.46 92.9295C452.86 93.2295 452.152 93.3795 451.336 93.3795ZM460.306 93.3795C458.89 93.3795 457.774 92.9655 456.958 92.1375C456.154 91.2975 455.752 90.1515 455.752 88.6995C455.752 87.2475 456.154 86.1075 456.958 85.2795C457.774 84.4395 458.89 84.0195 460.306 84.0195C461.722 84.0195 462.832 84.4395 463.636 85.2795C464.452 86.1075 464.86 87.2475 464.86 88.6995C464.86 90.1515 464.452 91.2975 463.636 92.1375C462.832 92.9655 461.722 93.3795 460.306 93.3795ZM460.306 91.8495C461.086 91.8495 461.698 91.5735 462.142 91.0215C462.586 90.4575 462.808 89.6835 462.808 88.6995C462.808 87.7155 462.586 86.9475 462.142 86.3955C461.698 85.8315 461.086 85.5495 460.306 85.5495C459.526 85.5495 458.914 85.8315 458.47 86.3955C458.026 86.9475 457.804 87.7155 457.804 88.6995C457.804 89.6835 458.026 90.4575 458.47 91.0215C458.914 91.5735 459.526 91.8495 460.306 91.8495ZM466.395 86.5395C466.395 85.4235 466.371 84.6435 466.323 84.1995H468.231C468.291 84.7635 468.321 85.2915 468.321 85.7835H468.357C468.585 85.2435 468.975 84.8175 469.527 84.5055C470.079 84.1815 470.691 84.0195 471.363 84.0195C472.407 84.0195 473.193 84.3675 473.721 85.0635C474.249 85.7475 474.513 86.7675 474.513 88.1235V93.1995H472.461V88.1055C472.461 87.2655 472.323 86.6475 472.047 86.2515C471.783 85.8555 471.357 85.6575 470.769 85.6575C470.073 85.6575 469.509 85.9035 469.077 86.3955C468.645 86.8755 468.429 87.4995 468.429 88.2675V93.1995H466.395V86.5395ZM484.496 84.1995L481.022 93.1995H479.222L475.748 84.1995H477.854L480.122 90.7155L482.39 84.1995H484.496ZM493.391 89.4555H487.055C487.259 90.9195 488.057 91.6515 489.449 91.6515C489.977 91.6515 490.445 91.5555 490.853 91.3635C491.261 91.1715 491.639 90.8715 491.987 90.4635L493.103 91.5255C492.755 92.0895 492.239 92.5395 491.555 92.8755C490.883 93.2115 490.145 93.3795 489.341 93.3795C487.961 93.3795 486.887 92.9715 486.119 92.1555C485.351 91.3275 484.967 90.1815 484.967 88.7175C484.967 87.2535 485.351 86.1075 486.119 85.2795C486.899 84.4395 487.961 84.0195 489.305 84.0195C490.589 84.0195 491.591 84.4335 492.311 85.2615C493.031 86.0895 493.391 87.2355 493.391 88.6995V89.4555ZM491.429 87.9255C491.429 87.2175 491.237 86.6655 490.853 86.2695C490.469 85.8735 489.935 85.6755 489.251 85.6755C488.627 85.6755 488.123 85.8855 487.739 86.3055C487.367 86.7135 487.133 87.2895 487.037 88.0335H491.429V87.9255ZM495.05 86.3955C495.05 85.3755 495.032 84.6435 494.996 84.1995H496.922C496.97 84.6675 496.994 85.1955 496.994 85.7835V85.9635H497.048C497.276 85.3635 497.666 84.8895 498.218 84.5415C498.77 84.1935 499.406 84.0195 500.126 84.0195C500.342 84.0195 500.522 84.0375 500.666 84.0735V85.6935C500.546 85.6695 500.384 85.6575 500.18 85.6575C499.616 85.6575 499.094 85.8135 498.614 86.1255C498.146 86.4255 497.774 86.8395 497.498 87.3675C497.222 87.8955 497.084 88.4655 497.084 89.0775V93.1995H495.05V86.3955ZM505.505 93.3795C504.629 93.3795 503.939 93.1275 503.435 92.6235C502.943 92.1075 502.697 91.3995 502.697 90.4995V85.7295H501.077V84.1995H502.697V81.8595L504.677 81.2655H504.749V84.1995H507.341V85.7295H504.749V90.2295C504.749 90.7695 504.863 91.1715 505.091 91.4355C505.331 91.6875 505.697 91.8135 506.189 91.8135C506.717 91.8135 507.149 91.7415 507.485 91.5975L507.593 93.0375C507.101 93.2655 506.405 93.3795 505.505 93.3795ZM517.192 89.4555H510.856C511.06 90.9195 511.858 91.6515 513.25 91.6515C513.778 91.6515 514.246 91.5555 514.654 91.3635C515.062 91.1715 515.44 90.8715 515.788 90.4635L516.904 91.5255C516.556 92.0895 516.04 92.5395 515.356 92.8755C514.684 93.2115 513.946 93.3795 513.142 93.3795C511.762 93.3795 510.688 92.9715 509.92 92.1555C509.152 91.3275 508.768 90.1815 508.768 88.7175C508.768 87.2535 509.152 86.1075 509.92 85.2795C510.7 84.4395 511.762 84.0195 513.106 84.0195C514.39 84.0195 515.392 84.4335 516.112 85.2615C516.832 86.0895 517.192 87.2355 517.192 88.6995V89.4555ZM515.23 87.9255C515.23 87.2175 515.038 86.6655 514.654 86.2695C514.27 85.8735 513.736 85.6755 513.052 85.6755C512.428 85.6755 511.924 85.8855 511.54 86.3055C511.168 86.7135 510.934 87.2895 510.838 88.0335H515.23V87.9255ZM522.109 93.3795C520.933 93.3795 520.009 92.9475 519.337 92.0835C518.665 91.2195 518.329 90.0375 518.329 88.5375C518.329 87.6255 518.485 86.8335 518.797 86.1615C519.109 85.4775 519.553 84.9495 520.129 84.5775C520.705 84.2055 521.383 84.0195 522.163 84.0195C523.231 84.0195 524.071 84.4155 524.683 85.2075H524.719V79.8435H526.753V90.8415C526.753 92.0535 526.771 92.8395 526.807 93.1995H524.899C524.875 92.9595 524.863 92.5335 524.863 91.9215H524.827C524.551 92.3535 524.161 92.7075 523.657 92.9835C523.165 93.2475 522.649 93.3795 522.109 93.3795ZM522.487 91.7955C523.159 91.7955 523.693 91.5975 524.089 91.2015C524.497 90.8055 524.701 90.2715 524.701 89.5995V87.8175C524.701 87.1575 524.491 86.6175 524.071 86.1975C523.663 85.7655 523.135 85.5495 522.487 85.5495C521.803 85.5495 521.275 85.8135 520.903 86.3415C520.543 86.8695 520.363 87.6135 520.363 88.5735C520.363 89.5935 520.549 90.3855 520.921 90.9495C521.293 91.5135 521.815 91.7955 522.487 91.7955ZM400.964 107.199V115.857C400.964 117.345 400.592 118.473 399.848 119.241C399.104 120.009 398.012 120.393 396.572 120.393C395.9 120.393 395.264 120.315 394.664 120.159C394.064 120.003 393.53 119.775 393.062 119.475L393.728 118.071C394.16 118.287 394.616 118.455 395.096 118.575C395.576 118.695 396.038 118.755 396.482 118.755C398.174 118.755 399.02 117.693 399.02 115.569V115.101C398.78 115.473 398.438 115.761 397.994 115.965C397.55 116.169 397.034 116.271 396.446 116.271C395.21 116.271 394.25 115.857 393.566 115.029C392.882 114.201 392.54 113.049 392.54 111.573C392.54 110.133 392.87 109.017 393.53 108.225C394.202 107.421 395.132 107.019 396.32 107.019C396.932 107.019 397.472 107.139 397.94 107.379C398.408 107.607 398.78 107.943 399.056 108.387H399.092L399.254 107.199H400.964ZM398.912 111.123C398.912 110.307 398.726 109.677 398.354 109.233C397.994 108.777 397.478 108.549 396.806 108.549C396.098 108.549 395.546 108.813 395.15 109.341C394.766 109.869 394.574 110.625 394.574 111.609C394.574 112.593 394.766 113.355 395.15 113.895C395.534 114.423 396.08 114.687 396.788 114.687C397.46 114.687 397.982 114.483 398.354 114.075C398.726 113.667 398.912 113.091 398.912 112.347V111.123ZM410.914 112.455H404.578C404.782 113.919 405.58 114.651 406.972 114.651C407.5 114.651 407.968 114.555 408.376 114.363C408.784 114.171 409.162 113.871 409.51 113.463L410.626 114.525C410.278 115.089 409.762 115.539 409.078 115.875C408.406 116.211 407.668 116.379 406.864 116.379C405.484 116.379 404.41 115.971 403.642 115.155C402.874 114.327 402.49 113.181 402.49 111.717C402.49 110.253 402.874 109.107 403.642 108.279C404.422 107.439 405.484 107.019 406.828 107.019C408.112 107.019 409.114 107.433 409.834 108.261C410.554 109.089 410.914 110.235 410.914 111.699V112.455ZM408.952 110.925C408.952 110.217 408.76 109.665 408.376 109.269C407.992 108.873 407.458 108.675 406.774 108.675C406.15 108.675 405.646 108.885 405.262 109.305C404.89 109.713 404.656 110.289 404.56 111.033H408.952V110.925ZM412.448 109.539C412.448 108.423 412.424 107.643 412.376 107.199H414.284C414.344 107.763 414.374 108.291 414.374 108.783H414.41C414.638 108.243 415.028 107.817 415.58 107.505C416.132 107.181 416.744 107.019 417.416 107.019C418.46 107.019 419.246 107.367 419.774 108.063C420.302 108.747 420.566 109.767 420.566 111.123V116.199H418.514V111.105C418.514 110.265 418.376 109.647 418.1 109.251C417.836 108.855 417.41 108.657 416.822 108.657C416.126 108.657 415.562 108.903 415.13 109.395C414.698 109.875 414.482 110.499 414.482 111.267V116.199H412.448V109.539ZM425.886 116.379C424.71 116.379 423.786 115.947 423.114 115.083C422.442 114.219 422.106 113.037 422.106 111.537C422.106 110.625 422.262 109.833 422.574 109.161C422.886 108.477 423.33 107.949 423.906 107.577C424.482 107.205 425.16 107.019 425.94 107.019C427.008 107.019 427.848 107.415 428.46 108.207H428.496V102.843H430.53V113.841C430.53 115.053 430.548 115.839 430.584 116.199H428.676C428.652 115.959 428.64 115.533 428.64 114.921H428.604C428.328 115.353 427.938 115.707 427.434 115.983C426.942 116.247 426.426 116.379 425.886 116.379ZM426.264 114.795C426.936 114.795 427.47 114.597 427.866 114.201C428.274 113.805 428.478 113.271 428.478 112.599V110.817C428.478 110.157 428.268 109.617 427.848 109.197C427.44 108.765 426.912 108.549 426.264 108.549C425.58 108.549 425.052 108.813 424.68 109.341C424.32 109.869 424.14 110.613 424.14 111.573C424.14 112.593 424.326 113.385 424.698 113.949C425.07 114.513 425.592 114.795 426.264 114.795ZM440.534 112.455H434.198C434.402 113.919 435.2 114.651 436.592 114.651C437.12 114.651 437.588 114.555 437.996 114.363C438.404 114.171 438.782 113.871 439.13 113.463L440.246 114.525C439.898 115.089 439.382 115.539 438.698 115.875C438.026 116.211 437.288 116.379 436.484 116.379C435.104 116.379 434.03 115.971 433.262 115.155C432.494 114.327 432.11 113.181 432.11 111.717C432.11 110.253 432.494 109.107 433.262 108.279C434.042 107.439 435.104 107.019 436.448 107.019C437.732 107.019 438.734 107.433 439.454 108.261C440.174 109.089 440.534 110.235 440.534 111.699V112.455ZM438.572 110.925C438.572 110.217 438.38 109.665 437.996 109.269C437.612 108.873 437.078 108.675 436.394 108.675C435.77 108.675 435.266 108.885 434.882 109.305C434.51 109.713 434.276 110.289 434.18 111.033H438.572V110.925ZM442.193 109.395C442.193 108.375 442.175 107.643 442.139 107.199H444.065C444.113 107.667 444.137 108.195 444.137 108.783V108.963H444.191C444.419 108.363 444.809 107.889 445.361 107.541C445.913 107.193 446.549 107.019 447.269 107.019C447.485 107.019 447.665 107.037 447.809 107.073V108.693C447.689 108.669 447.527 108.657 447.323 108.657C446.759 108.657 446.237 108.813 445.757 109.125C445.289 109.425 444.917 109.839 444.641 110.367C444.365 110.895 444.227 111.465 444.227 112.077V116.199H442.193V109.395ZM450.38 105.975C449.972 105.975 449.642 105.867 449.39 105.651C449.15 105.423 449.03 105.123 449.03 104.751C449.03 104.367 449.15 104.067 449.39 103.851C449.642 103.623 449.972 103.509 450.38 103.509C450.788 103.509 451.112 103.623 451.352 103.851C451.604 104.067 451.73 104.367 451.73 104.751C451.73 105.123 451.604 105.423 451.352 105.651C451.112 105.867 450.788 105.975 450.38 105.975ZM449.354 107.199H451.406V116.199H449.354V107.199ZM453.164 115.083L458.114 108.747H453.416V107.199H460.58V108.243L455.702 114.651H460.76V116.199H453.164V115.083ZM470.188 112.455H463.852C464.056 113.919 464.854 114.651 466.246 114.651C466.774 114.651 467.242 114.555 467.65 114.363C468.058 114.171 468.436 113.871 468.784 113.463L469.9 114.525C469.552 115.089 469.036 115.539 468.352 115.875C467.68 116.211 466.942 116.379 466.138 116.379C464.758 116.379 463.684 115.971 462.916 115.155C462.148 114.327 461.764 113.181 461.764 111.717C461.764 110.253 462.148 109.107 462.916 108.279C463.696 107.439 464.758 107.019 466.102 107.019C467.386 107.019 468.388 107.433 469.108 108.261C469.828 109.089 470.188 110.235 470.188 111.699V112.455ZM468.226 110.925C468.226 110.217 468.034 109.665 467.65 109.269C467.266 108.873 466.732 108.675 466.048 108.675C465.424 108.675 464.92 108.885 464.536 109.305C464.164 109.713 463.93 110.289 463.834 111.033H468.226V110.925ZM475.105 116.379C473.929 116.379 473.005 115.947 472.333 115.083C471.661 114.219 471.325 113.037 471.325 111.537C471.325 110.625 471.481 109.833 471.793 109.161C472.105 108.477 472.549 107.949 473.125 107.577C473.701 107.205 474.379 107.019 475.159 107.019C476.227 107.019 477.067 107.415 477.679 108.207H477.715V102.843H479.749V113.841C479.749 115.053 479.767 115.839 479.803 116.199H477.895C477.871 115.959 477.859 115.533 477.859 114.921H477.823C477.547 115.353 477.157 115.707 476.653 115.983C476.161 116.247 475.645 116.379 475.105 116.379ZM475.483 114.795C476.155 114.795 476.689 114.597 477.085 114.201C477.493 113.805 477.697 113.271 477.697 112.599V110.817C477.697 110.157 477.487 109.617 477.067 109.197C476.659 108.765 476.131 108.549 475.483 108.549C474.799 108.549 474.271 108.813 473.899 109.341C473.539 109.869 473.359 110.613 473.359 111.573C473.359 112.593 473.545 113.385 473.917 113.949C474.289 114.513 474.811 114.795 475.483 114.795ZM497.282 107.199L494.996 116.199H493.178L491.252 109.377L489.326 116.199H487.526L485.24 107.199H487.364L488.606 113.211L490.352 107.199H492.17L493.916 113.247L495.158 107.199H497.282ZM502.652 116.379C501.236 116.379 500.12 115.965 499.304 115.137C498.5 114.297 498.098 113.151 498.098 111.699C498.098 110.247 498.5 109.107 499.304 108.279C500.12 107.439 501.236 107.019 502.652 107.019C504.068 107.019 505.178 107.439 505.982 108.279C506.798 109.107 507.206 110.247 507.206 111.699C507.206 113.151 506.798 114.297 505.982 115.137C505.178 115.965 504.068 116.379 502.652 116.379ZM502.652 114.849C503.432 114.849 504.044 114.573 504.488 114.021C504.932 113.457 505.154 112.683 505.154 111.699C505.154 110.715 504.932 109.947 504.488 109.395C504.044 108.831 503.432 108.549 502.652 108.549C501.872 108.549 501.26 108.831 500.816 109.395C500.372 109.947 500.15 110.715 500.15 111.699C500.15 112.683 500.372 113.457 500.816 114.021C501.26 114.573 501.872 114.849 502.652 114.849ZM508.867 109.395C508.867 108.375 508.849 107.643 508.813 107.199H510.739C510.787 107.667 510.811 108.195 510.811 108.783V108.963H510.865C511.093 108.363 511.483 107.889 512.035 107.541C512.587 107.193 513.223 107.019 513.943 107.019C514.159 107.019 514.339 107.037 514.483 107.073V108.693C514.363 108.669 514.201 108.657 513.997 108.657C513.433 108.657 512.911 108.813 512.431 109.125C511.963 109.425 511.591 109.839 511.315 110.367C511.039 110.895 510.901 111.465 510.901 112.077V116.199H508.867V109.395ZM518.998 116.379C517.822 116.379 516.898 115.947 516.226 115.083C515.554 114.219 515.218 113.037 515.218 111.537C515.218 110.625 515.374 109.833 515.686 109.161C515.998 108.477 516.442 107.949 517.018 107.577C517.594 107.205 518.272 107.019 519.052 107.019C520.12 107.019 520.96 107.415 521.572 108.207H521.608V102.843H523.642V113.841C523.642 115.053 523.66 115.839 523.696 116.199H521.788C521.764 115.959 521.752 115.533 521.752 114.921H521.716C521.44 115.353 521.05 115.707 520.546 115.983C520.054 116.247 519.538 116.379 518.998 116.379ZM519.376 114.795C520.048 114.795 520.582 114.597 520.978 114.201C521.386 113.805 521.59 113.271 521.59 112.599V110.817C521.59 110.157 521.38 109.617 520.96 109.197C520.552 108.765 520.024 108.549 519.376 108.549C518.692 108.549 518.164 108.813 517.792 109.341C517.432 109.869 517.252 110.613 517.252 111.573C517.252 112.593 517.438 113.385 517.81 113.949C518.182 114.513 518.704 114.795 519.376 114.795ZM528.353 116.379C527.609 116.379 526.949 116.229 526.373 115.929C525.797 115.629 525.389 115.227 525.149 114.723L526.445 113.841C526.649 114.153 526.919 114.399 527.255 114.579C527.603 114.759 527.969 114.849 528.353 114.849C528.785 114.849 529.145 114.735 529.433 114.507C529.721 114.267 529.865 113.961 529.865 113.589C529.865 113.313 529.757 113.085 529.541 112.905C529.337 112.725 528.911 112.509 528.263 112.257C527.195 111.849 526.439 111.435 525.995 111.015C525.563 110.595 525.347 110.073 525.347 109.449C525.347 108.717 525.641 108.129 526.229 107.685C526.817 107.241 527.597 107.019 528.569 107.019C529.229 107.019 529.817 107.145 530.333 107.397C530.861 107.649 531.275 108.009 531.575 108.477L530.369 109.377C530.177 109.113 529.931 108.909 529.631 108.765C529.331 108.621 529.001 108.549 528.641 108.549C528.257 108.549 527.951 108.627 527.723 108.783C527.495 108.927 527.381 109.131 527.381 109.395C527.381 109.587 527.429 109.749 527.525 109.881C527.621 110.001 527.795 110.127 528.047 110.259C528.311 110.391 528.707 110.559 529.235 110.763C530.243 111.159 530.939 111.555 531.323 111.951C531.707 112.347 531.899 112.863 531.899 113.499C531.899 114.363 531.575 115.059 530.927 115.587C530.279 116.115 529.421 116.379 528.353 116.379ZM548.962 107.199L546.676 116.199H544.858L542.932 109.377L541.006 116.199H539.206L536.92 107.199H539.044L540.286 113.211L542.032 107.199H543.85L545.596 113.247L546.838 107.199H548.962ZM558.202 112.455H551.866C552.07 113.919 552.868 114.651 554.26 114.651C554.788 114.651 555.256 114.555 555.664 114.363C556.072 114.171 556.45 113.871 556.798 113.463L557.914 114.525C557.566 115.089 557.05 115.539 556.366 115.875C555.694 116.211 554.956 116.379 554.152 116.379C552.772 116.379 551.698 115.971 550.93 115.155C550.162 114.327 549.778 113.181 549.778 111.717C549.778 110.253 550.162 109.107 550.93 108.279C551.71 107.439 552.772 107.019 554.116 107.019C555.4 107.019 556.402 107.433 557.122 108.261C557.842 109.089 558.202 110.235 558.202 111.699V112.455ZM556.24 110.925C556.24 110.217 556.048 109.665 555.664 109.269C555.28 108.873 554.746 108.675 554.062 108.675C553.438 108.675 552.934 108.885 552.55 109.305C552.178 109.713 551.944 110.289 551.848 111.033H556.24V110.925ZM559.861 109.395C559.861 108.375 559.843 107.643 559.807 107.199H561.733C561.781 107.667 561.805 108.195 561.805 108.783V108.963H561.859C562.087 108.363 562.477 107.889 563.029 107.541C563.581 107.193 564.217 107.019 564.937 107.019C565.153 107.019 565.333 107.037 565.477 107.073V108.693C565.357 108.669 565.195 108.657 564.991 108.657C564.427 108.657 563.905 108.813 563.425 109.125C562.957 109.425 562.585 109.839 562.309 110.367C562.033 110.895 561.895 111.465 561.895 112.077V116.199H559.861V109.395ZM574.69 112.455H568.354C568.558 113.919 569.356 114.651 570.748 114.651C571.276 114.651 571.744 114.555 572.152 114.363C572.56 114.171 572.938 113.871 573.286 113.463L574.402 114.525C574.054 115.089 573.538 115.539 572.854 115.875C572.182 116.211 571.444 116.379 570.64 116.379C569.26 116.379 568.186 115.971 567.418 115.155C566.65 114.327 566.266 113.181 566.266 111.717C566.266 110.253 566.65 109.107 567.418 108.279C568.198 107.439 569.26 107.019 570.604 107.019C571.888 107.019 572.89 107.433 573.61 108.261C574.33 109.089 574.69 110.235 574.69 111.699V112.455ZM572.728 110.925C572.728 110.217 572.536 109.665 572.152 109.269C571.768 108.873 571.234 108.675 570.55 108.675C569.926 108.675 569.422 108.885 569.038 109.305C568.666 109.713 568.432 110.289 568.336 111.033H572.728V110.925Z" fill="#F5F5F5"/>
<path d="M392.954 132.539C392.954 131.459 392.924 130.679 392.864 130.199H394.664C394.724 130.715 394.754 131.243 394.754 131.783H394.79C394.994 131.231 395.348 130.799 395.852 130.487C396.356 130.175 396.944 130.019 397.616 130.019C398.264 130.019 398.816 130.169 399.272 130.469C399.728 130.757 400.034 131.159 400.19 131.675C400.43 131.159 400.796 130.757 401.288 130.469C401.792 130.169 402.356 130.019 402.98 130.019C403.976 130.019 404.756 130.337 405.32 130.973C405.884 131.609 406.166 132.497 406.166 133.637V139.199H404.15V133.853C404.15 133.157 404 132.617 403.7 132.233C403.4 131.849 402.98 131.657 402.44 131.657C401.876 131.657 401.42 131.861 401.072 132.269C400.736 132.665 400.568 133.199 400.568 133.871V139.199H398.552V133.925C398.552 133.193 398.408 132.635 398.12 132.251C397.844 131.855 397.442 131.657 396.914 131.657C396.362 131.657 395.9 131.873 395.528 132.305C395.156 132.737 394.97 133.277 394.97 133.925V139.199H392.954V132.539ZM410.842 139.379C410.254 139.379 409.726 139.259 409.258 139.019C408.802 138.767 408.442 138.425 408.178 137.993C407.926 137.561 407.8 137.075 407.8 136.535C407.8 135.623 408.154 134.921 408.862 134.429C409.582 133.937 410.596 133.691 411.904 133.691H413.47V133.277C413.47 132.737 413.314 132.323 413.002 132.035C412.69 131.747 412.252 131.603 411.688 131.603C411.148 131.603 410.638 131.705 410.158 131.909C409.69 132.101 409.3 132.383 408.988 132.755L408.052 131.549C408.508 131.057 409.06 130.679 409.708 130.415C410.356 130.151 411.04 130.019 411.76 130.019C412.936 130.019 413.854 130.301 414.514 130.865C415.174 131.417 415.504 132.197 415.504 133.205V137.345C415.504 137.597 415.528 137.903 415.576 138.263C415.624 138.611 415.678 138.923 415.738 139.199H413.92C413.812 138.947 413.734 138.569 413.686 138.065H413.65C412.954 138.941 412.018 139.379 410.842 139.379ZM411.31 137.831C411.922 137.831 412.432 137.669 412.84 137.345C413.26 137.009 413.47 136.601 413.47 136.121V135.077H411.85C411.19 135.077 410.68 135.203 410.32 135.455C409.972 135.707 409.798 136.067 409.798 136.535C409.798 136.943 409.93 137.261 410.194 137.489C410.458 137.717 410.83 137.831 411.31 137.831ZM419.957 139.379C419.225 139.379 418.667 139.181 418.283 138.785C417.911 138.377 417.725 137.783 417.725 137.003V125.843H419.777V137.021C419.777 137.345 419.843 137.579 419.975 137.723C420.107 137.855 420.323 137.921 420.623 137.921C420.923 137.921 421.253 137.843 421.613 137.687L421.919 138.821C421.403 139.193 420.749 139.379 419.957 139.379ZM430.461 135.455H424.125C424.329 136.919 425.127 137.651 426.519 137.651C427.047 137.651 427.515 137.555 427.923 137.363C428.331 137.171 428.709 136.871 429.057 136.463L430.173 137.525C429.825 138.089 429.309 138.539 428.625 138.875C427.953 139.211 427.215 139.379 426.411 139.379C425.031 139.379 423.957 138.971 423.189 138.155C422.421 137.327 422.037 136.181 422.037 134.717C422.037 133.253 422.421 132.107 423.189 131.279C423.969 130.439 425.031 130.019 426.375 130.019C427.659 130.019 428.661 130.433 429.381 131.261C430.101 132.089 430.461 133.235 430.461 134.699V135.455ZM428.499 133.925C428.499 133.217 428.307 132.665 427.923 132.269C427.539 131.873 427.005 131.675 426.321 131.675C425.697 131.675 425.193 131.885 424.809 132.305C424.437 132.713 424.203 133.289 424.107 134.033H428.499V133.925Z" fill="#FF83A8"/>
<path d="M402.44 66.5595C400.616 66.5595 399.008 66.1515 397.616 65.3355C396.224 64.5195 395.144 63.3795 394.376 61.9155C393.608 60.4275 393.224 58.7115 393.224 56.7675C393.224 54.0315 393.932 51.4515 395.348 49.0275C396.764 46.5795 398.684 44.5875 401.108 43.0515C403.556 41.4915 406.232 40.6155 409.136 40.4235L409.676 44.7795C407.924 45.0195 406.316 45.5355 404.852 46.3275C403.388 47.0955 402.188 48.1515 401.252 49.4955C401.684 49.4235 402.164 49.3875 402.692 49.3875C405.38 49.3875 407.492 50.1555 409.028 51.6915C410.564 53.2035 411.332 55.3035 411.332 57.9915C411.332 59.6955 410.96 61.1955 410.216 62.4915C409.472 63.7875 408.428 64.7955 407.084 65.5155C405.74 66.2115 404.192 66.5595 402.44 66.5595ZM402.404 61.9515C403.388 61.9515 404.168 61.5915 404.744 60.8715C405.344 60.1275 405.644 59.1555 405.644 57.9555C405.644 56.7555 405.344 55.7955 404.744 55.0755C404.168 54.3315 403.388 53.9595 402.404 53.9595C401.42 53.9595 400.628 54.3315 400.028 55.0755C399.452 55.7955 399.164 56.7555 399.164 57.9555C399.164 59.1555 399.452 60.1275 400.028 60.8715C400.628 61.5915 401.42 61.9515 402.404 61.9515ZM422.215 66.5595C420.487 66.5595 418.855 66.1995 417.319 65.4795C415.783 64.7355 414.595 63.7635 413.755 62.5635L416.203 58.9275C418.051 60.9675 419.995 61.9875 422.035 61.9875C423.283 61.9875 424.255 61.5795 424.951 60.7635C425.671 59.9475 426.031 58.8315 426.031 57.4155C426.031 56.0955 425.719 55.0635 425.095 54.3195C424.495 53.5755 423.643 53.2035 422.539 53.2035C421.891 53.2035 421.267 53.4195 420.667 53.8515C420.067 54.2595 419.611 54.7995 419.299 55.4715H414.511L415.771 40.9995H431.035V45.5715H420.883L420.451 50.4315C420.763 50.0475 421.267 49.7115 421.963 49.4235C422.683 49.1355 423.391 48.9915 424.087 48.9915C425.623 48.9915 426.967 49.3395 428.119 50.0355C429.295 50.7315 430.207 51.7155 430.855 52.9875C431.503 54.2355 431.827 55.6875 431.827 57.3435C431.827 59.1675 431.419 60.7755 430.603 62.1675C429.811 63.5595 428.683 64.6395 427.219 65.4075C425.779 66.1755 424.111 66.5595 422.215 66.5595ZM441.127 55.6875C439.831 55.6875 438.679 55.3755 437.671 54.7515C436.687 54.1035 435.907 53.2155 435.331 52.0875C434.779 50.9355 434.503 49.6275 434.503 48.1635C434.503 46.6995 434.779 45.4035 435.331 44.2755C435.907 43.1235 436.687 42.2355 437.671 41.6115C438.679 40.9635 439.831 40.6395 441.127 40.6395C442.423 40.6395 443.563 40.9635 444.547 41.6115C445.555 42.2355 446.335 43.1235 446.887 44.2755C447.463 45.4035 447.751 46.6995 447.751 48.1635C447.751 49.6275 447.463 50.9355 446.887 52.0875C446.335 53.2155 445.555 54.1035 444.547 54.7515C443.563 55.3755 442.423 55.6875 441.127 55.6875ZM455.527 40.9995H461.467L446.059 66.6675H440.119L455.527 40.9995ZM441.127 51.7275C441.679 51.7275 442.123 51.4035 442.459 50.7555C442.819 50.0835 442.999 49.2195 442.999 48.1635C442.999 47.1075 442.819 46.2555 442.459 45.6075C442.123 44.9355 441.679 44.5995 441.127 44.5995C440.575 44.5995 440.119 44.9355 439.759 45.6075C439.423 46.2555 439.255 47.1075 439.255 48.1635C439.255 49.2195 439.423 50.0835 439.759 50.7555C440.119 51.4035 440.575 51.7275 441.127 51.7275ZM460.639 66.5235C459.343 66.5235 458.191 66.2115 457.183 65.5875C456.199 64.9395 455.419 64.0515 454.843 62.9235C454.291 61.7715 454.015 60.4635 454.015 58.9995C454.015 57.5355 454.291 56.2395 454.843 55.1115C455.419 53.9595 456.199 53.0715 457.183 52.4475C458.191 51.7995 459.343 51.4755 460.639 51.4755C461.935 51.4755 463.075 51.7995 464.059 52.4475C465.067 53.0715 465.847 53.9595 466.399 55.1115C466.975 56.2395 467.263 57.5355 467.263 58.9995C467.263 60.4635 466.975 61.7715 466.399 62.9235C465.847 64.0515 465.067 64.9395 464.059 65.5875C463.075 66.2115 461.935 66.5235 460.639 66.5235ZM460.639 62.5635C461.191 62.5635 461.635 62.2395 461.971 61.5915C462.331 60.9195 462.511 60.0555 462.511 58.9995C462.511 57.9435 462.331 57.0915 461.971 56.4435C461.635 55.7715 461.191 55.4355 460.639 55.4355C460.087 55.4355 459.631 55.7715 459.271 56.4435C458.935 57.0915 458.767 57.9435 458.767 58.9995C458.767 60.0555 458.935 60.9195 459.271 61.5915C459.631 62.2395 460.087 62.5635 460.639 62.5635Z" fill="#FF83A8"/>
</svg>
