<svg width="277" height="258" viewBox="0 0 277 258" fill="none" xmlns="http://www.w3.org/2000/svg">
<path d="M143.931 34.4162V67.4439L179.507 77.5003V21.7644L143.931 11.708V34.4162Z" fill="#EDEEEF"/>
<path d="M164.028 45.8432C163.502 45.8432 163.076 45.3534 163.076 44.7492C163.076 44.1451 163.502 43.6553 164.028 43.6553C164.553 43.6553 164.979 44.1451 164.979 44.7492C164.979 45.3534 164.553 45.8432 164.028 45.8432Z" fill="#121212"/>
<path d="M149.417 45.8432C148.892 45.8432 148.466 45.3534 148.466 44.7492C148.466 44.1451 148.892 43.6553 149.417 43.6553C149.943 43.6553 150.368 44.1451 150.368 44.7492C150.368 45.3534 149.943 45.8432 149.417 45.8432Z" fill="#121212"/>
<path d="M153.703 51.2751V34.4165H146.359" stroke="#121212" stroke-width="1.5" stroke-linecap="round" stroke-linejoin="round"/>
<path d="M165.819 34.4164H158.475" stroke="#121212" stroke-width="1.5" stroke-linecap="round" stroke-linejoin="round"/>
<path d="M177.164 43.0546V48.9091C179.91 48.9091 182.136 46.349 182.136 43.1909C182.136 43.0155 182.129 42.842 182.116 42.6705C181.837 39.1196 177.164 39.4893 177.164 43.0546Z" fill="#EDEEEF"/>
<path d="M177.164 48.9091C179.91 48.9091 182.136 46.349 182.136 43.1909" stroke="#121212" stroke-width="1.5" stroke-linecap="round" stroke-linejoin="round"/>
<path d="M156.916 55.4315C159.695 55.4315 161.948 52.8404 161.948 49.644" stroke="#FF83A8" stroke-width="1.5" stroke-linecap="round" stroke-linejoin="round"/>
<path d="M143.931 67.4438L179.507 77.4999" stroke="#121212" stroke-width="1.5" stroke-linecap="round" stroke-linejoin="round"/>
<path d="M153.703 51.2891L156.915 52.197" stroke="#121212" stroke-width="1.5" stroke-linecap="round" stroke-linejoin="round"/>
<path d="M176.328 34.4166C176.328 34.4166 160.138 31.8432 156.915 24.7086L155.309 30.4934C155.309 30.4934 148.788 28.1795 146.359 22.9731L143.93 30.8791" stroke="#121212" stroke-width="1.5" stroke-linecap="round" stroke-linejoin="round"/>
<path d="M143.931 38.2066C143.931 38.2066 123.736 0.990723 160.129 6.83518L155.31 0.990723C155.31 0.990723 166.603 3.11183 172.639 10.6321C172.639 10.6321 196.489 15.9749 181.379 40.878" stroke="#121212" stroke-width="1.5" stroke-linecap="round" stroke-linejoin="round"/>
<path d="M106.692 136.643V225.987L216.746 257.095V157.59C216.746 122.308 195.801 91.5837 166.009 83.1625H166.009C151.721 79.124 136.612 82.8628 125.034 93.3022C113.455 103.742 106.692 119.723 106.692 136.643V136.643Z" fill="#EDEEEF"/>
<path d="M124.899 93.4268C124.899 93.4268 112.199 102.32 86.0821 147.444C86.0821 147.444 35.8755 83.4888 24.2503 81.5447C12.6252 79.6006 1.00001 81.5447 1.00001 81.5447V88.8564L9.49532 92.4558C9.49532 92.4558 3.23561 107.882 17.0964 114.053C17.0964 114.053 61.4526 300.658 128.968 214.785" stroke="#121212" stroke-width="1.5" stroke-linecap="round" stroke-linejoin="round"/>
<path d="M196.273 102.32C196.273 102.32 262.567 155.189 275.086 208.153C287.605 261.116 167.439 230.264 165.819 228.207C164.2 226.15 156.915 204.904 156.915 204.904L148.466 199.411V190.155L225.232 191.184" stroke="#121212" stroke-width="1.5" stroke-linecap="round" stroke-linejoin="round"/>
<path d="M216.746 244.34C210.118 247.478 203.015 249.073 195.848 249.032C172.057 249.032 152.771 232.341 152.771 211.752C152.775 208.778 153.182 205.824 153.978 202.994L156.915 204.904C156.915 204.904 164.2 226.15 165.82 228.207C166.545 229.128 191.039 235.821 216.746 238.179V244.34Z" fill="#121212"/>
</svg>
