<svg width="308" height="361" viewBox="0 0 308 361" fill="none" xmlns="http://www.w3.org/2000/svg">
<path d="M288.665 145.55L216.104 140.391C210.628 174.297 234.473 276.501 234.473 276.501L291.403 224.418C264.022 171.348 288.665 145.55 288.665 145.55Z" fill="#FF83A8"/>
<path d="M129.296 40.969V88.3115L74.8298 102.725V22.8324L129.296 8.41846V40.969Z" fill="#EDEEEF"/>
<path d="M98.5291 57.3481C99.3334 57.3481 99.9854 56.6461 99.9854 55.78C99.9854 54.914 99.3334 54.2119 98.5291 54.2119C97.7248 54.2119 97.0728 54.914 97.0728 55.78C97.0728 56.6461 97.7248 57.3481 98.5291 57.3481Z" fill="#121212"/>
<path d="M120.897 57.3481C121.701 57.3481 122.353 56.6461 122.353 55.78C122.353 54.914 121.701 54.2119 120.897 54.2119C120.093 54.2119 119.441 54.914 119.441 55.78C119.441 56.6461 120.093 57.3481 120.897 57.3481Z" fill="#121212"/>
<path d="M114.335 65.1347V40.9692H125.578" stroke="#121212" stroke-width="1.5" stroke-linecap="round" stroke-linejoin="round"/>
<path d="M95.7856 40.9688H107.029" stroke="#121212" stroke-width="1.5" stroke-linecap="round" stroke-linejoin="round"/>
<path d="M78.4171 53.3509V61.7429C74.213 61.7429 70.8049 58.0732 70.8049 53.5463C70.8049 53.2948 70.8153 53.0462 70.836 52.8003C71.2625 47.7105 78.4171 48.2404 78.4171 53.3509Z" fill="#EDEEEF"/>
<path d="M78.4171 61.743C74.213 61.743 70.8049 58.0732 70.8049 53.5464" stroke="#121212" stroke-width="1.5" stroke-linecap="round" stroke-linejoin="round"/>
<path d="M109.417 71.0918C107.374 71.0918 105.414 70.2178 103.969 68.662C102.524 67.1062 101.713 64.9961 101.713 62.7959" stroke="#FF83A8" stroke-width="1.5" stroke-linecap="round" stroke-linejoin="round"/>
<path d="M129.296 88.311L74.8298 102.726" stroke="#121212" stroke-width="1.5" stroke-linecap="round" stroke-linejoin="round"/>
<path d="M114.335 65.1538L109.417 66.4552" stroke="#121212" stroke-width="1.5" stroke-linecap="round" stroke-linejoin="round"/>
<path d="M80.3962 51.0205C80.3962 51.0205 106.066 38.4902 113.596 27.8025V35.1733C113.596 35.1733 127.458 29.6452 130.88 23.1958" stroke="#121212" stroke-width="1.5" stroke-linecap="round" stroke-linejoin="round"/>
<path d="M129.297 36.0946C129.297 36.0946 141.32 30.5665 138.068 18.5889C134.817 6.6114 109.417 -2.60207 90.4931 3.11029C90.4931 3.11029 34.866 14.8114 74.83 77.2788" stroke="#121212" stroke-width="1.5" stroke-linecap="round" stroke-linejoin="round"/>
<path d="M189.81 187.503V315.57L21.3201 360.161V217.529C21.3201 166.955 53.3855 122.914 98.9972 110.843H98.9974C120.871 105.054 144.002 110.413 161.729 125.377C179.455 140.341 189.81 163.249 189.81 187.503V187.503Z" fill="#EDEEEF"/>
<path d="M63.6661 128.417C63.6661 128.417 -10.4752 174.297 2.5309 273.065C15.537 371.834 190.777 334.98 233.902 280.436L237.325 256.849C237.325 256.849 261.673 224.757 247.788 231.59C233.902 238.422 93.6463 249.479 93.6463 249.479L95.7854 214.836" stroke="#121212" stroke-width="1.5" stroke-linecap="round" stroke-linejoin="round"/>
<path d="M169.233 132.654C169.233 132.654 213.178 169.842 225.594 236.195" stroke="#121212" stroke-width="1.5" stroke-linecap="round" stroke-linejoin="round"/>
<path d="M197.414 334.762C197.414 334.762 264.707 352.301 294.141 270.117C318.814 201.229 299.618 168.4 290.719 166.189C281.82 163.978 279.082 177.245 279.082 177.245" stroke="#121212" stroke-width="1.5" stroke-linecap="round" stroke-linejoin="round"/>
</svg>
