<svg width="50" height="50" viewBox="0 0 50 50" fill="none" xmlns="http://www.w3.org/2000/svg">
<circle r="23" transform="matrix(-1 0 0 1 25 25)" stroke="#FF83A8" stroke-width="4"/>
<path d="M14.4506 25.0334C14.4506 30.8412 19.1588 35.5494 24.9666 35.5494C30.7745 35.5494 35.4826 30.8412 35.4826 25.0334C35.4826 19.2255 30.7745 14.5173 24.9666 14.5173C19.1588 14.5173 14.4506 19.2255 14.4506 25.0334Z" stroke="#FF83A8" stroke-width="3"/>
<path d="M32.0427 8.48049L28.4719 13.7708L26.7337 13.9185L25.0334 13.6478L27.7351 10.2521L30.1402 7.20951L30.474 7.00925L30.6742 6.94249L30.8745 6.87574L31.0748 6.84236L31.3084 6.80898L31.542 6.84236L31.7782 6.9057L31.9092 7.076L31.976 7.24289L32.0427 7.47654L32.0761 7.64343L32.1095 7.87707V8.07734V8.17747V8.2776L32.0761 8.37774L32.0427 8.48049Z" fill="#FF83A8" stroke="#FF83A8"/>
<path d="M17.5567 41.4861L21.1275 36.1957L22.8657 36.0481L24.5661 36.3188L21.8644 39.7144L19.4593 42.757L19.1255 42.9573L18.9252 43.0241L18.725 43.0908L18.5247 43.1242L18.2911 43.1576L18.0574 43.1242L17.8212 43.0609L17.6903 42.8906L17.6235 42.7237L17.5567 42.49L17.5234 42.3231L17.49 42.0895V41.8892V41.7891V41.689L17.5234 41.5888L17.5567 41.4861Z" fill="#FF83A8" stroke="#FF83A8"/>
<rect width="2.73698" height="9.21228" transform="matrix(-1 0 0 1 26.3685 10.3472)" fill="#121212"/>
<rect width="2.73698" height="9.21228" transform="matrix(-1 0 0 1 26.3685 31.4419)" fill="#121212"/>
</svg>
