<svg width="835" height="492" viewBox="0 0 835 492" fill="none" xmlns="http://www.w3.org/2000/svg">
<path d="M474.584 232.356L444.486 195.955L429.564 469.345H474.584L467.934 458.596C468.36 416.675 474.584 232.356 474.584 232.356Z" fill="#E2E2E2"/>
<path d="M463.808 210.745L413.889 206.694L404.812 211.074L400.546 469.344H446.912L442.01 458.937L463.808 210.745Z" fill="#EDEEEF"/>
<path d="M446.912 469.344L442.01 458.937L463.808 210.745" stroke="black" stroke-width="1.5" stroke-linecap="round" stroke-linejoin="round"/>
<path d="M423.868 86.5398V95.8746C423.868 103.093 428.027 109.378 433.944 111.101L446.483 114.752V78.2547L436.057 75.2189C433.121 74.364 430.016 75.1554 427.637 77.3653C425.257 79.5751 423.868 82.958 423.868 86.5398V86.5398Z" fill="#EDEEEF"/>
<path d="M423.868 95.8746C423.868 103.093 428.027 109.378 433.944 111.101L446.483 114.752" stroke="black" stroke-width="1.5" stroke-linecap="round" stroke-linejoin="round"/>
<path d="M436.643 94.0224C436.977 94.0224 437.247 93.7017 437.247 93.3061C437.247 92.9104 436.977 92.5897 436.643 92.5897C436.309 92.5897 436.038 92.9104 436.038 93.3061C436.038 93.7017 436.309 94.0224 436.643 94.0224Z" fill="black"/>
<path d="M427.356 94.0224C427.69 94.0224 427.96 93.7017 427.96 93.3061C427.96 92.9104 427.69 92.5897 427.356 92.5897C427.022 92.5897 426.751 92.9104 426.751 93.3061C426.751 93.7017 427.022 94.0224 427.356 94.0224Z" fill="black"/>
<path d="M430.08 97.5794V86.5399H425.412" stroke="black" stroke-width="1.5" stroke-linecap="round" stroke-linejoin="round"/>
<path d="M437.782 86.5398H433.114" stroke="black" stroke-width="1.5" stroke-linecap="round" stroke-linejoin="round"/>
<path d="M444.993 92.1962V96.0299C446.739 96.0299 448.154 94.3535 448.154 92.2855C448.154 92.1706 448.15 92.057 448.141 91.9447C447.964 89.6195 444.993 89.8616 444.993 92.1962Z" fill="#EDEEEF"/>
<path d="M444.993 96.0299C446.739 96.0299 448.154 94.3535 448.154 92.2855" stroke="black" stroke-width="1.5" stroke-linecap="round" stroke-linejoin="round"/>
<path d="M432.632 98.8693C433.025 99.3343 433.557 99.5955 434.112 99.5955C434.667 99.5955 435.2 99.3343 435.592 98.8693" stroke="#FF83A8" stroke-width="1.5" stroke-linecap="round" stroke-linejoin="round"/>
<path d="M430.08 97.5883L432.122 98.1828" stroke="black" stroke-width="1.5" stroke-linecap="round" stroke-linejoin="round"/>
<path d="M404.625 153.481V211.985L474.584 232.356V167.198C474.584 144.094 461.27 123.975 442.332 118.46H442.332C433.249 115.816 423.645 118.264 416.285 125.1C408.925 131.936 404.625 142.401 404.625 153.481V153.481Z" fill="#FF83A8"/>
<path d="M446.574 106.725C446.574 106.725 443.686 115.901 450.738 121.372C457.387 126.531 462.87 108.644 459.454 95.933C459.255 95.1955 459.157 94.4249 459.163 93.6505C459.205 88.6673 458.025 69.3215 437.247 68.0023C423.368 67.1211 411.956 79.1279 423.389 92.5897" stroke="black" stroke-width="1.5" stroke-linecap="round" stroke-linejoin="round"/>
<path d="M423.868 86.5398C423.868 86.5398 428.285 87.4478 430.416 80.3767C430.416 80.3767 437.116 91.4043 444.993 89.7207L445.554 90.7493" stroke="black" stroke-width="1.5" stroke-linecap="round" stroke-linejoin="round"/>
<path d="M458.982 121.671C458.982 121.671 459.209 126.368 451.279 124.623" stroke="#FF83A8" stroke-width="1.5" stroke-linecap="round" stroke-linejoin="round"/>
<path d="M460.501 126.255C460.501 126.255 464.95 147.215 456.423 144.437C447.896 141.66 453.439 129.033 453.439 129.033" stroke="black" stroke-width="1.5" stroke-linecap="round" stroke-linejoin="round"/>
<path d="M372.42 101.334L388.801 97.588L336.788 67.9182L358.744 114.752L363.86 108.167L367.669 116.153L370.078 106.048" fill="#FF83A8"/>
<path d="M425.839 119.182C425.839 119.182 404.845 126.76 391.416 167.742C391.416 167.742 379.497 108.991 376.65 105.546C372.245 100.215 366.063 96.4549 368.053 101.842C370.042 107.23 372.032 108.167 372.032 108.167C372.032 108.167 366.631 113.429 370.326 117.4" stroke="black" stroke-width="1.5" stroke-linecap="round" stroke-linejoin="round"/>
<path d="M364.619 97.5793C364.073 96.96 356.542 116.826 366.063 128.107C366.063 128.107 349.01 284.681 432.122 190.4" stroke="black" stroke-width="1.5" stroke-linecap="round" stroke-linejoin="round"/>
<path d="M427.533 195.461C427.533 195.461 421.39 242.922 404.625 257.319V215.298C404.625 215.298 426.044 197.089 427.533 195.461Z" fill="black"/>
<path d="M467.768 139.9C467.768 139.9 504.682 199.996 474.584 262.626" stroke="black" stroke-width="1.5" stroke-linecap="round" stroke-linejoin="round"/>
<path d="M586.87 461.15C585.674 374.385 559.276 209.282 559.276 209.282L534.754 212.606L519.789 323.705L559.276 479.697L592.176 469.375L586.87 461.15Z" fill="#FF83A8"/>
<path d="M525.378 282.21L519.789 323.705L540.682 406.244C546.162 392.203 549.367 375.235 549.367 356.957C549.367 325.315 539.765 297.596 525.378 282.21Z" fill="black"/>
<path d="M549.367 207.979L502.687 203.723L494.199 208.324L490.209 479.697H533.567L528.983 468.761L549.367 207.979Z" fill="#FF83A8"/>
<path d="M514.62 77.4726V87.281C514.62 94.8653 518.509 101.47 524.042 103.28L535.767 107.116V68.7672L526.018 65.5774C523.272 64.6791 520.369 65.5107 518.144 67.8327C515.919 70.1546 514.62 73.7092 514.62 77.4726V77.4726Z" fill="#EDEEEF"/>
<path d="M514.62 87.281C514.62 94.8652 518.509 101.47 524.042 103.28L535.767 107.116" stroke="black" stroke-width="1.5" stroke-linecap="round" stroke-linejoin="round"/>
<path d="M526.566 85.3349C526.878 85.3349 527.131 84.9979 527.131 84.5822C527.131 84.1665 526.878 83.8295 526.566 83.8295C526.254 83.8295 526 84.1665 526 84.5822C526 84.9979 526.254 85.3349 526.566 85.3349Z" fill="black"/>
<path d="M517.881 85.3349C518.193 85.3349 518.446 84.9979 518.446 84.5822C518.446 84.1665 518.193 83.8295 517.881 83.8295C517.569 83.8295 517.315 84.1665 517.315 84.5822C517.315 84.9979 517.569 85.3349 517.881 85.3349Z" fill="black"/>
<path d="M520.429 89.0719V77.4724H516.063" stroke="black" stroke-width="1.5" stroke-linecap="round" stroke-linejoin="round"/>
<path d="M527.631 77.4726H523.266" stroke="black" stroke-width="1.5" stroke-linecap="round" stroke-linejoin="round"/>
<path d="M534.375 83.416V87.4442C536.007 87.4442 537.33 85.6827 537.33 83.5098C537.33 83.3891 537.326 83.2697 537.318 83.1517C537.152 80.7086 534.375 80.9629 534.375 83.416Z" fill="#EDEEEF"/>
<path d="M534.375 87.4443C536.007 87.4443 537.33 85.6828 537.33 83.5099" stroke="black" stroke-width="1.5" stroke-linecap="round" stroke-linejoin="round"/>
<path d="M522.816 90.4276C523.183 90.9162 523.681 91.1907 524.2 91.1907C524.719 91.1907 525.217 90.9162 525.584 90.4276" stroke="#FF83A8" stroke-width="1.5" stroke-linecap="round" stroke-linejoin="round"/>
<path d="M520.429 89.0815L522.338 89.7062" stroke="black" stroke-width="1.5" stroke-linecap="round" stroke-linejoin="round"/>
<path d="M559.276 147.809V209.282L493.856 230.686V162.222C493.856 137.946 506.306 116.806 524.016 111.012H524.016C532.509 108.234 541.49 110.806 548.373 117.989C555.255 125.172 559.276 136.167 559.276 147.809Z" fill="#EDEEEF"/>
<path d="M514.62 83.5099C514.62 83.5099 502.688 63.744 518.446 59.2331C534.205 54.7221 537.993 57.5083 539.587 62.2846C541.182 67.0609 543.708 89.3503 535.767 92.5345" stroke="black" stroke-width="1.5" stroke-linecap="round" stroke-linejoin="round"/>
<path d="M515.384 77.4727C520.207 76.9803 524.701 74.0264 527.926 69.2279C527.926 69.2279 529.189 79.3112 533.707 80.1073L534.375 81.7878" stroke="black" stroke-width="1.5" stroke-linecap="round" stroke-linejoin="round"/>
<path d="M529.122 55.9161C529.122 55.9161 528.624 48.619 536.398 48.7517C544.172 48.8843 552.521 62.6553 541.27 74.7424" stroke="black" stroke-width="1.5" stroke-linecap="round" stroke-linejoin="round"/>
<path d="M528.983 468.761L549.367 207.979" stroke="black" stroke-width="1.5" stroke-linecap="round" stroke-linejoin="round"/>
<path d="M513.178 116.927C513.178 116.927 477.766 140.961 469.394 189.255C461.022 237.549 506.072 281.597 506.072 281.597L517.881 259.838L499.294 206.237L521.384 166.965" stroke="black" stroke-width="1.5" stroke-linecap="round" stroke-linejoin="round"/>
<path d="M506.072 281.597L525 246.72" stroke="black" stroke-width="1.5" stroke-linecap="round" stroke-linejoin="round"/>
<path d="M549.367 119.078C550.749 120.763 570.258 142.553 571.853 184.478L580.225 141.492C580.225 141.492 574.245 129.816 580.225 128.224C580.225 128.224 579.029 109.345 587.401 116.927C595.773 124.509 612.3 228.794 562.974 233.437" stroke="black" stroke-width="1.5" stroke-linecap="round" stroke-linejoin="round"/>
<path d="M146.3 224.286L184.534 228.372L176.979 294.828L272.721 327.569L266.312 374.067L258.881 367.667C80.7214 382.52 146.3 224.286 146.3 224.286Z" fill="#E2E2E2"/>
<path d="M162.952 228.866L214.929 219.346V290.085V464.551H174.176L178.359 454.834L162.952 228.866Z" fill="#EDEEEF"/>
<path d="M214.929 290.085V464.551H174.176" stroke="#121212" stroke-width="1.5" stroke-linecap="round" stroke-linejoin="round"/>
<path d="M178.359 454.834L162.952 228.866" stroke="#121212" stroke-width="1.5" stroke-linecap="round" stroke-linejoin="round"/>
<path d="M190.629 107.173V115.888C190.629 122.626 186.548 128.494 180.744 130.103L168.443 133.511V99.4381L178.671 96.604C181.552 95.8059 184.597 96.5447 186.931 98.6078C189.266 100.671 190.629 103.829 190.629 107.173V107.173Z" fill="#EDEEEF"/>
<path d="M190.629 115.888C190.629 122.626 186.548 128.494 180.744 130.103L168.443 133.511" stroke="#121212" stroke-width="1.5" stroke-linecap="round" stroke-linejoin="round"/>
<path d="M178.097 114.159C177.769 114.159 177.504 113.859 177.504 113.49C177.504 113.121 177.769 112.821 178.097 112.821C178.424 112.821 178.69 113.121 178.69 113.49C178.69 113.859 178.424 114.159 178.097 114.159Z" fill="#121212"/>
<path d="M187.208 114.159C186.88 114.159 186.614 113.859 186.614 113.49C186.614 113.121 186.88 112.821 187.208 112.821C187.535 112.821 187.801 113.121 187.801 113.49C187.801 113.859 187.535 114.159 187.208 114.159Z" fill="#121212"/>
<path d="M184.535 117.479V107.173H189.114" stroke="#121212" stroke-width="1.5" stroke-linecap="round" stroke-linejoin="round"/>
<path d="M176.979 107.173H181.559" stroke="#121212" stroke-width="1.5" stroke-linecap="round" stroke-linejoin="round"/>
<path d="M169.904 112.454V116.033C168.192 116.033 166.804 114.468 166.804 112.537C166.804 112.43 166.808 112.324 166.816 112.219C166.99 110.049 169.904 110.275 169.904 112.454Z" fill="#EDEEEF"/>
<path d="M169.904 116.033C168.192 116.033 166.804 114.468 166.804 112.537" stroke="#121212" stroke-width="1.5" stroke-linecap="round" stroke-linejoin="round"/>
<path d="M182.03 118.684C181.645 119.118 181.123 119.362 180.578 119.362C180.034 119.362 179.512 119.118 179.127 118.684" stroke="#FF83A8" stroke-width="1.5" stroke-linecap="round" stroke-linejoin="round"/>
<path d="M184.535 117.488L182.532 118.043" stroke="#121212" stroke-width="1.5" stroke-linecap="round" stroke-linejoin="round"/>
<path d="M191.324 104.185C191.324 104.185 185.675 104.893 183.533 99.8236C183.533 99.8236 180.868 104.899 173.026 105.485C173.026 105.485 172.695 110.851 169.905 112.454" stroke="#121212" stroke-width="1.5" stroke-linecap="round" stroke-linejoin="round"/>
<path d="M191.324 110.701C191.324 110.701 201.501 105.398 194.67 96.2847C187.838 87.1713 165.079 82.6132 159.677 99.824C154.442 116.504 168.354 123.008 168.354 123.008" stroke="#121212" stroke-width="1.5" stroke-linecap="round" stroke-linejoin="round"/>
<path d="M161.002 91.6899C161.002 91.6899 157.447 95.3443 157.865 99.2344" stroke="#FF83A8" stroke-width="1.5" stroke-linecap="round" stroke-linejoin="round"/>
<path d="M158.5 91.6899L151.173 78.5264C151.173 78.5264 136.396 86.0708 145.318 102.103L155.913 98.4878" stroke="#121212" stroke-width="1.5" stroke-linecap="round" stroke-linejoin="round"/>
<path d="M146.3 169.667V224.286L214.929 243.303V182.473C214.929 160.904 201.868 142.121 183.29 136.973H183.29C174.38 134.504 164.958 136.79 157.738 143.172C150.517 149.554 146.3 159.323 146.3 169.667V169.667Z" fill="#FF83A8"/>
<path d="M205.635 152.943C205.635 152.943 246.949 195.939 240.815 228.867C234.681 261.794 208.751 276.569 208.751 276.569C208.751 276.569 198.992 265.252 196.482 253.621" stroke="#121212" stroke-width="1.5" stroke-linecap="round" stroke-linejoin="round"/>
<path d="M188.941 189.644L209.866 226.901L199.177 261.499" stroke="#121212" stroke-width="1.5" stroke-linecap="round" stroke-linejoin="round"/>
<path d="M193.576 197.897L209.866 226.901L202.118 251.977C207.754 230.216 193.578 197.902 193.576 197.897Z" fill="#121212"/>
<path d="M150.477 152.466L128.021 197.897C128.021 197.897 116.042 163.245 89.9019 155.936L88.6472 160.651L90.9475 163.48C90.9475 163.48 88.438 173.382 93.666 176.447C93.666 176.447 107.549 260.852 144 230.556" stroke="#121212" stroke-width="1.5" stroke-linecap="round" stroke-linejoin="round"/>
<path d="M227.098 449.024C223.901 335.743 263.856 236.962 263.856 236.962L288.022 223.164L296.26 357.916L256.686 468.574L219.374 456.388L227.098 449.024Z" fill="#FF83A8"/>
<path d="M290.437 262.663L296.26 357.916L274.714 418.165C264.256 400.514 257.817 376.463 257.817 349.951C257.817 311.91 271.068 278.929 290.437 262.663Z" fill="#121212"/>
<path d="M275.233 220.291C275.233 220.291 266.626 382.932 290.936 459.937L285.858 468.574H329.095C329.095 468.574 333.819 261.704 333.819 217.053L275.233 220.291Z" fill="#FF83A8"/>
<path d="M289.591 94.4527V115.59L312.208 122.025V86.3559L289.591 79.92V94.4527Z" fill="#EDEEEF"/>
<path d="M302.367 101.766C302.033 101.766 301.762 101.453 301.762 101.066C301.762 100.68 302.033 100.366 302.367 100.366C302.701 100.366 302.972 100.68 302.972 101.066C302.972 101.453 302.701 101.766 302.367 101.766Z" fill="#121212"/>
<path d="M293.079 101.766C292.745 101.766 292.474 101.453 292.474 101.066C292.474 100.68 292.745 100.366 293.079 100.366C293.413 100.366 293.684 100.68 293.684 101.066C293.684 101.453 293.413 101.766 293.079 101.766Z" fill="#121212"/>
<path d="M295.804 105.242V94.4528H291.136" stroke="#121212" stroke-width="1.5" stroke-linecap="round" stroke-linejoin="round"/>
<path d="M303.506 94.4534H298.838" stroke="#121212" stroke-width="1.5" stroke-linecap="round" stroke-linejoin="round"/>
<path d="M310.718 99.9816V103.728C312.464 103.728 313.879 102.09 313.879 100.069C313.879 99.9566 313.875 99.8456 313.866 99.7358C313.689 97.4633 310.718 97.6999 310.718 99.9816Z" fill="#EDEEEF"/>
<path d="M310.718 103.728C312.464 103.728 313.879 102.09 313.879 100.069" stroke="#121212" stroke-width="1.5" stroke-linecap="round" stroke-linejoin="round"/>
<path d="M295.804 105.251L297.846 105.832" stroke="#121212" stroke-width="1.5" stroke-linecap="round" stroke-linejoin="round"/>
<path d="M333.819 159.876V217.053L263.856 236.962V173.281C263.856 150.702 277.171 131.039 296.11 125.65H296.11C305.193 123.065 314.798 125.458 322.159 132.139C329.519 138.82 333.819 149.047 333.819 159.876V159.876Z" fill="#EDEEEF"/>
<path d="M275.233 220.291C275.233 220.291 266.626 382.932 290.936 459.937" stroke="#121212" stroke-width="1.5" stroke-linecap="round" stroke-linejoin="round"/>
<path d="M312.299 104.548C312.299 104.548 317.097 130.14 300.9 133.342C284.67 136.551 281.513 121.144 287.015 108.616C288.266 105.785 288.921 102.653 288.928 99.4738V99.3646" stroke="#121212" stroke-width="1.5" stroke-linecap="round" stroke-linejoin="round"/>
<path d="M303.263 107.259C303.263 107.259 299.142 104.192 297.259 106.496C297.259 106.496 295.624 104.027 292.107 107.03" stroke="#121212" stroke-width="1.5" stroke-linecap="round" stroke-linejoin="round"/>
<path d="M298.78 109.111C299.664 109.111 300.38 108.281 300.38 107.259" stroke="#FF83A8" stroke-width="1.5" stroke-linecap="round" stroke-linejoin="round"/>
<path d="M307.972 99.3648C307.972 99.3648 309.393 91.22 304.419 89.4101L305.058 92.6867C305.058 92.6867 297.028 92.2073 294.328 88.5874V91.7137C294.328 91.7137 289.638 91.5491 288.572 88.5874" stroke="#121212" stroke-width="1.5" stroke-linecap="round" stroke-linejoin="round"/>
<path d="M313.515 98.1459C313.515 98.1459 319.626 85.461 309.393 81.0184C299.16 76.5758 273.2 76.7404 289.591 95.9916" stroke="#121212" stroke-width="1.5" stroke-linecap="round" stroke-linejoin="round"/>
<path d="M313.879 126.782C313.879 126.782 364.323 150.866 361.48 205.164C358.638 259.463 287.63 222.606 282.345 202.861C282.345 202.861 279.309 177.802 284.296 180.788C289.283 183.774 290.936 192.659 290.936 192.659L333.819 196.937" stroke="#121212" stroke-width="1.5" stroke-linecap="round" stroke-linejoin="round"/>
<path d="M280.099 134.663C280.099 134.663 241.652 162.456 238.616 199.198C235.581 235.94 270.395 244.344 282.345 204.726" stroke="#121212" stroke-width="1.5" stroke-linecap="round" stroke-linejoin="round"/>
<path d="M281.43 184.017C280.377 183.378 277.581 170.97 273.754 194.235L252.779 199.198" stroke="#121212" stroke-width="1.5" stroke-linecap="round" stroke-linejoin="round"/>
</svg>
