<svg width="361" height="407" viewBox="0 0 361 407" fill="none" xmlns="http://www.w3.org/2000/svg">
<path d="M146.3 156.286L184.534 160.372L176.979 226.828L272.721 259.569L266.312 306.067L258.881 299.667C80.7214 314.52 146.3 156.286 146.3 156.286Z" fill="#E2E2E2"/>
<path d="M162.952 160.866L214.929 151.346V222.085V396.551H174.176L178.359 386.834L162.952 160.866Z" fill="#EDEEEF"/>
<path d="M214.929 222.085V396.551H174.176" stroke="#121212" stroke-width="1.5" stroke-linecap="round" stroke-linejoin="round"/>
<path d="M178.359 386.834L162.952 160.866" stroke="#121212" stroke-width="1.5" stroke-linecap="round" stroke-linejoin="round"/>
<path d="M190.629 39.1729V47.8877C190.629 54.6263 186.548 60.4943 180.744 62.1027L168.443 65.5112V31.4381L178.671 28.604C181.552 27.8059 184.597 28.5447 186.931 30.6078C189.266 32.6708 190.629 35.8291 190.629 39.1729V39.1729Z" fill="#EDEEEF"/>
<path d="M190.629 47.8878C190.629 54.6264 186.548 60.4944 180.744 62.1028L168.443 65.5114" stroke="#121212" stroke-width="1.5" stroke-linecap="round" stroke-linejoin="round"/>
<path d="M178.097 46.1587C177.769 46.1587 177.504 45.8593 177.504 45.4899C177.504 45.1206 177.769 44.8212 178.097 44.8212C178.424 44.8212 178.69 45.1206 178.69 45.4899C178.69 45.8593 178.424 46.1587 178.097 46.1587Z" fill="#121212"/>
<path d="M187.208 46.1587C186.88 46.1587 186.614 45.8593 186.614 45.4899C186.614 45.1206 186.88 44.8212 187.208 44.8212C187.535 44.8212 187.801 45.1206 187.801 45.4899C187.801 45.8593 187.535 46.1587 187.208 46.1587Z" fill="#121212"/>
<path d="M184.535 49.4791V39.1729H189.114" stroke="#121212" stroke-width="1.5" stroke-linecap="round" stroke-linejoin="round"/>
<path d="M176.979 39.1734H181.559" stroke="#121212" stroke-width="1.5" stroke-linecap="round" stroke-linejoin="round"/>
<path d="M169.904 44.4541V48.0332C168.192 48.0332 166.804 46.4681 166.804 44.5375C166.804 44.4302 166.808 44.3242 166.816 44.2193C166.99 42.0486 169.904 42.2746 169.904 44.4541Z" fill="#EDEEEF"/>
<path d="M169.904 48.0332C168.192 48.0332 166.804 46.4681 166.804 44.5375" stroke="#121212" stroke-width="1.5" stroke-linecap="round" stroke-linejoin="round"/>
<path d="M182.03 50.6836C181.645 51.1177 181.123 51.3616 180.578 51.3616C180.034 51.3616 179.512 51.1177 179.127 50.6836" stroke="#FF83A8" stroke-width="1.5" stroke-linecap="round" stroke-linejoin="round"/>
<path d="M184.535 49.4875L182.532 50.0426" stroke="#121212" stroke-width="1.5" stroke-linecap="round" stroke-linejoin="round"/>
<path d="M191.324 36.1853C191.324 36.1853 185.675 36.8925 183.533 31.8236C183.533 31.8236 180.868 36.8995 173.026 37.4854C173.026 37.4854 172.695 42.8511 169.905 44.4537" stroke="#121212" stroke-width="1.5" stroke-linecap="round" stroke-linejoin="round"/>
<path d="M191.324 42.7008C191.324 42.7008 201.501 37.3981 194.67 28.2847C187.838 19.1713 165.079 14.6132 159.677 31.824C154.442 48.5039 168.354 55.0075 168.354 55.0075" stroke="#121212" stroke-width="1.5" stroke-linecap="round" stroke-linejoin="round"/>
<path d="M161.002 23.6899C161.002 23.6899 157.447 27.3443 157.865 31.2344" stroke="#FF83A8" stroke-width="1.5" stroke-linecap="round" stroke-linejoin="round"/>
<path d="M158.5 23.6899L151.173 10.5264C151.173 10.5264 136.396 18.0708 145.318 34.1028L155.913 30.4878" stroke="#121212" stroke-width="1.5" stroke-linecap="round" stroke-linejoin="round"/>
<path d="M146.3 101.667V156.286L214.929 175.303V114.473C214.929 92.9038 201.868 74.1211 183.29 68.973H183.29C174.38 66.5041 164.958 68.7898 157.738 75.1717C150.517 81.5537 146.3 91.3235 146.3 101.667V101.667Z" fill="#FF83A8"/>
<path d="M205.635 84.9431C205.635 84.9431 246.949 127.939 240.815 160.867C234.681 193.794 208.751 208.569 208.751 208.569C208.751 208.569 198.992 197.252 196.482 185.621" stroke="#121212" stroke-width="1.5" stroke-linecap="round" stroke-linejoin="round"/>
<path d="M188.941 121.644L209.866 158.901L199.177 193.499" stroke="#121212" stroke-width="1.5" stroke-linecap="round" stroke-linejoin="round"/>
<path d="M193.576 129.897L209.866 158.901L202.118 183.977C207.754 162.216 193.578 129.902 193.576 129.897Z" fill="#121212"/>
<path d="M150.477 84.4657L128.021 129.897C128.021 129.897 116.042 95.2445 89.9019 87.9358L88.6472 92.6511L90.9475 95.4803C90.9475 95.4803 88.438 105.382 93.666 108.447C93.666 108.447 107.549 192.852 144 162.556" stroke="#121212" stroke-width="1.5" stroke-linecap="round" stroke-linejoin="round"/>
</svg>
