<svg width="1311" height="1117" viewBox="0 0 1311 1117" fill="none" xmlns="http://www.w3.org/2000/svg">
<g filter="url(#filter0_d)">
<rect width="583.209" height="748.693" rx="98" transform="matrix(-0.847345 -0.531042 0.72966 -0.68381 550.316 995.571)" fill="#121212" fill-opacity="0.2"/>
</g>
<g filter="url(#filter1_d)">
<rect width="583.209" height="748.693" rx="98" transform="matrix(-0.847345 -0.531042 0.729659 -0.68381 648.358 1022.03)" fill="#121212" fill-opacity="0.5"/>
</g>
<g filter="url(#filter2_d)">
<rect width="583.209" height="748.693" rx="98" transform="matrix(-0.847345 -0.531042 0.729659 -0.683811 592.079 1012.71)" fill="#121212" fill-opacity="0.5"/>
</g>
<g filter="url(#filter3_d)">
<rect width="583.209" height="748.693" rx="98" transform="matrix(-0.847345 -0.531043 0.729659 -0.68381 707.639 1031.91)" fill="#121212" fill-opacity="0.9"/>
</g>
<path d="M730.583 250.356L700.485 213.955L685.563 487.345H730.583L723.934 476.596C724.36 434.675 730.583 250.356 730.583 250.356Z" fill="#E2E2E2"/>
<path d="M719.808 228.745L669.889 224.694L660.812 229.074L656.546 487.344H702.912L698.009 476.937L719.808 228.745Z" fill="#EDEEEF"/>
<path d="M702.912 487.344L698.01 476.937L719.808 228.745" stroke="black" stroke-width="1.5" stroke-linecap="round" stroke-linejoin="round"/>
<path d="M679.868 104.54V113.875C679.868 121.093 684.028 127.378 689.944 129.101L702.483 132.752V96.2547L692.057 93.2189C689.121 92.364 686.017 93.1554 683.637 95.3653C681.258 97.5751 679.868 100.958 679.868 104.54V104.54Z" fill="#EDEEEF"/>
<path d="M679.868 113.875C679.868 121.093 684.028 127.378 689.944 129.101L702.483 132.752" stroke="black" stroke-width="1.5" stroke-linecap="round" stroke-linejoin="round"/>
<path d="M692.643 112.022C692.977 112.022 693.247 111.702 693.247 111.306C693.247 110.91 692.977 110.59 692.643 110.59C692.309 110.59 692.038 110.91 692.038 111.306C692.038 111.702 692.309 112.022 692.643 112.022Z" fill="black"/>
<path d="M683.356 112.022C683.69 112.022 683.96 111.702 683.96 111.306C683.96 110.91 683.69 110.59 683.356 110.59C683.022 110.59 682.751 110.91 682.751 111.306C682.751 111.702 683.022 112.022 683.356 112.022Z" fill="black"/>
<path d="M686.08 115.579V104.54H681.412" stroke="black" stroke-width="1.5" stroke-linecap="round" stroke-linejoin="round"/>
<path d="M693.782 104.54H689.113" stroke="black" stroke-width="1.5" stroke-linecap="round" stroke-linejoin="round"/>
<path d="M700.993 110.196V114.03C702.739 114.03 704.154 112.353 704.154 110.285C704.154 110.171 704.15 110.057 704.141 109.945C703.964 107.619 700.993 107.862 700.993 110.196Z" fill="#EDEEEF"/>
<path d="M700.993 114.03C702.739 114.03 704.154 112.354 704.154 110.286" stroke="black" stroke-width="1.5" stroke-linecap="round" stroke-linejoin="round"/>
<path d="M688.633 116.869C689.025 117.334 689.558 117.595 690.113 117.595C690.668 117.595 691.2 117.334 691.593 116.869" stroke="#FF83A8" stroke-width="1.5" stroke-linecap="round" stroke-linejoin="round"/>
<path d="M686.08 115.588L688.122 116.183" stroke="black" stroke-width="1.5" stroke-linecap="round" stroke-linejoin="round"/>
<path d="M660.625 171.481V229.985L730.583 250.356V185.198C730.583 162.094 717.269 141.975 698.331 136.46H698.331C689.249 133.816 679.645 136.264 672.284 143.1C664.924 149.936 660.625 160.401 660.625 171.481V171.481Z" fill="#FF83A8"/>
<path d="M702.574 124.725C702.574 124.725 699.687 133.901 706.739 139.372C713.388 144.531 718.871 126.644 715.455 113.933C715.256 113.195 715.157 112.425 715.163 111.65C715.206 106.667 714.026 87.3215 693.248 86.0023C679.368 85.1211 667.956 97.1279 679.389 110.59" stroke="black" stroke-width="1.5" stroke-linecap="round" stroke-linejoin="round"/>
<path d="M679.868 104.54C679.868 104.54 684.285 105.448 686.417 98.3767C686.417 98.3767 693.117 109.404 700.994 107.721L701.555 108.749" stroke="black" stroke-width="1.5" stroke-linecap="round" stroke-linejoin="round"/>
<path d="M714.982 139.671C714.982 139.671 715.209 144.368 707.279 142.623" stroke="#FF83A8" stroke-width="1.5" stroke-linecap="round" stroke-linejoin="round"/>
<path d="M716.501 144.255C716.501 144.255 720.95 165.215 712.423 162.437C703.896 159.66 709.439 147.033 709.439 147.033" stroke="black" stroke-width="1.5" stroke-linecap="round" stroke-linejoin="round"/>
<path d="M628.42 119.334L644.801 115.588L592.788 85.9182L614.744 132.752L619.86 126.167L623.669 134.153L626.078 124.048" fill="#FF83A8"/>
<path d="M681.839 137.182C681.839 137.182 660.845 144.76 647.416 185.742C647.416 185.742 635.497 126.991 632.65 123.546C628.245 118.215 622.063 114.455 624.053 119.842C626.042 125.23 628.032 126.167 628.032 126.167C628.032 126.167 622.631 131.429 626.326 135.4" stroke="black" stroke-width="1.5" stroke-linecap="round" stroke-linejoin="round"/>
<path d="M620.62 115.579C620.074 114.96 612.542 134.826 622.063 146.107C622.063 146.107 605.01 302.681 688.122 208.4" stroke="black" stroke-width="1.5" stroke-linecap="round" stroke-linejoin="round"/>
<path d="M683.532 213.461C683.532 213.461 677.389 260.922 660.625 275.319V233.298C660.625 233.298 682.043 215.089 683.532 213.461Z" fill="black"/>
<path d="M723.768 157.9C723.768 157.9 760.682 217.996 730.584 280.626" stroke="black" stroke-width="1.5" stroke-linecap="round" stroke-linejoin="round"/>
<path d="M842.869 479.15C841.673 392.385 815.275 227.282 815.275 227.282L790.754 230.606L775.788 341.705L815.275 497.697L848.176 487.375L842.869 479.15Z" fill="#FF83A8"/>
<path d="M781.378 300.21L775.788 341.705L796.681 424.244C802.161 410.203 805.367 393.235 805.367 374.957C805.367 343.315 795.765 315.596 781.378 300.21Z" fill="black"/>
<path d="M805.367 225.979L758.687 221.723L750.199 226.324L746.21 497.697H789.568L784.983 486.761L805.367 225.979Z" fill="#FF83A8"/>
<path d="M770.62 95.4726V105.281C770.62 112.865 774.51 119.47 780.042 121.28L791.768 125.116V86.7672L782.018 83.5774C779.273 82.6791 776.37 83.5107 774.145 85.8327C771.92 88.1546 770.62 91.7092 770.62 95.4726V95.4726Z" fill="#EDEEEF"/>
<path d="M770.62 105.281C770.62 112.865 774.51 119.47 780.042 121.28L791.768 125.116" stroke="black" stroke-width="1.5" stroke-linecap="round" stroke-linejoin="round"/>
<path d="M782.565 103.335C782.878 103.335 783.131 102.998 783.131 102.582C783.131 102.166 782.878 101.829 782.565 101.829C782.253 101.829 782 102.166 782 102.582C782 102.998 782.253 103.335 782.565 103.335Z" fill="black"/>
<path d="M773.881 103.335C774.193 103.335 774.446 102.998 774.446 102.582C774.446 102.166 774.193 101.829 773.881 101.829C773.569 101.829 773.315 102.166 773.315 102.582C773.315 102.998 773.569 103.335 773.881 103.335Z" fill="black"/>
<path d="M776.429 107.072V95.4724H772.063" stroke="black" stroke-width="1.5" stroke-linecap="round" stroke-linejoin="round"/>
<path d="M783.631 95.4726H779.266" stroke="black" stroke-width="1.5" stroke-linecap="round" stroke-linejoin="round"/>
<path d="M790.375 101.416V105.444C792.007 105.444 793.331 103.683 793.331 101.51C793.331 101.389 793.327 101.27 793.319 101.152C793.153 98.7086 790.375 98.9629 790.375 101.416Z" fill="#EDEEEF"/>
<path d="M790.375 105.444C792.007 105.444 793.331 103.683 793.331 101.51" stroke="black" stroke-width="1.5" stroke-linecap="round" stroke-linejoin="round"/>
<path d="M778.815 108.428C779.182 108.916 779.68 109.191 780.199 109.191C780.718 109.191 781.216 108.916 781.583 108.428" stroke="#FF83A8" stroke-width="1.5" stroke-linecap="round" stroke-linejoin="round"/>
<path d="M776.429 107.082L778.338 107.706" stroke="black" stroke-width="1.5" stroke-linecap="round" stroke-linejoin="round"/>
<path d="M815.276 165.809V227.282L749.856 248.686V180.222C749.856 155.946 762.306 134.806 780.016 129.012H780.016C788.509 126.234 797.49 128.806 804.373 135.989C811.255 143.172 815.276 154.167 815.276 165.809Z" fill="#EDEEEF"/>
<path d="M770.62 101.51C770.62 101.51 758.688 81.744 774.447 77.2331C790.206 72.7221 793.993 75.5083 795.588 80.2846C797.182 85.0609 799.709 107.35 791.768 110.535" stroke="black" stroke-width="1.5" stroke-linecap="round" stroke-linejoin="round"/>
<path d="M771.384 95.4727C776.207 94.9803 780.7 92.0264 783.926 87.2279C783.926 87.2279 785.188 97.3112 789.707 98.1073L790.374 99.7878" stroke="black" stroke-width="1.5" stroke-linecap="round" stroke-linejoin="round"/>
<path d="M785.122 73.9161C785.122 73.9161 784.623 66.619 792.397 66.7517C800.172 66.8843 808.521 80.6553 797.27 92.7424" stroke="black" stroke-width="1.5" stroke-linecap="round" stroke-linejoin="round"/>
<path d="M784.982 486.761L805.367 225.979" stroke="black" stroke-width="1.5" stroke-linecap="round" stroke-linejoin="round"/>
<path d="M769.178 134.927C769.178 134.927 733.766 158.961 725.394 207.255C717.022 255.549 762.072 299.597 762.072 299.597L773.881 277.838L755.294 224.237L777.384 184.965" stroke="black" stroke-width="1.5" stroke-linecap="round" stroke-linejoin="round"/>
<path d="M762.072 299.597L781.001 264.72" stroke="black" stroke-width="1.5" stroke-linecap="round" stroke-linejoin="round"/>
<path d="M805.367 137.078C806.749 138.763 826.258 160.553 827.853 202.478L836.225 159.492C836.225 159.492 830.245 147.816 836.225 146.224C836.225 146.224 835.029 127.345 843.401 134.927C851.773 142.509 868.3 246.794 818.974 251.437" stroke="black" stroke-width="1.5" stroke-linecap="round" stroke-linejoin="round"/>
<path d="M402.299 242.286L440.534 246.372L432.978 312.828L528.721 345.569L522.312 392.067L514.881 385.667C336.721 400.52 402.299 242.286 402.299 242.286Z" fill="#E2E2E2"/>
<path d="M418.952 246.866L470.929 237.346V308.085V482.551H430.176L434.359 472.834L418.952 246.866Z" fill="#EDEEEF"/>
<path d="M470.929 308.085V482.551H430.176" stroke="#121212" stroke-width="1.5" stroke-linecap="round" stroke-linejoin="round"/>
<path d="M434.358 472.834L418.952 246.866" stroke="#121212" stroke-width="1.5" stroke-linecap="round" stroke-linejoin="round"/>
<path d="M446.628 125.173V133.888C446.628 140.626 442.547 146.494 436.743 148.103L424.442 151.511V117.438L434.67 114.604C437.551 113.806 440.596 114.545 442.93 116.608C445.265 118.671 446.628 121.829 446.628 125.173V125.173Z" fill="#EDEEEF"/>
<path d="M446.628 133.888C446.628 140.626 442.547 146.494 436.743 148.103L424.442 151.511" stroke="#121212" stroke-width="1.5" stroke-linecap="round" stroke-linejoin="round"/>
<path d="M434.096 132.159C433.769 132.159 433.503 131.859 433.503 131.49C433.503 131.121 433.769 130.821 434.096 130.821C434.424 130.821 434.689 131.121 434.689 131.49C434.689 131.859 434.424 132.159 434.096 132.159Z" fill="#121212"/>
<path d="M443.207 132.159C442.879 132.159 442.613 131.859 442.613 131.49C442.613 131.121 442.879 130.821 443.207 130.821C443.534 130.821 443.8 131.121 443.8 131.49C443.8 131.859 443.534 132.159 443.207 132.159Z" fill="#121212"/>
<path d="M440.534 135.479V125.173H445.113" stroke="#121212" stroke-width="1.5" stroke-linecap="round" stroke-linejoin="round"/>
<path d="M432.979 125.173H437.559" stroke="#121212" stroke-width="1.5" stroke-linecap="round" stroke-linejoin="round"/>
<path d="M425.904 130.454V134.033C424.192 134.033 422.804 132.468 422.804 130.537C422.804 130.43 422.808 130.324 422.816 130.219C422.99 128.049 425.904 128.275 425.904 130.454Z" fill="#EDEEEF"/>
<path d="M425.904 134.033C424.192 134.033 422.804 132.468 422.804 130.537" stroke="#121212" stroke-width="1.5" stroke-linecap="round" stroke-linejoin="round"/>
<path d="M438.03 136.684C437.645 137.118 437.123 137.362 436.578 137.362C436.034 137.362 435.512 137.118 435.127 136.684" stroke="#FF83A8" stroke-width="1.5" stroke-linecap="round" stroke-linejoin="round"/>
<path d="M440.534 135.488L438.531 136.043" stroke="#121212" stroke-width="1.5" stroke-linecap="round" stroke-linejoin="round"/>
<path d="M447.323 122.185C447.323 122.185 441.674 122.893 439.532 117.824C439.532 117.824 436.867 122.899 429.025 123.485C429.025 123.485 428.694 128.851 425.904 130.454" stroke="#121212" stroke-width="1.5" stroke-linecap="round" stroke-linejoin="round"/>
<path d="M447.323 128.701C447.323 128.701 457.5 123.398 450.669 114.285C443.838 105.171 421.079 100.613 415.677 117.824C410.441 134.504 424.354 141.008 424.354 141.008" stroke="#121212" stroke-width="1.5" stroke-linecap="round" stroke-linejoin="round"/>
<path d="M417.001 109.69C417.001 109.69 413.446 113.344 413.864 117.234" stroke="#FF83A8" stroke-width="1.5" stroke-linecap="round" stroke-linejoin="round"/>
<path d="M414.499 109.69L407.173 96.5264C407.173 96.5264 392.395 104.071 401.318 120.103L411.913 116.488" stroke="#121212" stroke-width="1.5" stroke-linecap="round" stroke-linejoin="round"/>
<path d="M402.299 187.667V242.286L470.929 261.303V200.473C470.929 178.904 457.868 160.121 439.289 154.973H439.289C430.379 152.504 420.958 154.79 413.737 161.172C406.517 167.554 402.299 177.323 402.299 187.667V187.667Z" fill="#FF83A8"/>
<path d="M461.634 170.943C461.634 170.943 502.948 213.939 496.814 246.867C490.68 279.794 464.75 294.569 464.75 294.569C464.75 294.569 454.991 283.252 452.481 271.621" stroke="#121212" stroke-width="1.5" stroke-linecap="round" stroke-linejoin="round"/>
<path d="M444.94 207.644L465.865 244.901L455.176 279.499" stroke="#121212" stroke-width="1.5" stroke-linecap="round" stroke-linejoin="round"/>
<path d="M449.575 215.897L465.865 244.901L458.118 269.977C463.754 248.216 449.578 215.902 449.575 215.897Z" fill="#121212"/>
<path d="M406.477 170.466L384.021 215.897C384.021 215.897 372.041 181.245 345.901 173.936L344.647 178.651L346.947 181.48C346.947 181.48 344.438 191.382 349.666 194.447C349.666 194.447 363.549 278.852 399.999 248.556" stroke="#121212" stroke-width="1.5" stroke-linecap="round" stroke-linejoin="round"/>
<path d="M483.098 467.024C479.901 353.743 519.856 254.962 519.856 254.962L544.022 241.164L552.26 375.916L512.686 486.574L475.374 474.388L483.098 467.024Z" fill="#FF83A8"/>
<path d="M546.437 280.663L552.26 375.916L530.714 436.165C520.256 418.514 513.817 394.463 513.817 367.951C513.817 329.91 527.068 296.929 546.437 280.663Z" fill="#121212"/>
<path d="M531.234 238.291C531.234 238.291 522.627 400.932 546.936 477.937L541.858 486.574H585.096C585.096 486.574 589.819 279.704 589.819 235.053L531.234 238.291Z" fill="#FF83A8"/>
<path d="M545.592 112.453V133.59L568.208 140.025V104.356L545.592 97.92V112.453Z" fill="#EDEEEF"/>
<path d="M558.368 119.766C558.034 119.766 557.763 119.453 557.763 119.066C557.763 118.68 558.034 118.366 558.368 118.366C558.702 118.366 558.973 118.68 558.973 119.066C558.973 119.453 558.702 119.766 558.368 119.766Z" fill="#121212"/>
<path d="M549.08 119.766C548.746 119.766 548.475 119.453 548.475 119.066C548.475 118.68 548.746 118.366 549.08 118.366C549.414 118.366 549.685 118.68 549.685 119.066C549.685 119.453 549.414 119.766 549.08 119.766Z" fill="#121212"/>
<path d="M551.805 123.242V112.453H547.136" stroke="#121212" stroke-width="1.5" stroke-linecap="round" stroke-linejoin="round"/>
<path d="M559.507 112.453H554.838" stroke="#121212" stroke-width="1.5" stroke-linecap="round" stroke-linejoin="round"/>
<path d="M566.719 117.982V121.728C568.465 121.728 569.88 120.09 569.88 118.069C569.88 117.957 569.876 117.846 569.867 117.736C569.69 115.463 566.719 115.7 566.719 117.982Z" fill="#EDEEEF"/>
<path d="M566.719 121.728C568.465 121.728 569.88 120.09 569.88 118.069" stroke="#121212" stroke-width="1.5" stroke-linecap="round" stroke-linejoin="round"/>
<path d="M551.805 123.251L553.847 123.832" stroke="#121212" stroke-width="1.5" stroke-linecap="round" stroke-linejoin="round"/>
<path d="M589.819 177.876V235.053L519.856 254.962V191.281C519.856 168.702 533.171 149.039 552.111 143.65H552.111C561.194 141.065 570.798 143.458 578.159 150.139C585.52 156.82 589.819 167.047 589.819 177.876V177.876Z" fill="#EDEEEF"/>
<path d="M531.234 238.291C531.234 238.291 522.627 400.932 546.937 477.937" stroke="#121212" stroke-width="1.5" stroke-linecap="round" stroke-linejoin="round"/>
<path d="M568.299 122.548C568.299 122.548 573.097 148.14 556.9 151.342C540.67 154.551 537.513 139.144 543.015 126.616C544.266 123.785 544.921 120.653 544.928 117.474V117.365" stroke="#121212" stroke-width="1.5" stroke-linecap="round" stroke-linejoin="round"/>
<path d="M559.264 125.259C559.264 125.259 555.142 122.192 553.259 124.496C553.259 124.496 551.625 122.027 548.107 125.03" stroke="#121212" stroke-width="1.5" stroke-linecap="round" stroke-linejoin="round"/>
<path d="M554.781 127.111C555.665 127.111 556.381 126.281 556.381 125.259" stroke="#FF83A8" stroke-width="1.5" stroke-linecap="round" stroke-linejoin="round"/>
<path d="M563.972 117.365C563.972 117.365 565.393 109.22 560.419 107.41L561.059 110.687C561.059 110.687 553.029 110.207 550.329 106.587V109.714C550.329 109.714 545.639 109.549 544.573 106.587" stroke="#121212" stroke-width="1.5" stroke-linecap="round" stroke-linejoin="round"/>
<path d="M569.515 116.146C569.515 116.146 575.626 103.461 565.393 99.0184C555.16 94.5758 529.2 94.7404 545.591 113.992" stroke="#121212" stroke-width="1.5" stroke-linecap="round" stroke-linejoin="round"/>
<path d="M569.879 144.782C569.879 144.782 620.323 168.866 617.481 223.164C614.638 277.463 543.63 240.606 538.345 220.861C538.345 220.861 535.309 195.802 540.296 198.788C545.283 201.774 546.936 210.659 546.936 210.659L589.82 214.937" stroke="#121212" stroke-width="1.5" stroke-linecap="round" stroke-linejoin="round"/>
<path d="M536.1 152.663C536.1 152.663 497.653 180.456 494.617 217.198C491.582 253.94 526.396 262.344 538.346 222.726" stroke="#121212" stroke-width="1.5" stroke-linecap="round" stroke-linejoin="round"/>
<path d="M537.43 202.017C536.377 201.378 533.581 188.97 529.754 212.235L508.779 217.198" stroke="#121212" stroke-width="1.5" stroke-linecap="round" stroke-linejoin="round"/>
<defs>
<filter id="filter0_d" x="97.0967" y="208.102" width="958.551" height="761.266" filterUnits="userSpaceOnUse" color-interpolation-filters="sRGB">
<feFlood flood-opacity="0" result="BackgroundImageFix"/>
<feColorMatrix in="SourceAlpha" type="matrix" values="0 0 0 0 0 0 0 0 0 0 0 0 0 0 0 0 0 0 127 0"/>
<feOffset dy="4"/>
<feGaussianBlur stdDeviation="2"/>
<feColorMatrix type="matrix" values="0 0 0 0 0 0 0 0 0 0 0 0 0 0 0 0 0 0 0.25 0"/>
<feBlend mode="normal" in2="BackgroundImageFix" result="effect1_dropShadow"/>
<feBlend mode="normal" in="SourceGraphic" in2="effect1_dropShadow" result="shape"/>
</filter>
<filter id="filter1_d" x="195.139" y="234.561" width="958.551" height="761.266" filterUnits="userSpaceOnUse" color-interpolation-filters="sRGB">
<feFlood flood-opacity="0" result="BackgroundImageFix"/>
<feColorMatrix in="SourceAlpha" type="matrix" values="0 0 0 0 0 0 0 0 0 0 0 0 0 0 0 0 0 0 127 0"/>
<feOffset dy="4"/>
<feGaussianBlur stdDeviation="2"/>
<feColorMatrix type="matrix" values="0 0 0 0 0 0 0 0 0 0 0 0 0 0 0 0 0 0 0.25 0"/>
<feBlend mode="normal" in2="BackgroundImageFix" result="effect1_dropShadow"/>
<feBlend mode="normal" in="SourceGraphic" in2="effect1_dropShadow" result="shape"/>
</filter>
<filter id="filter2_d" x="138.859" y="225.239" width="958.551" height="761.266" filterUnits="userSpaceOnUse" color-interpolation-filters="sRGB">
<feFlood flood-opacity="0" result="BackgroundImageFix"/>
<feColorMatrix in="SourceAlpha" type="matrix" values="0 0 0 0 0 0 0 0 0 0 0 0 0 0 0 0 0 0 127 0"/>
<feOffset dy="4"/>
<feGaussianBlur stdDeviation="2"/>
<feColorMatrix type="matrix" values="0 0 0 0 0 0 0 0 0 0 0 0 0 0 0 0 0 0 0.25 0"/>
<feBlend mode="normal" in2="BackgroundImageFix" result="effect1_dropShadow"/>
<feBlend mode="normal" in="SourceGraphic" in2="effect1_dropShadow" result="shape"/>
</filter>
<filter id="filter3_d" x="254.419" y="244.439" width="958.551" height="761.266" filterUnits="userSpaceOnUse" color-interpolation-filters="sRGB">
<feFlood flood-opacity="0" result="BackgroundImageFix"/>
<feColorMatrix in="SourceAlpha" type="matrix" values="0 0 0 0 0 0 0 0 0 0 0 0 0 0 0 0 0 0 127 0"/>
<feOffset dy="4"/>
<feGaussianBlur stdDeviation="2"/>
<feColorMatrix type="matrix" values="0 0 0 0 0 0 0 0 0 0 0 0 0 0 0 0 0 0 0.25 0"/>
<feBlend mode="normal" in2="BackgroundImageFix" result="effect1_dropShadow"/>
<feBlend mode="normal" in="SourceGraphic" in2="effect1_dropShadow" result="shape"/>
</filter>
</defs>
</svg>
