<svg width="733" height="847" viewBox="0 0 733 847" fill="none" xmlns="http://www.w3.org/2000/svg">
<path d="M329.2 588.848C373.339 575.892 384.869 518.759 349.21 489.698L313.27 460.409C282.971 435.716 300.369 386.652 339.456 386.564C379.052 386.475 395.11 335.548 362.726 312.763L205.398 202.068C180.048 184.232 147.948 178.926 118.207 187.657L40.9691 210.329C-12.0842 225.902 -46.1958 277.439 -39.8014 332.36L-30.919 408.65C-27.0503 441.878 -8.72063 471.707 19.1746 490.17L180.857 597.186C204.223 612.651 233.222 617.022 260.108 609.129L329.2 588.848Z" fill="#FF83A8" fill-opacity="0.5" stroke="white"/>
<path d="M477.806 498.359C503.553 554.841 484.011 598.051 441.894 577.765L411.906 563.32C373.033 544.596 361.032 593.734 392.661 642.112C425.179 691.846 410.396 740.94 369.994 717.392L229.071 635.257C196.159 616.075 164.158 577.998 144.257 534.339L85.5178 405.48C61.537 352.873 59.5222 301.985 80.445 277.359L132.845 215.685C149.579 195.99 178.59 196.059 210.38 215.869L353.254 304.901C385.043 324.711 415.517 361.711 434.696 403.786L477.806 498.359Z" fill="#FF83A8" fill-opacity="0.5" stroke="white"/>
</svg>
