<svg width="160" height="160" viewBox="0 0 160 160" fill="none" xmlns="http://www.w3.org/2000/svg">
<path d="M30.2085 68.0899C33.3989 55.7415 40.9879 44.9115 51.5199 37.6771C62.0519 30.4426 74.7853 27.3132 87.2776 28.8891C99.77 30.465 111.142 36.6351 119.212 46.2161C127.281 55.7971 131.481 68.1142 131.005 80.8049L79.7937 80.0001L30.2085 68.0899Z" fill="#121212"/>
<path d="M28.6113 78.54C28.7899 74.9782 29.3356 71.4364 30.2393 67.9717L79.7938 80.0001L28.6113 78.54Z" fill="#121212" fill-opacity="0.5"/>
<ellipse cx="79.5358" cy="80.324" rx="25.8753" ry="25.2955" transform="rotate(-51.5 79.5358 80.324)" fill="#F5F5F5"/>
<ellipse cx="79.6471" cy="80.2676" rx="25.8753" ry="25.2955" transform="rotate(-51.5 79.6471 80.2676)" fill="#FF83A8" fill-opacity="0.2"/>
<path d="M24.7436 104.852C25.5836 104.675 26.3442 104.357 27.0256 103.9C27.7162 103.433 28.1969 102.883 28.4676 102.248C28.3182 102.351 28.1362 102.439 27.9216 102.514C27.7069 102.579 27.4876 102.612 27.2636 102.612C26.6196 102.612 26.0549 102.472 25.5696 102.192C25.0842 101.912 24.7109 101.525 24.4496 101.03C24.1882 100.526 24.0576 99.9567 24.0576 99.322C24.0576 98.6873 24.1929 98.1227 24.4636 97.628C24.7342 97.1333 25.1169 96.7507 25.6116 96.48C26.1156 96.2 26.6989 96.06 27.3616 96.06C28.0522 96.06 28.6542 96.2187 29.1676 96.536C29.6902 96.844 30.0916 97.2873 30.3716 97.866C30.6609 98.4447 30.8056 99.112 30.8056 99.868C30.8056 100.988 30.5582 102.005 30.0636 102.92C29.5782 103.825 28.8969 104.567 28.0196 105.146C27.1422 105.715 26.1389 106.065 25.0096 106.196L24.7436 104.852ZM27.3616 101.282C27.8469 101.282 28.2342 101.105 28.5236 100.75C28.8222 100.395 28.9716 99.924 28.9716 99.336C28.9716 98.776 28.8222 98.328 28.5236 97.992C28.2342 97.656 27.8469 97.488 27.3616 97.488C26.8856 97.488 26.5029 97.656 26.2136 97.992C25.9336 98.328 25.7936 98.776 25.7936 99.336C25.7936 99.924 25.9336 100.395 26.2136 100.75C26.5029 101.105 26.8856 101.282 27.3616 101.282ZM35.1535 106.14C34.4442 106.14 33.8049 106.005 33.2355 105.734C32.6755 105.463 32.2555 105.095 31.9755 104.628L32.8435 103.648C33.1049 103.965 33.4409 104.222 33.8515 104.418C34.2622 104.614 34.6729 104.712 35.0835 104.712C35.5969 104.712 36.0122 104.567 36.3295 104.278C36.6469 103.979 36.8055 103.597 36.8055 103.13C36.8055 102.617 36.6142 102.22 36.2315 101.94C35.8489 101.66 35.3215 101.52 34.6495 101.52L33.9215 101.52L33.9215 100.218L34.6355 100.218C35.1769 100.218 35.6155 100.073 35.9515 99.784C36.2969 99.4947 36.4695 99.1213 36.4695 98.664C36.4695 98.2907 36.3435 98.0013 36.0915 97.796C35.8489 97.5907 35.4942 97.488 35.0275 97.488C34.5982 97.488 34.1922 97.5813 33.8095 97.768C33.4269 97.9453 33.1002 98.202 32.8295 98.538L32.0035 97.558C32.3302 97.0913 32.7782 96.7273 33.3475 96.466C33.9262 96.1953 34.5562 96.06 35.2375 96.06C35.8349 96.06 36.3575 96.1627 36.8055 96.368C37.2629 96.564 37.6129 96.844 37.8555 97.208C38.1075 97.572 38.2335 97.9967 38.2335 98.482C38.2335 98.9953 38.0889 99.4527 37.7995 99.854C37.5102 100.255 37.0995 100.568 36.5675 100.792C37.2302 100.997 37.7295 101.305 38.0655 101.716C38.4109 102.127 38.5835 102.635 38.5835 103.242C38.5835 103.811 38.4389 104.315 38.1495 104.754C37.8695 105.193 37.4682 105.533 36.9455 105.776C36.4322 106.019 35.8349 106.14 35.1535 106.14ZM41.1115 106.14C40.7942 106.14 40.5329 106.037 40.3275 105.832C40.1315 105.617 40.0335 105.347 40.0335 105.02C40.0335 104.703 40.1315 104.441 40.3275 104.236C40.5329 104.031 40.7942 103.928 41.1115 103.928C41.4289 103.928 41.6855 104.031 41.8815 104.236C42.0869 104.432 42.1895 104.693 42.1895 105.02C42.1895 105.347 42.0869 105.617 41.8815 105.832C41.6855 106.037 41.4289 106.14 41.1115 106.14ZM46.982 106.14C45.8527 106.14 44.9847 105.711 44.378 104.852C43.7807 103.993 43.482 102.743 43.482 101.1C43.482 99.4573 43.7807 98.2067 44.378 97.348C44.9847 96.4893 45.8527 96.06 46.982 96.06C48.1207 96.06 48.9887 96.4893 49.586 97.348C50.1833 98.2067 50.482 99.4573 50.482 101.1C50.482 102.743 50.1833 103.993 49.586 104.852C48.9887 105.711 48.1207 106.14 46.982 106.14ZM46.982 104.838C48.1393 104.838 48.718 103.592 48.718 101.1C48.718 98.5987 48.1393 97.348 46.982 97.348C45.834 97.348 45.26 98.5987 45.26 101.1C45.26 103.592 45.834 104.838 46.982 104.838ZM53.36 106C53.4067 104.292 53.6213 102.771 54.004 101.436C54.3867 100.092 55.0447 98.818 55.978 97.614L51.568 97.614L51.568 96.2L58.092 96.2L58.092 97.418C57.1307 98.4353 56.398 99.686 55.894 101.17C55.39 102.654 55.138 104.264 55.138 106L53.36 106ZM61.74 101.758C61.0213 101.758 60.4426 101.497 60.004 100.974C59.5653 100.451 59.346 99.7653 59.346 98.916C59.346 98.0573 59.5653 97.3667 60.004 96.844C60.4426 96.3213 61.0213 96.06 61.74 96.06C62.2066 96.06 62.622 96.1813 62.986 96.424C63.35 96.6573 63.63 96.9933 63.826 97.432C64.0313 97.8613 64.134 98.356 64.134 98.916C64.134 99.476 64.0313 99.9707 63.826 100.4C63.63 100.829 63.35 101.165 62.986 101.408C62.622 101.641 62.2066 101.758 61.74 101.758ZM67.424 96.2L69.23 96.2L63.224 106.182L61.432 106.182L67.424 96.2ZM61.74 100.54C62.02 100.54 62.244 100.391 62.412 100.092C62.58 99.7933 62.664 99.4013 62.664 98.916C62.664 98.4307 62.58 98.0387 62.412 97.74C62.244 97.4413 62.02 97.292 61.74 97.292C61.4506 97.292 61.222 97.4413 61.054 97.74C60.886 98.0387 60.802 98.4307 60.802 98.916C60.802 99.4013 60.886 99.7933 61.054 100.092C61.222 100.391 61.4506 100.54 61.74 100.54ZM68.978 106.14C68.5113 106.14 68.096 106.019 67.732 105.776C67.368 105.533 67.0833 105.197 66.878 104.768C66.682 104.329 66.584 103.83 66.584 103.27C66.584 102.71 66.682 102.215 66.878 101.786C67.0833 101.357 67.368 101.025 67.732 100.792C68.096 100.549 68.5113 100.428 68.978 100.428C69.4446 100.428 69.86 100.549 70.224 100.792C70.588 101.025 70.868 101.357 71.064 101.786C71.2693 102.215 71.372 102.71 71.372 103.27C71.372 103.83 71.2693 104.329 71.064 104.768C70.868 105.197 70.588 105.533 70.224 105.776C69.86 106.019 69.4446 106.14 68.978 106.14ZM68.978 104.894C69.2673 104.894 69.496 104.745 69.664 104.446C69.832 104.147 69.916 103.755 69.916 103.27C69.916 102.785 69.832 102.393 69.664 102.094C69.496 101.795 69.2673 101.646 68.978 101.646C68.6886 101.646 68.46 101.795 68.292 102.094C68.124 102.393 68.04 102.785 68.04 103.27C68.04 103.755 68.124 104.147 68.292 104.446C68.46 104.745 68.6886 104.894 68.978 104.894Z" fill="#121212"/>
<path d="M43.1695 123.14C42.4789 123.14 41.8722 122.986 41.3495 122.678C40.8362 122.361 40.4349 121.917 40.1455 121.348C39.8655 120.779 39.7255 120.121 39.7255 119.374C39.7255 118.329 39.9869 117.339 40.5095 116.406C41.0322 115.463 41.7415 114.689 42.6375 114.082C43.5429 113.475 44.5369 113.116 45.6195 113.004L45.7875 114.348C44.9942 114.497 44.2709 114.801 43.6175 115.258C42.9735 115.706 42.4882 116.266 42.1615 116.938C42.2735 116.845 42.4275 116.765 42.6235 116.7C42.8289 116.625 43.0435 116.588 43.2675 116.588C44.2662 116.588 45.0502 116.887 45.6195 117.484C46.1889 118.081 46.4735 118.875 46.4735 119.864C46.4735 120.508 46.3382 121.077 46.0675 121.572C45.7969 122.067 45.4095 122.454 44.9055 122.734C44.4109 123.005 43.8322 123.14 43.1695 123.14ZM43.1415 121.712C43.6269 121.712 44.0142 121.544 44.3035 121.208C44.5929 120.872 44.7375 120.419 44.7375 119.85C44.7375 119.29 44.5929 118.842 44.3035 118.506C44.0142 118.17 43.6269 118.002 43.1415 118.002C42.6655 118.002 42.2829 118.17 41.9935 118.506C41.7042 118.842 41.5595 119.29 41.5595 119.85C41.5595 120.419 41.7042 120.872 41.9935 121.208C42.2829 121.544 42.6655 121.712 43.1415 121.712ZM48.9455 123.14C48.6282 123.14 48.3668 123.037 48.1615 122.832C47.9655 122.617 47.8675 122.347 47.8675 122.02C47.8675 121.703 47.9655 121.441 48.1615 121.236C48.3668 121.031 48.6282 120.928 48.9455 120.928C49.2628 120.928 49.5195 121.031 49.7155 121.236C49.9208 121.432 50.0235 121.693 50.0235 122.02C50.0235 122.347 49.9208 122.617 49.7155 122.832C49.5195 123.037 49.2628 123.14 48.9455 123.14ZM54.9 123.14C54.2093 123.14 53.6027 122.986 53.08 122.678C52.5667 122.361 52.1653 121.917 51.876 121.348C51.596 120.779 51.456 120.121 51.456 119.374C51.456 118.329 51.7173 117.339 52.24 116.406C52.7627 115.463 53.472 114.689 54.368 114.082C55.2733 113.475 56.2673 113.116 57.35 113.004L57.518 114.348C56.7247 114.497 56.0013 114.801 55.348 115.258C54.704 115.706 54.2187 116.266 53.892 116.938C54.004 116.845 54.158 116.765 54.354 116.7C54.5593 116.625 54.774 116.588 54.998 116.588C55.9967 116.588 56.7807 116.887 57.35 117.484C57.9193 118.081 58.204 118.875 58.204 119.864C58.204 120.508 58.0687 121.077 57.798 121.572C57.5273 122.067 57.14 122.454 56.636 122.734C56.1413 123.005 55.5627 123.14 54.9 123.14ZM54.872 121.712C55.3573 121.712 55.7447 121.544 56.034 121.208C56.3233 120.872 56.468 120.419 56.468 119.85C56.468 119.29 56.3233 118.842 56.034 118.506C55.7447 118.17 55.3573 118.002 54.872 118.002C54.396 118.002 54.0133 118.17 53.724 118.506C53.4347 118.842 53.29 119.29 53.29 119.85C53.29 120.419 53.4347 120.872 53.724 121.208C54.0133 121.544 54.396 121.712 54.872 121.712ZM61.74 118.758C61.0213 118.758 60.4426 118.497 60.004 117.974C59.5653 117.451 59.346 116.765 59.346 115.916C59.346 115.057 59.5653 114.367 60.004 113.844C60.4426 113.321 61.0213 113.06 61.74 113.06C62.2066 113.06 62.622 113.181 62.986 113.424C63.35 113.657 63.63 113.993 63.826 114.432C64.0313 114.861 64.134 115.356 64.134 115.916C64.134 116.476 64.0313 116.971 63.826 117.4C63.63 117.829 63.35 118.165 62.986 118.408C62.622 118.641 62.2066 118.758 61.74 118.758ZM67.424 113.2L69.23 113.2L63.224 123.182L61.432 123.182L67.424 113.2ZM61.74 117.54C62.02 117.54 62.244 117.391 62.412 117.092C62.58 116.793 62.664 116.401 62.664 115.916C62.664 115.431 62.58 115.039 62.412 114.74C62.244 114.441 62.02 114.292 61.74 114.292C61.4506 114.292 61.222 114.441 61.054 114.74C60.886 115.039 60.802 115.431 60.802 115.916C60.802 116.401 60.886 116.793 61.054 117.092C61.222 117.391 61.4506 117.54 61.74 117.54ZM68.978 123.14C68.5113 123.14 68.096 123.019 67.732 122.776C67.368 122.533 67.0833 122.197 66.878 121.768C66.682 121.329 66.584 120.83 66.584 120.27C66.584 119.71 66.682 119.215 66.878 118.786C67.0833 118.357 67.368 118.025 67.732 117.792C68.096 117.549 68.5113 117.428 68.978 117.428C69.4446 117.428 69.86 117.549 70.224 117.792C70.588 118.025 70.868 118.357 71.064 118.786C71.2693 119.215 71.372 119.71 71.372 120.27C71.372 120.83 71.2693 121.329 71.064 121.768C70.868 122.197 70.588 122.533 70.224 122.776C69.86 123.019 69.4446 123.14 68.978 123.14ZM68.978 121.894C69.2673 121.894 69.496 121.745 69.664 121.446C69.832 121.147 69.916 120.755 69.916 120.27C69.916 119.785 69.832 119.393 69.664 119.094C69.496 118.795 69.2673 118.646 68.978 118.646C68.6886 118.646 68.46 118.795 68.292 119.094C68.124 119.393 68.04 119.785 68.04 120.27C68.04 120.755 68.124 121.147 68.292 121.446C68.46 121.745 68.6886 121.894 68.978 121.894Z" fill="#121212" fill-opacity="0.5"/>
<path d="M35.2515 140.14C34.1222 140.14 33.2542 139.711 32.6475 138.852C32.0502 137.993 31.7515 136.743 31.7515 135.1C31.7515 133.457 32.0502 132.207 32.6475 131.348C33.2542 130.489 34.1222 130.06 35.2515 130.06C36.3902 130.06 37.2582 130.489 37.8555 131.348C38.4529 132.207 38.7515 133.457 38.7515 135.1C38.7515 136.743 38.4529 137.993 37.8555 138.852C37.2582 139.711 36.3902 140.14 35.2515 140.14ZM35.2515 138.838C36.4089 138.838 36.9875 137.592 36.9875 135.1C36.9875 132.599 36.4089 131.348 35.2515 131.348C34.1035 131.348 33.5295 132.599 33.5295 135.1C33.5295 137.592 34.1035 138.838 35.2515 138.838ZM41.1395 137.956C41.4942 137.956 41.7789 138.087 41.9935 138.348C42.2175 138.6 42.3295 138.941 42.3295 139.37C42.3295 139.93 42.1709 140.509 41.8535 141.106C41.5455 141.713 41.1349 142.212 40.6215 142.604L39.9215 141.806C40.1549 141.601 40.3602 141.349 40.5375 141.05C40.7242 140.751 40.8642 140.439 40.9575 140.112C40.9295 140.121 40.8782 140.126 40.8035 140.126C40.5609 140.126 40.3555 140.033 40.1875 139.846C40.0195 139.659 39.9355 139.417 39.9355 139.118C39.9355 138.773 40.0475 138.493 40.2715 138.278C40.4955 138.063 40.7849 137.956 41.1395 137.956ZM46.982 140.14C45.8527 140.14 44.9847 139.711 44.378 138.852C43.7807 137.993 43.482 136.743 43.482 135.1C43.482 133.457 43.7807 132.207 44.378 131.348C44.9847 130.489 45.8527 130.06 46.982 130.06C48.1207 130.06 48.9887 130.489 49.586 131.348C50.1833 132.207 50.482 133.457 50.482 135.1C50.482 136.743 50.1833 137.993 49.586 138.852C48.9887 139.711 48.1207 140.14 46.982 140.14ZM46.982 138.838C48.1393 138.838 48.718 137.592 48.718 135.1C48.718 132.599 48.1393 131.348 46.982 131.348C45.834 131.348 45.26 132.599 45.26 135.1C45.26 137.592 45.834 138.838 46.982 138.838ZM54.62 140.14C53.9573 140.14 53.3367 140.005 52.758 139.734C52.1887 139.463 51.7547 139.099 51.456 138.642L52.24 137.522C52.5573 137.905 52.912 138.199 53.304 138.404C53.7053 138.609 54.1253 138.712 54.564 138.712C55.1333 138.712 55.5813 138.53 55.908 138.166C56.2347 137.802 56.398 137.303 56.398 136.668C56.398 136.071 56.2487 135.604 55.95 135.268C55.6607 134.923 55.264 134.75 54.76 134.75C54.452 134.75 54.158 134.834 53.878 135.002C53.598 135.161 53.3833 135.38 53.234 135.66L51.764 135.66L52.24 130.2L57.868 130.2L57.868 131.614L53.822 131.614L53.612 133.994C53.7613 133.826 53.99 133.691 54.298 133.588C54.606 133.476 54.914 133.42 55.222 133.42C55.81 133.42 56.328 133.555 56.776 133.826C57.224 134.087 57.5693 134.461 57.812 134.946C58.064 135.431 58.19 135.996 58.19 136.64C58.19 137.34 58.0407 137.956 57.742 138.488C57.4527 139.011 57.0373 139.417 56.496 139.706C55.9547 139.995 55.3293 140.14 54.62 140.14ZM61.74 135.758C61.0213 135.758 60.4426 135.497 60.004 134.974C59.5653 134.451 59.346 133.765 59.346 132.916C59.346 132.057 59.5653 131.367 60.004 130.844C60.4426 130.321 61.0213 130.06 61.74 130.06C62.2066 130.06 62.622 130.181 62.986 130.424C63.35 130.657 63.63 130.993 63.826 131.432C64.0313 131.861 64.134 132.356 64.134 132.916C64.134 133.476 64.0313 133.971 63.826 134.4C63.63 134.829 63.35 135.165 62.986 135.408C62.622 135.641 62.2066 135.758 61.74 135.758ZM67.424 130.2L69.23 130.2L63.224 140.182L61.432 140.182L67.424 130.2ZM61.74 134.54C62.02 134.54 62.244 134.391 62.412 134.092C62.58 133.793 62.664 133.401 62.664 132.916C62.664 132.431 62.58 132.039 62.412 131.74C62.244 131.441 62.02 131.292 61.74 131.292C61.4506 131.292 61.222 131.441 61.054 131.74C60.886 132.039 60.802 132.431 60.802 132.916C60.802 133.401 60.886 133.793 61.054 134.092C61.222 134.391 61.4506 134.54 61.74 134.54ZM68.978 140.14C68.5113 140.14 68.096 140.019 67.732 139.776C67.368 139.533 67.0833 139.197 66.878 138.768C66.682 138.329 66.584 137.83 66.584 137.27C66.584 136.71 66.682 136.215 66.878 135.786C67.0833 135.357 67.368 135.025 67.732 134.792C68.096 134.549 68.5113 134.428 68.978 134.428C69.4446 134.428 69.86 134.549 70.224 134.792C70.588 135.025 70.868 135.357 71.064 135.786C71.2693 136.215 71.372 136.71 71.372 137.27C71.372 137.83 71.2693 138.329 71.064 138.768C70.868 139.197 70.588 139.533 70.224 139.776C69.86 140.019 69.4446 140.14 68.978 140.14ZM68.978 138.894C69.2673 138.894 69.496 138.745 69.664 138.446C69.832 138.147 69.916 137.755 69.916 137.27C69.916 136.785 69.832 136.393 69.664 136.094C69.496 135.795 69.2673 135.646 68.978 135.646C68.6886 135.646 68.46 135.795 68.292 136.094C68.124 136.393 68.04 136.785 68.04 137.27C68.04 137.755 68.124 138.147 68.292 138.446C68.46 138.745 68.6886 138.894 68.978 138.894Z" fill="#121212" fill-opacity="0.3"/>
<path d="M54.816 157.14C53.6867 157.14 52.8187 156.711 52.212 155.852C51.6147 154.993 51.316 153.743 51.316 152.1C51.316 150.457 51.6147 149.207 52.212 148.348C52.8187 147.489 53.6867 147.06 54.816 147.06C55.9547 147.06 56.8227 147.489 57.42 148.348C58.0173 149.207 58.316 150.457 58.316 152.1C58.316 153.743 58.0173 154.993 57.42 155.852C56.8227 156.711 55.9547 157.14 54.816 157.14ZM54.816 155.838C55.9733 155.838 56.552 154.592 56.552 152.1C56.552 149.599 55.9733 148.348 54.816 148.348C53.668 148.348 53.094 149.599 53.094 152.1C53.094 154.592 53.668 155.838 54.816 155.838ZM61.74 152.758C61.0213 152.758 60.4426 152.497 60.004 151.974C59.5653 151.451 59.346 150.765 59.346 149.916C59.346 149.057 59.5653 148.367 60.004 147.844C60.4426 147.321 61.0213 147.06 61.74 147.06C62.2066 147.06 62.622 147.181 62.986 147.424C63.35 147.657 63.63 147.993 63.826 148.432C64.0313 148.861 64.134 149.356 64.134 149.916C64.134 150.476 64.0313 150.971 63.826 151.4C63.63 151.829 63.35 152.165 62.986 152.408C62.622 152.641 62.2066 152.758 61.74 152.758ZM67.424 147.2L69.23 147.2L63.224 157.182L61.432 157.182L67.424 147.2ZM61.74 151.54C62.02 151.54 62.244 151.391 62.412 151.092C62.58 150.793 62.664 150.401 62.664 149.916C62.664 149.431 62.58 149.039 62.412 148.74C62.244 148.441 62.02 148.292 61.74 148.292C61.4506 148.292 61.222 148.441 61.054 148.74C60.886 149.039 60.802 149.431 60.802 149.916C60.802 150.401 60.886 150.793 61.054 151.092C61.222 151.391 61.4506 151.54 61.74 151.54ZM68.978 157.14C68.5113 157.14 68.096 157.019 67.732 156.776C67.368 156.533 67.0833 156.197 66.878 155.768C66.682 155.329 66.584 154.83 66.584 154.27C66.584 153.71 66.682 153.215 66.878 152.786C67.0833 152.357 67.368 152.025 67.732 151.792C68.096 151.549 68.5113 151.428 68.978 151.428C69.4446 151.428 69.86 151.549 70.224 151.792C70.588 152.025 70.868 152.357 71.064 152.786C71.2693 153.215 71.372 153.71 71.372 154.27C71.372 154.83 71.2693 155.329 71.064 155.768C70.868 156.197 70.588 156.533 70.224 156.776C69.86 157.019 69.4446 157.14 68.978 157.14ZM68.978 155.894C69.2673 155.894 69.496 155.745 69.664 155.446C69.832 155.147 69.916 154.755 69.916 154.27C69.916 153.785 69.832 153.393 69.664 153.094C69.496 152.795 69.2673 152.646 68.978 152.646C68.6886 152.646 68.46 152.795 68.292 153.094C68.124 153.393 68.04 153.785 68.04 154.27C68.04 154.755 68.124 155.147 68.292 155.446C68.46 155.745 68.6886 155.894 68.978 155.894Z" fill="#121212" fill-opacity="0.2"/>
</svg>
