<svg width="35" height="38" viewBox="0 0 35 38" fill="none" xmlns="http://www.w3.org/2000/svg">
<g id="share">
<path id="icon" fill-rule="evenodd" clip-rule="evenodd" d="M20.4167 9.50008C20.4167 9.95516 20.4609 10.399 20.5449 10.8269L13.1497 14.8414C12.0803 13.5089 10.5057 12.6667 8.75 12.6667C5.52834 12.6667 2.91666 15.5023 2.91666 19.0001C2.91666 22.4979 5.52834 25.3334 8.75 25.3334C10.5057 25.3334 12.0803 24.4912 13.1497 23.1587L20.5449 27.1732C20.4609 27.6011 20.4167 28.045 20.4167 28.5001C20.4167 31.9979 23.0283 34.8334 26.25 34.8334C29.4717 34.8334 32.0833 31.9979 32.0833 28.5001C32.0833 25.0023 29.4717 22.1667 26.25 22.1667C24.4943 22.1667 22.9197 23.0089 21.8503 24.3414L14.4551 20.3269C14.5391 19.899 14.5833 19.4552 14.5833 19.0001C14.5833 18.545 14.5391 18.1011 14.4551 17.6732L21.8503 13.6587C22.9197 14.9913 24.4943 15.8334 26.25 15.8334C29.4717 15.8334 32.0833 12.9979 32.0833 9.50008C32.0833 6.00228 29.4717 3.16675 26.25 3.16675C23.0283 3.16675 20.4167 6.00228 20.4167 9.50008ZM11.6667 19.0001C11.6667 20.749 10.3608 22.1667 8.75 22.1667C7.13917 22.1667 5.83333 20.749 5.83333 19.0001C5.83333 17.2512 7.13917 15.8334 8.75 15.8334C10.3608 15.8334 11.6667 17.2512 11.6667 19.0001ZM26.25 12.6667C27.8608 12.6667 29.1667 11.249 29.1667 9.50008C29.1667 7.75117 27.8608 6.33341 26.25 6.33341C24.6392 6.33341 23.3333 7.75117 23.3333 9.50008C23.3333 11.249 24.6392 12.6667 26.25 12.6667ZM29.1667 28.5001C29.1667 30.249 27.8608 31.6667 26.25 31.6667C24.6392 31.6667 23.3333 30.249 23.3333 28.5001C23.3333 26.7512 24.6392 25.3334 26.25 25.3334C27.8608 25.3334 29.1667 26.7512 29.1667 28.5001Z" fill="#FF83A8"/>
</g>
</svg>
