<svg width="1641" height="1601" viewBox="0 0 1641 1601" fill="none" xmlns="http://www.w3.org/2000/svg">
<path d="M746.366 625.797C779.059 560.497 842.937 579.573 833.468 651.808C826.703 703.416 859.386 734.63 895.008 710.608C953.116 671.421 982.22 773.035 928.275 826.763L879.392 875.451C876.627 878.205 873.757 880.678 870.812 882.844L709.754 1001.32C684.852 1019.63 658.022 1020.86 638.325 1004.58C606.299 978.103 602.143 913.856 628.988 860.238L746.366 625.797Z" fill="#FF83A8" fill-opacity="0.2" stroke="white"/>
<path d="M893.42 975.769C860.884 1040.98 796.736 1022.2 805.949 950.151C812.532 898.677 779.625 867.677 743.989 891.754C685.857 931.029 656.263 829.834 710.161 776.076L759.003 727.362C761.766 724.607 764.634 722.131 767.58 719.961L928.668 601.272C953.574 582.921 980.481 581.603 1000.3 597.763C1032.53 624.039 1036.95 688.073 1010.24 741.623L893.42 975.769Z" fill="#FF83A8" fill-opacity="0.2" stroke="white"/>
</svg>
