<svg width="642" height="807" viewBox="0 0 642 807" fill="none" xmlns="http://www.w3.org/2000/svg">
<path d="M357.09 254.175C387.876 245.591 413.569 278.675 397.629 306.377L373.709 347.951C361.408 369.33 385.455 393.147 406.715 380.641C427.631 368.337 450.893 392.579 437.737 412.97L337.624 568.141C328.757 581.886 315.158 591.902 299.402 596.296L286.48 599.899C225.872 616.798 164.452 574.744 157.416 512.209C154.68 487.896 160.668 463.188 174.348 442.907L277.229 290.379C284.702 279.3 295.876 271.244 308.749 267.654L357.09 254.175Z" fill="#FF83A8" fill-opacity="0.5" stroke="white"/>
<path d="M478.433 263.587C486.907 214.707 467.876 185.75 445.249 213.096L422.947 240.049C403.52 263.529 389.36 230.684 401.528 190.367C413.808 149.681 398.525 117.79 379.281 143.944L287.88 268.162C272.712 288.776 260.466 320.332 254.679 353.713L243.085 420.598C230.993 490.347 242.517 550.109 270.519 562.871L291.249 572.318C308.58 580.217 329.857 568.8 349.296 541.171L435.217 419.045C448.891 399.61 459.849 370.791 465.114 340.423L478.433 263.587Z" fill="#FF83A8" fill-opacity="0.5" stroke="white"/>
</svg>
