<svg width="391" height="415" viewBox="0 0 391 415" fill="none" xmlns="http://www.w3.org/2000/svg">
<path d="M73.3997 164.811C80.8809 134.805 99.1769 108.618 124.778 91.273C150.38 73.9276 181.484 66.645 212.124 70.8221C242.765 74.9992 270.784 90.342 290.808 113.907C310.832 137.473 321.451 167.601 320.627 198.514L195.172 195.172L73.3997 164.811Z" fill="#121212"/>
<path d="M69.7691 190.234C70.1107 181.559 71.3516 172.942 73.4718 164.524L195.172 195.172L69.7691 190.234Z" fill="#121212" fill-opacity="0.5"/>
<circle cx="194.549" cy="195.955" r="62.5" transform="rotate(-51.5 194.549 195.955)" fill="#F5F5F5"/>
<circle cx="194.82" cy="195.82" r="62.5" transform="rotate(-51.5 194.82 195.82)" fill="#FF83A8" fill-opacity="0.2"/>
<path d="M190.968 252.2L190.968 269L189.24 269L189.24 255.2L184.104 269L182.904 269L177.792 255.2L177.792 269L176.064 269L176.064 252.2L178.248 252.2L183.504 266.672L188.784 252.2L190.968 252.2ZM198.095 269.24C196.927 269.24 195.967 268.904 195.215 268.232C194.463 267.544 194.087 266.664 194.087 265.592C194.087 264.408 194.527 263.488 195.407 262.832C196.303 262.16 197.551 261.824 199.151 261.824L201.839 261.824L201.839 261.176C201.839 260.184 201.583 259.432 201.071 258.92C200.575 258.392 199.839 258.128 198.863 258.128C198.143 258.128 197.479 258.288 196.871 258.608C196.279 258.912 195.799 259.36 195.431 259.952L194.519 258.896C195.031 258.208 195.663 257.68 196.415 257.312C197.167 256.944 198.015 256.76 198.959 256.76C200.415 256.76 201.535 257.128 202.319 257.864C203.119 258.6 203.519 259.64 203.519 260.984L203.519 266.744C203.519 267.336 203.607 268.088 203.783 269L202.343 269C202.231 268.648 202.127 268.056 202.031 267.224L201.983 267.224C201.535 267.864 200.975 268.36 200.303 268.712C199.631 269.064 198.895 269.24 198.095 269.24ZM198.263 267.896C198.903 267.896 199.495 267.768 200.039 267.512C200.583 267.256 201.015 266.912 201.335 266.48C201.671 266.032 201.839 265.56 201.839 265.064L201.839 263.096L199.079 263.096C198.007 263.096 197.175 263.312 196.583 263.744C196.007 264.176 195.719 264.792 195.719 265.592C195.719 266.28 195.951 266.84 196.415 267.272C196.879 267.688 197.495 267.896 198.263 267.896ZM209.49 269.24C207.874 269.24 207.066 268.24 207.066 266.24L207.066 251.192L208.746 251.192L208.746 266.216C208.746 266.856 208.834 267.304 209.01 267.56C209.202 267.816 209.53 267.944 209.994 267.944C210.314 267.944 210.698 267.856 211.146 267.68L211.434 268.712C210.858 269.064 210.21 269.24 209.49 269.24ZM222.805 263.672L214.069 263.672C214.165 265 214.541 266.024 215.197 266.744C215.869 267.464 216.773 267.824 217.909 267.824C218.629 267.824 219.285 267.672 219.877 267.368C220.469 267.048 220.957 266.608 221.341 266.048L222.325 266.984C221.861 267.704 221.237 268.264 220.453 268.664C219.685 269.048 218.821 269.24 217.861 269.24C216.149 269.24 214.805 268.696 213.829 267.608C212.869 266.504 212.389 264.976 212.389 263.024C212.389 261.072 212.861 259.544 213.805 258.44C214.765 257.32 216.085 256.76 217.765 256.76C219.349 256.76 220.581 257.296 221.461 258.368C222.357 259.44 222.805 260.936 222.805 262.856L222.805 263.672ZM221.269 262.184C221.269 260.936 220.949 259.952 220.309 259.232C219.669 258.496 218.805 258.128 217.717 258.128C216.629 258.128 215.765 258.496 215.125 259.232C214.501 259.968 214.149 261.016 214.069 262.376L221.269 262.376L221.269 262.184ZM234.225 270.488C233.089 269.464 232.201 268.096 231.561 266.384C230.921 264.656 230.601 262.776 230.601 260.744C230.601 258.712 230.921 256.84 231.561 255.128C232.201 253.4 233.089 252.024 234.225 251L236.049 251C234.897 251.928 233.985 253.264 233.313 255.008C232.657 256.736 232.329 258.648 232.329 260.744C232.329 262.84 232.657 264.76 233.313 266.504C233.985 268.232 234.897 269.56 236.049 270.488L234.225 270.488ZM243.337 269.24C241.609 269.24 240.257 268.696 239.281 267.608C238.321 266.504 237.841 264.968 237.841 263C237.841 261.032 238.321 259.504 239.281 258.416C240.257 257.312 241.609 256.76 243.337 256.76C244.313 256.76 245.177 256.952 245.929 257.336C246.681 257.704 247.281 258.256 247.729 258.992L246.721 259.928C246.369 259.352 245.897 258.912 245.305 258.608C244.713 258.288 244.073 258.128 243.385 258.128C242.169 258.128 241.217 258.56 240.529 259.424C239.857 260.272 239.521 261.464 239.521 263C239.521 264.52 239.857 265.712 240.529 266.576C241.217 267.44 242.169 267.872 243.385 267.872C244.073 267.872 244.713 267.72 245.305 267.416C245.897 267.096 246.369 266.648 246.721 266.072L247.729 267.008C247.281 267.744 246.681 268.304 245.929 268.688C245.177 269.056 244.313 269.24 243.337 269.24ZM250.988 254.672C250.604 254.672 250.292 254.56 250.052 254.336C249.828 254.112 249.716 253.816 249.716 253.448C249.716 253.064 249.828 252.76 250.052 252.536C250.292 252.312 250.604 252.2 250.988 252.2C251.372 252.2 251.676 252.312 251.9 252.536C252.14 252.76 252.26 253.064 252.26 253.448C252.26 253.816 252.14 254.112 251.9 254.336C251.676 254.56 251.372 254.672 250.988 254.672ZM250.148 257L251.828 257L251.828 269L250.148 269L250.148 257ZM258.532 269.24C257.684 269.24 256.908 269.064 256.204 268.712C255.516 268.36 255.02 267.896 254.716 267.32L255.82 266.552C256.108 267 256.492 267.344 256.972 267.584C257.452 267.808 257.996 267.92 258.604 267.92C259.324 267.92 259.916 267.712 260.38 267.296C260.844 266.864 261.076 266.32 261.076 265.664C261.076 265.136 260.884 264.696 260.5 264.344C260.132 263.976 259.484 263.616 258.556 263.264C257.228 262.768 256.292 262.256 255.748 261.728C255.22 261.2 254.956 260.544 254.956 259.76C254.956 258.864 255.308 258.144 256.012 257.6C256.716 257.04 257.652 256.76 258.82 256.76C259.572 256.76 260.26 256.928 260.884 257.264C261.524 257.6 261.996 258.056 262.3 258.632L261.244 259.4C260.7 258.52 259.884 258.08 258.796 258.08C258.156 258.08 257.628 258.232 257.212 258.536C256.812 258.84 256.612 259.232 256.612 259.712C256.612 260.176 256.812 260.576 257.212 260.912C257.612 261.232 258.356 261.592 259.444 261.992C260.628 262.456 261.476 262.968 261.988 263.528C262.5 264.088 262.756 264.784 262.756 265.616C262.756 266.704 262.372 267.584 261.604 268.256C260.836 268.912 259.812 269.24 258.532 269.24ZM264.584 270.488C265.72 269.56 266.616 268.232 267.272 266.504C267.944 264.76 268.28 262.84 268.28 260.744C268.28 258.648 267.944 256.736 267.272 255.008C266.616 253.264 265.72 251.928 264.584 251L266.384 251C267.52 252.024 268.408 253.4 269.048 255.128C269.688 256.84 270.008 258.712 270.008 260.744C270.008 262.776 269.688 264.656 269.048 266.384C268.408 268.096 267.52 269.464 266.384 270.488L264.584 270.488Z" fill="#121212"/>
<path d="M190.968 351.2L190.968 368L189.24 368L189.24 354.2L184.104 368L182.904 368L177.792 354.2L177.792 368L176.064 368L176.064 351.2L178.248 351.2L183.504 365.672L188.784 351.2L190.968 351.2ZM198.095 368.24C196.927 368.24 195.967 367.904 195.215 367.232C194.463 366.544 194.087 365.664 194.087 364.592C194.087 363.408 194.527 362.488 195.407 361.832C196.303 361.16 197.551 360.824 199.151 360.824L201.839 360.824L201.839 360.176C201.839 359.184 201.583 358.432 201.071 357.92C200.575 357.392 199.839 357.128 198.863 357.128C198.143 357.128 197.479 357.288 196.871 357.608C196.279 357.912 195.799 358.36 195.431 358.952L194.519 357.896C195.031 357.208 195.663 356.68 196.415 356.312C197.167 355.944 198.015 355.76 198.959 355.76C200.415 355.76 201.535 356.128 202.319 356.864C203.119 357.6 203.519 358.64 203.519 359.984L203.519 365.744C203.519 366.336 203.607 367.088 203.783 368L202.343 368C202.231 367.648 202.127 367.056 202.031 366.224L201.983 366.224C201.535 366.864 200.975 367.36 200.303 367.712C199.631 368.064 198.895 368.24 198.095 368.24ZM198.263 366.896C198.903 366.896 199.495 366.768 200.039 366.512C200.583 366.256 201.015 365.912 201.335 365.48C201.671 365.032 201.839 364.56 201.839 364.064L201.839 362.096L199.079 362.096C198.007 362.096 197.175 362.312 196.583 362.744C196.007 363.176 195.719 363.792 195.719 364.592C195.719 365.28 195.951 365.84 196.415 366.272C196.879 366.688 197.495 366.896 198.263 366.896ZM209.49 368.24C207.874 368.24 207.066 367.24 207.066 365.24L207.066 350.192L208.746 350.192L208.746 365.216C208.746 365.856 208.834 366.304 209.01 366.56C209.202 366.816 209.53 366.944 209.994 366.944C210.314 366.944 210.698 366.856 211.146 366.68L211.434 367.712C210.858 368.064 210.21 368.24 209.49 368.24ZM222.805 362.672L214.069 362.672C214.165 364 214.541 365.024 215.197 365.744C215.869 366.464 216.773 366.824 217.909 366.824C218.629 366.824 219.285 366.672 219.877 366.368C220.469 366.048 220.957 365.608 221.341 365.048L222.325 365.984C221.861 366.704 221.237 367.264 220.453 367.664C219.685 368.048 218.821 368.24 217.861 368.24C216.149 368.24 214.805 367.696 213.829 366.608C212.869 365.504 212.389 363.976 212.389 362.024C212.389 360.072 212.861 358.544 213.805 357.44C214.765 356.32 216.085 355.76 217.765 355.76C219.349 355.76 220.581 356.296 221.461 357.368C222.357 358.44 222.805 359.936 222.805 361.856L222.805 362.672ZM221.269 361.184C221.269 359.936 220.949 358.952 220.309 358.232C219.669 357.496 218.805 357.128 217.717 357.128C216.629 357.128 215.765 357.496 215.125 358.232C214.501 358.968 214.149 360.016 214.069 361.376L221.269 361.376L221.269 361.184ZM234.225 369.488C233.089 368.464 232.201 367.096 231.561 365.384C230.921 363.656 230.601 361.776 230.601 359.744C230.601 357.712 230.921 355.84 231.561 354.128C232.201 352.4 233.089 351.024 234.225 350L236.049 350C234.897 350.928 233.985 352.264 233.313 354.008C232.657 355.736 232.329 357.648 232.329 359.744C232.329 361.84 232.657 363.76 233.313 365.504C233.985 367.232 234.897 368.56 236.049 369.488L234.225 369.488ZM242.569 368.24C241.545 368.24 240.753 367.92 240.193 367.28C239.633 366.624 239.353 365.704 239.353 364.52L239.353 357.32L237.193 357.32L237.193 356L239.353 356L239.353 352.76L240.913 352.256L241.009 352.256L241.009 356L244.393 356L244.393 357.32L241.009 357.32L241.009 364.304C241.009 365.2 241.161 365.856 241.465 366.272C241.769 366.672 242.249 366.872 242.905 366.872C243.545 366.872 244.081 366.776 244.513 366.584L244.657 367.856C244.129 368.112 243.433 368.24 242.569 368.24ZM247.4 358.928C247.4 357.568 247.376 356.592 247.328 356L248.864 356C248.928 356.624 248.96 357.328 248.96 358.112L248.96 358.4L249.008 358.4C249.312 357.552 249.784 356.904 250.424 356.456C251.08 355.992 251.84 355.76 252.704 355.76C252.992 355.76 253.224 355.784 253.4 355.832L253.4 357.224C253.144 357.192 252.88 357.176 252.608 357.176C251.952 357.176 251.352 357.376 250.808 357.776C250.264 358.176 249.832 358.728 249.512 359.432C249.208 360.136 249.056 360.912 249.056 361.76L249.056 368L247.4 368L247.4 358.928ZM258.752 368.24C257.584 368.24 256.624 367.904 255.872 367.232C255.12 366.544 254.744 365.664 254.744 364.592C254.744 363.408 255.184 362.488 256.064 361.832C256.96 361.16 258.208 360.824 259.808 360.824L262.496 360.824L262.496 360.176C262.496 359.184 262.24 358.432 261.728 357.92C261.232 357.392 260.496 357.128 259.52 357.128C258.8 357.128 258.136 357.288 257.528 357.608C256.936 357.912 256.456 358.36 256.088 358.952L255.176 357.896C255.688 357.208 256.32 356.68 257.072 356.312C257.824 355.944 258.672 355.76 259.616 355.76C261.072 355.76 262.192 356.128 262.976 356.864C263.776 357.6 264.176 358.64 264.176 359.984L264.176 365.744C264.176 366.336 264.264 367.088 264.44 368L263 368C262.888 367.648 262.784 367.056 262.688 366.224L262.64 366.224C262.192 366.864 261.632 367.36 260.96 367.712C260.288 368.064 259.552 368.24 258.752 368.24ZM258.92 366.896C259.56 366.896 260.152 366.768 260.696 366.512C261.24 366.256 261.672 365.912 261.992 365.48C262.328 365.032 262.496 364.56 262.496 364.064L262.496 362.096L259.736 362.096C258.664 362.096 257.832 362.312 257.24 362.744C256.664 363.176 256.376 363.792 256.376 364.592C256.376 365.28 256.608 365.84 257.072 366.272C257.536 366.688 258.152 366.896 258.92 366.896ZM267.482 358.976C267.482 357.568 267.458 356.576 267.41 356L268.922 356C268.986 356.544 269.018 357.304 269.018 358.28L269.09 358.28C269.442 357.512 269.994 356.904 270.746 356.456C271.498 355.992 272.322 355.76 273.218 355.76C274.61 355.76 275.658 356.216 276.362 357.128C277.066 358.04 277.418 359.392 277.418 361.184L277.418 368L275.762 368L275.762 361.16C275.762 359.8 275.53 358.792 275.066 358.136C274.602 357.464 273.898 357.128 272.954 357.128C272.234 357.128 271.586 357.32 271.01 357.704C270.434 358.072 269.978 358.584 269.642 359.24C269.322 359.896 269.162 360.632 269.162 361.448L269.162 368L267.482 368L267.482 358.976ZM283.704 368.24C282.856 368.24 282.08 368.064 281.376 367.712C280.688 367.36 280.192 366.896 279.888 366.32L280.992 365.552C281.28 366 281.664 366.344 282.144 366.584C282.624 366.808 283.168 366.92 283.776 366.92C284.496 366.92 285.088 366.712 285.552 366.296C286.016 365.864 286.248 365.32 286.248 364.664C286.248 364.136 286.056 363.696 285.672 363.344C285.304 362.976 284.656 362.616 283.728 362.264C282.4 361.768 281.464 361.256 280.92 360.728C280.392 360.2 280.128 359.544 280.128 358.76C280.128 357.864 280.48 357.144 281.184 356.6C281.888 356.04 282.824 355.76 283.992 355.76C284.744 355.76 285.432 355.928 286.056 356.264C286.696 356.6 287.168 357.056 287.472 357.632L286.416 358.4C285.872 357.52 285.056 357.08 283.968 357.08C283.328 357.08 282.8 357.232 282.384 357.536C281.984 357.84 281.784 358.232 281.784 358.712C281.784 359.176 281.984 359.576 282.384 359.912C282.784 360.232 283.528 360.592 284.616 360.992C285.8 361.456 286.648 361.968 287.16 362.528C287.672 363.088 287.928 363.784 287.928 364.616C287.928 365.704 287.544 366.584 286.776 367.256C286.008 367.912 284.984 368.24 283.704 368.24ZM289.756 369.488C290.892 368.56 291.788 367.232 292.444 365.504C293.116 363.76 293.452 361.84 293.452 359.744C293.452 357.648 293.116 355.736 292.444 354.008C291.788 352.264 290.892 350.928 289.756 350L291.556 350C292.692 351.024 293.58 352.4 294.22 354.128C294.86 355.84 295.18 357.712 295.18 359.744C295.18 361.776 294.86 363.656 294.22 365.384C293.58 367.096 292.692 368.464 291.556 369.488L289.756 369.488Z" fill="#121212" fill-opacity="0.3"/>
<path d="M175.064 302.2L184.88 302.2L184.88 303.688L176.84 303.688L176.84 310.096L184.352 310.096L184.352 311.584L176.84 311.584L176.84 319L175.064 319L175.064 302.2ZM197.359 313.672L188.623 313.672C188.719 315 189.095 316.024 189.751 316.744C190.423 317.464 191.327 317.824 192.463 317.824C193.183 317.824 193.839 317.672 194.431 317.368C195.023 317.048 195.511 316.608 195.895 316.048L196.879 316.984C196.415 317.704 195.791 318.264 195.007 318.664C194.239 319.048 193.375 319.24 192.415 319.24C190.703 319.24 189.359 318.696 188.383 317.608C187.423 316.504 186.943 314.976 186.943 313.024C186.943 311.072 187.415 309.544 188.359 308.44C189.319 307.32 190.639 306.76 192.319 306.76C193.903 306.76 195.135 307.296 196.015 308.368C196.911 309.44 197.359 310.936 197.359 312.856L197.359 313.672ZM195.823 312.184C195.823 310.936 195.503 309.952 194.863 309.232C194.223 308.496 193.359 308.128 192.271 308.128C191.183 308.128 190.319 308.496 189.679 309.232C189.055 309.968 188.703 311.016 188.623 312.376L195.823 312.376L195.823 312.184ZM199.85 309.976C199.85 308.888 199.818 307.896 199.754 307L201.242 307C201.29 307.448 201.314 308.16 201.314 309.136L201.386 309.136C201.738 308.4 202.25 307.824 202.922 307.408C203.61 306.976 204.37 306.76 205.202 306.76C206.066 306.76 206.802 306.992 207.41 307.456C208.034 307.904 208.45 308.528 208.658 309.328C208.978 308.544 209.49 307.92 210.194 307.456C210.914 306.992 211.714 306.76 212.594 306.76C213.906 306.76 214.93 307.192 215.666 308.056C216.402 308.904 216.77 310.08 216.77 311.584L216.77 319L215.114 319L215.114 311.68C215.114 310.528 214.866 309.648 214.37 309.04C213.874 308.432 213.162 308.128 212.234 308.128C211.338 308.128 210.594 308.472 210.002 309.16C209.41 309.832 209.114 310.68 209.114 311.704L209.114 319L207.482 319L207.482 311.824C207.482 309.36 206.578 308.128 204.77 308.128C204.194 308.128 203.65 308.296 203.138 308.632C202.642 308.968 202.242 309.424 201.938 310C201.65 310.56 201.506 311.152 201.506 311.776L201.506 319L199.85 319L199.85 309.976ZM223.439 319.24C222.271 319.24 221.311 318.904 220.559 318.232C219.807 317.544 219.431 316.664 219.431 315.592C219.431 314.408 219.871 313.488 220.751 312.832C221.647 312.16 222.895 311.824 224.495 311.824L227.183 311.824L227.183 311.176C227.183 310.184 226.927 309.432 226.415 308.92C225.919 308.392 225.183 308.128 224.207 308.128C223.487 308.128 222.823 308.288 222.215 308.608C221.623 308.912 221.143 309.36 220.775 309.952L219.863 308.896C220.375 308.208 221.007 307.68 221.759 307.312C222.511 306.944 223.359 306.76 224.303 306.76C225.759 306.76 226.879 307.128 227.663 307.864C228.463 308.6 228.863 309.64 228.863 310.984L228.863 316.744C228.863 317.336 228.951 318.088 229.127 319L227.687 319C227.575 318.648 227.471 318.056 227.375 317.224L227.327 317.224C226.879 317.864 226.319 318.36 225.647 318.712C224.975 319.064 224.239 319.24 223.439 319.24ZM223.607 317.896C224.247 317.896 224.839 317.768 225.383 317.512C225.927 317.256 226.359 316.912 226.679 316.48C227.015 316.032 227.183 315.56 227.183 315.064L227.183 313.096L224.423 313.096C223.351 313.096 222.519 313.312 221.927 313.744C221.351 314.176 221.063 314.792 221.063 315.592C221.063 316.28 221.295 316.84 221.759 317.272C222.223 317.688 222.839 317.896 223.607 317.896ZM234.833 319.24C233.217 319.24 232.409 318.24 232.409 316.24L232.409 301.192L234.089 301.192L234.089 316.216C234.089 316.856 234.177 317.304 234.353 317.56C234.545 317.816 234.873 317.944 235.337 317.944C235.657 317.944 236.041 317.856 236.489 317.68L236.777 318.712C236.201 319.064 235.553 319.24 234.833 319.24ZM248.148 313.672L239.412 313.672C239.508 315 239.884 316.024 240.54 316.744C241.212 317.464 242.116 317.824 243.252 317.824C243.972 317.824 244.628 317.672 245.22 317.368C245.812 317.048 246.3 316.608 246.684 316.048L247.668 316.984C247.204 317.704 246.58 318.264 245.796 318.664C245.028 319.048 244.164 319.24 243.204 319.24C241.492 319.24 240.148 318.696 239.172 317.608C238.212 316.504 237.732 314.976 237.732 313.024C237.732 311.072 238.204 309.544 239.148 308.44C240.108 307.32 241.428 306.76 243.108 306.76C244.692 306.76 245.924 307.296 246.804 308.368C247.7 309.44 248.148 310.936 248.148 312.856L248.148 313.672ZM246.612 312.184C246.612 310.936 246.292 309.952 245.652 309.232C245.012 308.496 244.148 308.128 243.06 308.128C241.972 308.128 241.108 308.496 240.468 309.232C239.844 309.968 239.492 311.016 239.412 312.376L246.612 312.376L246.612 312.184ZM259.568 320.488C258.432 319.464 257.544 318.096 256.904 316.384C256.264 314.656 255.944 312.776 255.944 310.744C255.944 308.712 256.264 306.84 256.904 305.128C257.544 303.4 258.432 302.024 259.568 301L261.392 301C260.24 301.928 259.328 303.264 258.656 305.008C258 306.736 257.672 308.648 257.672 310.744C257.672 312.84 258 314.76 258.656 316.504C259.328 318.232 260.24 319.56 261.392 320.488L259.568 320.488ZM268.681 319.24C266.953 319.24 265.601 318.696 264.625 317.608C263.665 316.504 263.185 314.968 263.185 313C263.185 311.032 263.665 309.504 264.625 308.416C265.601 307.312 266.953 306.76 268.681 306.76C269.657 306.76 270.521 306.952 271.273 307.336C272.025 307.704 272.625 308.256 273.073 308.992L272.065 309.928C271.713 309.352 271.241 308.912 270.649 308.608C270.057 308.288 269.417 308.128 268.729 308.128C267.513 308.128 266.561 308.56 265.873 309.424C265.201 310.272 264.865 311.464 264.865 313C264.865 314.52 265.201 315.712 265.873 316.576C266.561 317.44 267.513 317.872 268.729 317.872C269.417 317.872 270.057 317.72 270.649 317.416C271.241 317.096 271.713 316.648 272.065 316.072L273.073 317.008C272.625 317.744 272.025 318.304 271.273 318.688C270.521 319.056 269.657 319.24 268.681 319.24ZM276.332 304.672C275.948 304.672 275.636 304.56 275.396 304.336C275.172 304.112 275.06 303.816 275.06 303.448C275.06 303.064 275.172 302.76 275.396 302.536C275.636 302.312 275.948 302.2 276.332 302.2C276.716 302.2 277.02 302.312 277.244 302.536C277.484 302.76 277.604 303.064 277.604 303.448C277.604 303.816 277.484 304.112 277.244 304.336C277.02 304.56 276.716 304.672 276.332 304.672ZM275.492 307L277.172 307L277.172 319L275.492 319L275.492 307ZM283.876 319.24C283.028 319.24 282.252 319.064 281.548 318.712C280.86 318.36 280.364 317.896 280.06 317.32L281.164 316.552C281.452 317 281.836 317.344 282.316 317.584C282.796 317.808 283.34 317.92 283.948 317.92C284.668 317.92 285.26 317.712 285.724 317.296C286.188 316.864 286.42 316.32 286.42 315.664C286.42 315.136 286.228 314.696 285.844 314.344C285.476 313.976 284.828 313.616 283.9 313.264C282.572 312.768 281.636 312.256 281.092 311.728C280.564 311.2 280.3 310.544 280.3 309.76C280.3 308.864 280.652 308.144 281.356 307.6C282.06 307.04 282.996 306.76 284.164 306.76C284.916 306.76 285.604 306.928 286.228 307.264C286.868 307.6 287.34 308.056 287.644 308.632L286.588 309.4C286.044 308.52 285.228 308.08 284.14 308.08C283.5 308.08 282.972 308.232 282.556 308.536C282.156 308.84 281.956 309.232 281.956 309.712C281.956 310.176 282.156 310.576 282.556 310.912C282.956 311.232 283.7 311.592 284.788 311.992C285.972 312.456 286.82 312.968 287.332 313.528C287.844 314.088 288.1 314.784 288.1 315.616C288.1 316.704 287.716 317.584 286.948 318.256C286.18 318.912 285.156 319.24 283.876 319.24ZM289.928 320.488C291.064 319.56 291.96 318.232 292.616 316.504C293.288 314.76 293.624 312.84 293.624 310.744C293.624 308.648 293.288 306.736 292.616 305.008C291.96 303.264 291.064 301.928 289.928 301L291.728 301C292.864 302.024 293.752 303.4 294.392 305.128C295.032 306.84 295.352 308.712 295.352 310.744C295.352 312.776 295.032 314.656 294.392 316.384C293.752 318.096 292.864 319.464 291.728 320.488L289.928 320.488Z" fill="#121212" fill-opacity="0.5"/>
<path d="M111.834 414.86C108.93 414.86 106.698 413.756 105.138 411.548C103.602 409.34 102.834 406.124 102.834 401.9C102.834 397.676 103.602 394.46 105.138 392.252C106.698 390.044 108.93 388.94 111.834 388.94C114.762 388.94 116.994 390.044 118.53 392.252C120.066 394.46 120.834 397.676 120.834 401.9C120.834 406.124 120.066 409.34 118.53 411.548C116.994 413.756 114.762 414.86 111.834 414.86ZM111.834 411.512C114.81 411.512 116.298 408.308 116.298 401.9C116.298 395.468 114.81 392.252 111.834 392.252C108.882 392.252 107.406 395.468 107.406 401.9C107.406 408.308 108.882 411.512 111.834 411.512ZM129.638 403.592C127.79 403.592 126.302 402.92 125.174 401.576C124.046 400.232 123.482 398.468 123.482 396.284C123.482 394.076 124.046 392.3 125.174 390.956C126.302 389.612 127.79 388.94 129.638 388.94C130.838 388.94 131.906 389.252 132.842 389.876C133.778 390.476 134.498 391.34 135.002 392.468C135.53 393.572 135.794 394.844 135.794 396.284C135.794 397.724 135.53 398.996 135.002 400.1C134.498 401.204 133.778 402.068 132.842 402.692C131.906 403.292 130.838 403.592 129.638 403.592ZM144.254 389.3L148.898 389.3L133.454 414.968L128.846 414.968L144.254 389.3ZM129.638 400.46C130.358 400.46 130.934 400.076 131.366 399.308C131.798 398.54 132.014 397.532 132.014 396.284C132.014 395.036 131.798 394.028 131.366 393.26C130.934 392.492 130.358 392.108 129.638 392.108C128.894 392.108 128.306 392.492 127.874 393.26C127.442 394.028 127.226 395.036 127.226 396.284C127.226 397.532 127.442 398.54 127.874 399.308C128.306 400.076 128.894 400.46 129.638 400.46ZM148.25 414.86C147.05 414.86 145.982 414.548 145.046 413.924C144.11 413.3 143.378 412.436 142.85 411.332C142.346 410.204 142.094 408.92 142.094 407.48C142.094 406.04 142.346 404.768 142.85 403.664C143.378 402.56 144.11 401.708 145.046 401.108C145.982 400.484 147.05 400.172 148.25 400.172C149.45 400.172 150.518 400.484 151.454 401.108C152.39 401.708 153.11 402.56 153.614 403.664C154.142 404.768 154.406 406.04 154.406 407.48C154.406 408.92 154.142 410.204 153.614 411.332C153.11 412.436 152.39 413.3 151.454 413.924C150.518 414.548 149.45 414.86 148.25 414.86ZM148.25 411.656C148.994 411.656 149.582 411.272 150.014 410.504C150.446 409.736 150.662 408.728 150.662 407.48C150.662 406.232 150.446 405.224 150.014 404.456C149.582 403.688 148.994 403.304 148.25 403.304C147.506 403.304 146.918 403.688 146.486 404.456C146.054 405.224 145.838 406.232 145.838 407.48C145.838 408.728 146.054 409.736 146.486 410.504C146.918 411.272 147.506 411.656 148.25 411.656Z" fill="#121212" fill-opacity="0.2"/>
<path d="M61.5253 366.36C58.6213 366.36 56.3893 365.256 54.8293 363.048C53.2933 360.84 52.5253 357.624 52.5253 353.4C52.5253 349.176 53.2933 345.96 54.8293 343.752C56.3893 341.544 58.6213 340.44 61.5253 340.44C64.4533 340.44 66.6853 341.544 68.2213 343.752C69.7573 345.96 70.5253 349.176 70.5253 353.4C70.5253 357.624 69.7573 360.84 68.2213 363.048C66.6853 365.256 64.4533 366.36 61.5253 366.36ZM61.5253 363.012C64.5013 363.012 65.9893 359.808 65.9893 353.4C65.9893 346.968 64.5013 343.752 61.5253 343.752C58.5733 343.752 57.0973 346.968 57.0973 353.4C57.0973 359.808 58.5733 363.012 61.5253 363.012ZM76.6658 360.744C77.5778 360.744 78.3098 361.08 78.8618 361.752C79.4378 362.4 79.7258 363.276 79.7258 364.38C79.7258 365.82 79.3178 367.308 78.5018 368.844C77.7098 370.404 76.6538 371.688 75.3338 372.696L73.5338 370.644C74.1338 370.116 74.6618 369.468 75.1178 368.7C75.5978 367.932 75.9578 367.128 76.1978 366.288C76.1258 366.312 75.9938 366.324 75.8018 366.324C75.1778 366.324 74.6498 366.084 74.2178 365.604C73.7858 365.124 73.5698 364.5 73.5698 363.732C73.5698 362.844 73.8578 362.124 74.4338 361.572C75.0098 361.02 75.7538 360.744 76.6658 360.744ZM91.6894 366.36C88.7854 366.36 86.5534 365.256 84.9934 363.048C83.4574 360.84 82.6894 357.624 82.6894 353.4C82.6894 349.176 83.4574 345.96 84.9934 343.752C86.5534 341.544 88.7854 340.44 91.6894 340.44C94.6174 340.44 96.8494 341.544 98.3854 343.752C99.9214 345.96 100.689 349.176 100.689 353.4C100.689 357.624 99.9214 360.84 98.3854 363.048C96.8494 365.256 94.6174 366.36 91.6894 366.36ZM91.6894 363.012C94.6654 363.012 96.1534 359.808 96.1534 353.4C96.1534 346.968 94.6654 343.752 91.6894 343.752C88.7374 343.752 87.2614 346.968 87.2614 353.4C87.2614 359.808 88.7374 363.012 91.6894 363.012ZM111.33 366.36C109.626 366.36 108.03 366.012 106.542 365.316C105.078 364.62 103.962 363.684 103.194 362.508L105.21 359.628C106.026 360.612 106.938 361.368 107.946 361.896C108.978 362.424 110.058 362.688 111.186 362.688C112.65 362.688 113.802 362.22 114.642 361.284C115.482 360.348 115.902 359.064 115.902 357.432C115.902 355.896 115.518 354.696 114.75 353.832C114.006 352.944 112.986 352.5 111.69 352.5C110.898 352.5 110.142 352.716 109.422 353.148C108.702 353.556 108.15 354.12 107.766 354.84L103.986 354.84L105.21 340.8L119.682 340.8L119.682 344.436L109.278 344.436L108.738 350.556C109.122 350.124 109.71 349.776 110.502 349.512C111.294 349.224 112.086 349.08 112.878 349.08C114.39 349.08 115.722 349.428 116.874 350.124C118.026 350.796 118.914 351.756 119.538 353.004C120.186 354.252 120.51 355.704 120.51 357.36C120.51 359.16 120.126 360.744 119.358 362.112C118.614 363.456 117.546 364.5 116.154 365.244C114.762 365.988 113.154 366.36 111.33 366.36ZM129.638 355.092C127.79 355.092 126.302 354.42 125.174 353.076C124.046 351.732 123.482 349.968 123.482 347.784C123.482 345.576 124.046 343.8 125.174 342.456C126.302 341.112 127.79 340.44 129.638 340.44C130.838 340.44 131.906 340.752 132.842 341.376C133.778 341.976 134.498 342.84 135.002 343.968C135.53 345.072 135.794 346.344 135.794 347.784C135.794 349.224 135.53 350.496 135.002 351.6C134.498 352.704 133.778 353.568 132.842 354.192C131.906 354.792 130.838 355.092 129.638 355.092ZM144.254 340.8L148.898 340.8L133.454 366.468L128.846 366.468L144.254 340.8ZM129.638 351.96C130.358 351.96 130.934 351.576 131.366 350.808C131.798 350.04 132.014 349.032 132.014 347.784C132.014 346.536 131.798 345.528 131.366 344.76C130.934 343.992 130.358 343.608 129.638 343.608C128.894 343.608 128.306 343.992 127.874 344.76C127.442 345.528 127.226 346.536 127.226 347.784C127.226 349.032 127.442 350.04 127.874 350.808C128.306 351.576 128.894 351.96 129.638 351.96ZM148.25 366.36C147.05 366.36 145.982 366.048 145.046 365.424C144.11 364.8 143.378 363.936 142.85 362.832C142.346 361.704 142.094 360.42 142.094 358.98C142.094 357.54 142.346 356.268 142.85 355.164C143.378 354.06 144.11 353.208 145.046 352.608C145.982 351.984 147.05 351.672 148.25 351.672C149.45 351.672 150.518 351.984 151.454 352.608C152.39 353.208 153.11 354.06 153.614 355.164C154.142 356.268 154.406 357.54 154.406 358.98C154.406 360.42 154.142 361.704 153.614 362.832C153.11 363.936 152.39 364.8 151.454 365.424C150.518 366.048 149.45 366.36 148.25 366.36ZM148.25 363.156C148.994 363.156 149.582 362.772 150.014 362.004C150.446 361.236 150.662 360.228 150.662 358.98C150.662 357.732 150.446 356.724 150.014 355.956C149.582 355.188 148.994 354.804 148.25 354.804C147.506 354.804 146.918 355.188 146.486 355.956C146.054 356.724 145.838 357.732 145.838 358.98C145.838 360.228 146.054 361.236 146.486 362.004C146.918 362.772 147.506 363.156 148.25 363.156Z" fill="#121212" fill-opacity="0.3"/>
<path d="M34.5048 314.548C36.6648 314.092 38.6208 313.276 40.3728 312.1C42.1488 310.9 43.3848 309.484 44.0808 307.852C43.6968 308.116 43.2288 308.344 42.6768 308.536C42.1248 308.704 41.5608 308.788 40.9848 308.788C39.3288 308.788 37.8768 308.428 36.6288 307.708C35.3808 306.988 34.4208 305.992 33.7488 304.72C33.0768 303.424 32.7408 301.96 32.7408 300.328C32.7408 298.696 33.0888 297.244 33.7848 295.972C34.4808 294.7 35.4648 293.716 36.7368 293.02C38.0328 292.3 39.5328 291.94 41.2368 291.94C43.0128 291.94 44.5608 292.348 45.8808 293.164C47.2248 293.956 48.2568 295.096 48.9768 296.584C49.7208 298.072 50.0928 299.788 50.0928 301.732C50.0928 304.612 49.4568 307.228 48.1848 309.58C46.9368 311.908 45.1848 313.816 42.9288 315.304C40.6728 316.768 38.0928 317.668 35.1888 318.004L34.5048 314.548ZM41.2368 305.368C42.4848 305.368 43.4808 304.912 44.2248 304C44.9928 303.088 45.3768 301.876 45.3768 300.364C45.3768 298.924 44.9928 297.772 44.2248 296.908C43.4808 296.044 42.4848 295.612 41.2368 295.612C40.0128 295.612 39.0288 296.044 38.2848 296.908C37.5648 297.772 37.2048 298.924 37.2048 300.364C37.2048 301.876 37.5648 303.088 38.2848 304C39.0288 304.912 40.0128 305.368 41.2368 305.368ZM61.2733 317.86C59.4493 317.86 57.8053 317.512 56.3413 316.816C54.9013 316.12 53.8213 315.172 53.1013 313.972L55.3333 311.452C56.0053 312.268 56.8693 312.928 57.9253 313.432C58.9813 313.936 60.0373 314.188 61.0933 314.188C62.4133 314.188 63.4813 313.816 64.2973 313.072C65.1133 312.304 65.5213 311.32 65.5213 310.12C65.5213 308.8 65.0293 307.78 64.0453 307.06C63.0613 306.34 61.7053 305.98 59.9773 305.98L58.1053 305.98L58.1053 302.632L59.9413 302.632C61.3333 302.632 62.4613 302.26 63.3253 301.516C64.2133 300.772 64.6573 299.812 64.6573 298.636C64.6573 297.676 64.3333 296.932 63.6853 296.404C63.0613 295.876 62.1493 295.612 60.9493 295.612C59.8453 295.612 58.8013 295.852 57.8173 296.332C56.8333 296.788 55.9933 297.448 55.2973 298.312L53.1733 295.792C54.0133 294.592 55.1653 293.656 56.6293 292.984C58.1173 292.288 59.7373 291.94 61.4893 291.94C63.0253 291.94 64.3693 292.204 65.5213 292.732C66.6973 293.236 67.5973 293.956 68.2213 294.892C68.8693 295.828 69.1933 296.92 69.1933 298.168C69.1933 299.488 68.8213 300.664 68.0773 301.696C67.3333 302.728 66.2773 303.532 64.9093 304.108C66.6133 304.636 67.8973 305.428 68.7613 306.484C69.6493 307.54 70.0933 308.848 70.0933 310.408C70.0933 311.872 69.7213 313.168 68.9773 314.296C68.2573 315.424 67.2253 316.3 65.8813 316.924C64.5613 317.548 63.0253 317.86 61.2733 317.86ZM76.5938 317.86C75.7778 317.86 75.1058 317.596 74.5778 317.068C74.0738 316.516 73.8218 315.82 73.8218 314.98C73.8218 314.164 74.0738 313.492 74.5778 312.964C75.1058 312.436 75.7778 312.172 76.5938 312.172C77.4098 312.172 78.0698 312.436 78.5738 312.964C79.1018 313.468 79.3658 314.14 79.3658 314.98C79.3658 315.82 79.1018 316.516 78.5738 317.068C78.0698 317.596 77.4098 317.86 76.5938 317.86ZM91.6894 317.86C88.7854 317.86 86.5534 316.756 84.9934 314.548C83.4574 312.34 82.6894 309.124 82.6894 304.9C82.6894 300.676 83.4574 297.46 84.9934 295.252C86.5534 293.044 88.7854 291.94 91.6894 291.94C94.6174 291.94 96.8494 293.044 98.3854 295.252C99.9214 297.46 100.689 300.676 100.689 304.9C100.689 309.124 99.9214 312.34 98.3854 314.548C96.8494 316.756 94.6174 317.86 91.6894 317.86ZM91.6894 314.512C94.6654 314.512 96.1534 311.308 96.1534 304.9C96.1534 298.468 94.6654 295.252 91.6894 295.252C88.7374 295.252 87.2614 298.468 87.2614 304.9C87.2614 311.308 88.7374 314.512 91.6894 314.512ZM108.09 317.5C108.21 313.108 108.762 309.196 109.746 305.764C110.73 302.308 112.422 299.032 114.822 295.936L103.482 295.936L103.482 292.3L120.258 292.3L120.258 295.432C117.786 298.048 115.902 301.264 114.606 305.08C113.31 308.896 112.662 313.036 112.662 317.5L108.09 317.5ZM129.638 306.592C127.79 306.592 126.302 305.92 125.174 304.576C124.046 303.232 123.482 301.468 123.482 299.284C123.482 297.076 124.046 295.3 125.174 293.956C126.302 292.612 127.79 291.94 129.638 291.94C130.838 291.94 131.906 292.252 132.842 292.876C133.778 293.476 134.498 294.34 135.002 295.468C135.53 296.572 135.794 297.844 135.794 299.284C135.794 300.724 135.53 301.996 135.002 303.1C134.498 304.204 133.778 305.068 132.842 305.692C131.906 306.292 130.838 306.592 129.638 306.592ZM144.254 292.3L148.898 292.3L133.454 317.968L128.846 317.968L144.254 292.3ZM129.638 303.46C130.358 303.46 130.934 303.076 131.366 302.308C131.798 301.54 132.014 300.532 132.014 299.284C132.014 298.036 131.798 297.028 131.366 296.26C130.934 295.492 130.358 295.108 129.638 295.108C128.894 295.108 128.306 295.492 127.874 296.26C127.442 297.028 127.226 298.036 127.226 299.284C127.226 300.532 127.442 301.54 127.874 302.308C128.306 303.076 128.894 303.46 129.638 303.46ZM148.25 317.86C147.05 317.86 145.982 317.548 145.046 316.924C144.11 316.3 143.378 315.436 142.85 314.332C142.346 313.204 142.094 311.92 142.094 310.48C142.094 309.04 142.346 307.768 142.85 306.664C143.378 305.56 144.11 304.708 145.046 304.108C145.982 303.484 147.05 303.172 148.25 303.172C149.45 303.172 150.518 303.484 151.454 304.108C152.39 304.708 153.11 305.56 153.614 306.664C154.142 307.768 154.406 309.04 154.406 310.48C154.406 311.92 154.142 313.204 153.614 314.332C153.11 315.436 152.39 316.3 151.454 316.924C150.518 317.548 149.45 317.86 148.25 317.86ZM148.25 314.656C148.994 314.656 149.582 314.272 150.014 313.504C150.446 312.736 150.662 311.728 150.662 310.48C150.662 309.232 150.446 308.224 150.014 307.456C149.582 306.688 148.994 306.304 148.25 306.304C147.506 306.304 146.918 306.688 146.486 307.456C146.054 308.224 145.838 309.232 145.838 310.48C145.838 311.728 146.054 312.736 146.486 313.504C146.918 314.272 147.506 314.656 148.25 314.656Z" fill="#121212" fill-opacity="0.5"/>
<path d="M34.5048 266.048C36.6648 265.592 38.6208 264.776 40.3728 263.6C42.1488 262.4 43.3848 260.984 44.0808 259.352C43.6968 259.616 43.2288 259.844 42.6768 260.036C42.1248 260.204 41.5608 260.288 40.9848 260.288C39.3288 260.288 37.8768 259.928 36.6288 259.208C35.3808 258.488 34.4208 257.492 33.7488 256.22C33.0768 254.924 32.7408 253.46 32.7408 251.828C32.7408 250.196 33.0888 248.744 33.7848 247.472C34.4808 246.2 35.4648 245.216 36.7368 244.52C38.0328 243.8 39.5328 243.44 41.2368 243.44C43.0128 243.44 44.5608 243.848 45.8808 244.664C47.2248 245.456 48.2568 246.596 48.9768 248.084C49.7208 249.572 50.0928 251.288 50.0928 253.232C50.0928 256.112 49.4568 258.728 48.1848 261.08C46.9368 263.408 45.1848 265.316 42.9288 266.804C40.6728 268.268 38.0928 269.168 35.1888 269.504L34.5048 266.048ZM41.2368 256.868C42.4848 256.868 43.4808 256.412 44.2248 255.5C44.9928 254.588 45.3768 253.376 45.3768 251.864C45.3768 250.424 44.9928 249.272 44.2248 248.408C43.4808 247.544 42.4848 247.112 41.2368 247.112C40.0128 247.112 39.0288 247.544 38.2848 248.408C37.5648 249.272 37.2048 250.424 37.2048 251.864C37.2048 253.376 37.5648 254.588 38.2848 255.5C39.0288 256.412 40.0128 256.868 41.2368 256.868ZM61.2733 269.36C59.4493 269.36 57.8053 269.012 56.3413 268.316C54.9013 267.62 53.8213 266.672 53.1013 265.472L55.3333 262.952C56.0053 263.768 56.8693 264.428 57.9253 264.932C58.9813 265.436 60.0373 265.688 61.0933 265.688C62.4133 265.688 63.4813 265.316 64.2973 264.572C65.1133 263.804 65.5213 262.82 65.5213 261.62C65.5213 260.3 65.0293 259.28 64.0453 258.56C63.0613 257.84 61.7053 257.48 59.9773 257.48L58.1053 257.48L58.1053 254.132L59.9413 254.132C61.3333 254.132 62.4613 253.76 63.3253 253.016C64.2133 252.272 64.6573 251.312 64.6573 250.136C64.6573 249.176 64.3333 248.432 63.6853 247.904C63.0613 247.376 62.1493 247.112 60.9493 247.112C59.8453 247.112 58.8013 247.352 57.8173 247.832C56.8333 248.288 55.9933 248.948 55.2973 249.812L53.1733 247.292C54.0133 246.092 55.1653 245.156 56.6293 244.484C58.1173 243.788 59.7373 243.44 61.4893 243.44C63.0253 243.44 64.3693 243.704 65.5213 244.232C66.6973 244.736 67.5973 245.456 68.2213 246.392C68.8693 247.328 69.1933 248.42 69.1933 249.668C69.1933 250.988 68.8213 252.164 68.0773 253.196C67.3333 254.228 66.2773 255.032 64.9093 255.608C66.6133 256.136 67.8973 256.928 68.7613 257.984C69.6493 259.04 70.0933 260.348 70.0933 261.908C70.0933 263.372 69.7213 264.668 68.9773 265.796C68.2573 266.924 67.2253 267.8 65.8813 268.424C64.5613 269.048 63.0253 269.36 61.2733 269.36ZM76.5938 269.36C75.7778 269.36 75.1058 269.096 74.5778 268.568C74.0738 268.016 73.8218 267.32 73.8218 266.48C73.8218 265.664 74.0738 264.992 74.5778 264.464C75.1058 263.936 75.7778 263.672 76.5938 263.672C77.4098 263.672 78.0698 263.936 78.5738 264.464C79.1018 264.968 79.3658 265.64 79.3658 266.48C79.3658 267.32 79.1018 268.016 78.5738 268.568C78.0698 269.096 77.4098 269.36 76.5938 269.36ZM91.6894 269.36C88.7854 269.36 86.5534 268.256 84.9934 266.048C83.4574 263.84 82.6894 260.624 82.6894 256.4C82.6894 252.176 83.4574 248.96 84.9934 246.752C86.5534 244.544 88.7854 243.44 91.6894 243.44C94.6174 243.44 96.8494 244.544 98.3854 246.752C99.9214 248.96 100.689 252.176 100.689 256.4C100.689 260.624 99.9214 263.84 98.3854 266.048C96.8494 268.256 94.6174 269.36 91.6894 269.36ZM91.6894 266.012C94.6654 266.012 96.1534 262.808 96.1534 256.4C96.1534 249.968 94.6654 246.752 91.6894 246.752C88.7374 246.752 87.2614 249.968 87.2614 256.4C87.2614 262.808 88.7374 266.012 91.6894 266.012ZM108.09 269C108.21 264.608 108.762 260.696 109.746 257.264C110.73 253.808 112.422 250.532 114.822 247.436L103.482 247.436L103.482 243.8L120.258 243.8L120.258 246.932C117.786 249.548 115.902 252.764 114.606 256.58C113.31 260.396 112.662 264.536 112.662 269L108.09 269ZM129.638 258.092C127.79 258.092 126.302 257.42 125.174 256.076C124.046 254.732 123.482 252.968 123.482 250.784C123.482 248.576 124.046 246.8 125.174 245.456C126.302 244.112 127.79 243.44 129.638 243.44C130.838 243.44 131.906 243.752 132.842 244.376C133.778 244.976 134.498 245.84 135.002 246.968C135.53 248.072 135.794 249.344 135.794 250.784C135.794 252.224 135.53 253.496 135.002 254.6C134.498 255.704 133.778 256.568 132.842 257.192C131.906 257.792 130.838 258.092 129.638 258.092ZM144.254 243.8L148.898 243.8L133.454 269.468L128.846 269.468L144.254 243.8ZM129.638 254.96C130.358 254.96 130.934 254.576 131.366 253.808C131.798 253.04 132.014 252.032 132.014 250.784C132.014 249.536 131.798 248.528 131.366 247.76C130.934 246.992 130.358 246.608 129.638 246.608C128.894 246.608 128.306 246.992 127.874 247.76C127.442 248.528 127.226 249.536 127.226 250.784C127.226 252.032 127.442 253.04 127.874 253.808C128.306 254.576 128.894 254.96 129.638 254.96ZM148.25 269.36C147.05 269.36 145.982 269.048 145.046 268.424C144.11 267.8 143.378 266.936 142.85 265.832C142.346 264.704 142.094 263.42 142.094 261.98C142.094 260.54 142.346 259.268 142.85 258.164C143.378 257.06 144.11 256.208 145.046 255.608C145.982 254.984 147.05 254.672 148.25 254.672C149.45 254.672 150.518 254.984 151.454 255.608C152.39 256.208 153.11 257.06 153.614 258.164C154.142 259.268 154.406 260.54 154.406 261.98C154.406 263.42 154.142 264.704 153.614 265.832C153.11 266.936 152.39 267.8 151.454 268.424C150.518 269.048 149.45 269.36 148.25 269.36ZM148.25 266.156C148.994 266.156 149.582 265.772 150.014 265.004C150.446 264.236 150.662 263.228 150.662 261.98C150.662 260.732 150.446 259.724 150.014 258.956C149.582 258.188 148.994 257.804 148.25 257.804C147.506 257.804 146.918 258.188 146.486 258.956C146.054 259.724 145.838 260.732 145.838 261.98C145.838 263.228 146.054 264.236 146.486 265.004C146.918 265.772 147.506 266.156 148.25 266.156Z" fill="#121212"/>
</svg>
