<svg width="277" height="213" viewBox="0 0 277 213" fill="none" xmlns="http://www.w3.org/2000/svg">
<path d="M143.93 28.6692V56.0091L179.507 64.3337V18.1961L143.93 9.87158V28.6692Z" fill="#EDEEEF"/>
<path d="M164.027 38.1285C163.502 38.1285 163.076 37.7231 163.076 37.223C163.076 36.7228 163.502 36.3174 164.027 36.3174C164.553 36.3174 164.979 36.7228 164.979 37.223C164.979 37.7231 164.553 38.1285 164.027 38.1285Z" fill="#121212"/>
<path d="M149.417 38.1285C148.892 38.1285 148.466 37.7231 148.466 37.223C148.466 36.7228 148.892 36.3174 149.417 36.3174C149.942 36.3174 150.368 36.7228 150.368 37.223C150.368 37.7231 149.942 38.1285 149.417 38.1285Z" fill="#121212"/>
<path d="M153.703 42.6248V28.6694H146.359" stroke="#121212" stroke-width="1.5" stroke-linecap="round" stroke-linejoin="round"/>
<path d="M165.819 28.6696H158.475" stroke="#121212" stroke-width="1.5" stroke-linecap="round" stroke-linejoin="round"/>
<path d="M177.164 35.8199V40.6662C179.91 40.6662 182.136 38.547 182.136 35.9328C182.136 35.7876 182.129 35.644 182.115 35.502C181.837 32.5627 177.164 32.8687 177.164 35.8199Z" fill="#EDEEEF"/>
<path d="M177.164 40.6663C179.91 40.6663 182.136 38.5471 182.136 35.9329" stroke="#121212" stroke-width="1.5" stroke-linecap="round" stroke-linejoin="round"/>
<path d="M156.915 46.0655C159.695 46.0655 161.948 43.9206 161.948 41.2747" stroke="#FF83A8" stroke-width="1.5" stroke-linecap="round" stroke-linejoin="round"/>
<path d="M143.93 56.0093L179.507 64.3336" stroke="#121212" stroke-width="1.5" stroke-linecap="round" stroke-linejoin="round"/>
<path d="M153.703 42.6362L156.915 43.3878" stroke="#121212" stroke-width="1.5" stroke-linecap="round" stroke-linejoin="round"/>
<path d="M176.328 28.6695C176.328 28.6695 160.138 26.5394 156.915 20.6334L155.309 25.422C155.309 25.422 148.788 23.5065 146.359 19.1968L143.93 25.7412" stroke="#121212" stroke-width="1.5" stroke-linecap="round" stroke-linejoin="round"/>
<path d="M143.931 31.8069C143.931 31.8069 123.735 1 160.129 5.83798L155.309 1C155.309 1 166.603 2.75583 172.639 8.98106C172.639 8.98106 196.489 13.4037 181.378 34.0182" stroke="#121212" stroke-width="1.5" stroke-linecap="round" stroke-linejoin="round"/>
<path d="M106.692 113.291V187.249L216.746 213V130.631C216.746 101.425 195.801 75.9918 166.008 69.0209H166.008C151.721 65.6778 136.612 68.7728 125.033 77.4144C113.455 86.0561 106.692 99.2851 106.692 113.291V113.291Z" fill="#EDEEEF"/>
<path d="M124.899 77.5174C124.899 77.5174 112.199 84.8792 86.0819 122.232C86.0819 122.232 35.8753 69.2908 24.2501 67.6815C12.6249 66.0723 0.999761 67.6815 0.999761 67.6815V73.7341L9.49508 76.7137C9.49508 76.7137 3.23537 89.4834 17.0961 94.5912C17.0961 94.5912 61.4524 249.061 128.968 177.976" stroke="#121212" stroke-width="1.5" stroke-linecap="round" stroke-linejoin="round"/>
<path d="M196.273 84.8792C196.273 84.8792 262.566 128.644 275.086 172.486C287.605 216.329 167.439 190.79 165.819 189.087C164.2 187.384 156.915 169.797 156.915 169.797L148.466 165.25V157.588L225.232 158.44" stroke="#121212" stroke-width="1.5" stroke-linecap="round" stroke-linejoin="round"/>
<path d="M216.746 202.441C210.118 205.039 203.015 206.36 195.848 206.326C172.057 206.326 152.77 192.509 152.77 175.466C152.775 173.004 153.182 170.558 153.977 168.216L156.915 169.797C156.915 169.797 164.2 187.384 165.819 189.087C166.544 189.849 191.038 195.39 216.746 197.341V202.441Z" fill="#121212"/>
</svg>
