<svg width="241" height="277" viewBox="0 0 241 277" fill="none" xmlns="http://www.w3.org/2000/svg">
<path d="M118.562 31.483V47.2005C118.562 59.3539 127.132 69.9371 139.323 72.8378L165.158 78.9853V17.533L143.676 12.4215C137.627 10.9821 131.23 12.3147 126.328 16.0355C121.425 19.7563 118.562 25.4523 118.562 31.483V31.483Z" fill="#EDEEEF"/>
<path d="M118.562 47.2004C118.562 59.3538 127.132 69.937 139.323 72.8377L165.158 78.9852" stroke="#121212" stroke-width="1.5" stroke-linecap="round" stroke-linejoin="round"/>
<path d="M144.884 44.0818C145.572 44.0818 146.129 43.5417 146.129 42.8756C146.129 42.2095 145.572 41.6694 144.884 41.6694C144.195 41.6694 143.638 42.2095 143.638 42.8756C143.638 43.5417 144.195 44.0818 144.884 44.0818Z" fill="#FF83A8"/>
<path d="M125.748 44.0818C126.436 44.0818 126.993 43.5417 126.993 42.8756C126.993 42.2095 126.436 41.6694 125.748 41.6694C125.06 41.6694 124.502 42.2095 124.502 42.8756C124.502 43.5417 125.06 44.0818 125.748 44.0818Z" fill="#FF83A8"/>
<path d="M131.361 50.0711V31.4834H121.743" stroke="#121212" stroke-width="1.5" stroke-linecap="round" stroke-linejoin="round"/>
<path d="M147.231 31.4831H137.612" stroke="#121212" stroke-width="1.5" stroke-linecap="round" stroke-linejoin="round"/>
<path d="M162.089 41.0069V47.4619C165.685 47.4619 168.601 44.6392 168.601 41.1573C168.601 40.9638 168.592 40.7726 168.574 40.5834C168.21 36.6684 162.089 37.076 162.089 41.0069Z" fill="#EDEEEF"/>
<path d="M162.089 47.4621C165.685 47.4621 168.601 44.6394 168.601 41.1575" stroke="#121212" stroke-width="1.5" stroke-linecap="round" stroke-linejoin="round"/>
<path d="M136.621 52.2429C137.43 53.0258 138.526 53.4657 139.67 53.4657C140.814 53.4657 141.911 53.0258 142.719 52.2429" stroke="#121212" stroke-width="1.5" stroke-linecap="round" stroke-linejoin="round"/>
<path d="M131.362 50.0857L135.569 51.0867" stroke="#121212" stroke-width="1.5" stroke-linecap="round" stroke-linejoin="round"/>
<path d="M75.1592 144.194V242.701L219.302 277V167.29C219.302 128.389 191.87 94.5135 152.849 85.2286H152.849C134.136 80.7759 114.347 84.8982 99.1824 96.4083C84.0173 107.918 75.1592 125.539 75.1592 144.194V144.194Z" fill="#EDEEEF"/>
<path d="M118.562 42.8757C118.562 42.8757 105.277 31.8969 110.84 17.7232C116.054 4.43976 143.649 -4.49552 159.146 4.87359C161.332 6.18338 163.638 7.29269 166.037 8.18708C175.971 11.9351 201.119 26.6186 199.708 78.9853C197.951 144.153 156.811 111.553 160.618 96.8126C164.424 82.0719 167.063 69.7408 165.158 56.9844" stroke="#121212" stroke-width="1.5" stroke-linecap="round" stroke-linejoin="round"/>
<path d="M162.96 113.716C162.96 113.716 167.792 121.654 179.504 122.504" stroke="#121212" stroke-width="1.5" stroke-linecap="round" stroke-linejoin="round"/>
<path d="M162.814 121.531C162.814 121.531 132.776 128.187 130.955 159.703C130.505 167.166 128.436 174.453 124.883 181.09C119.909 190.424 114.746 204.702 120.019 217.758C128.808 239.517 182.184 176.605 176.189 131.549" stroke="#121212" stroke-width="1.5" stroke-linecap="round" stroke-linejoin="round"/>
<path d="M206.033 122.504C206.033 122.504 259.001 203.399 232.648 254.424C206.296 305.45 63.4056 252.156 84.4878 202.832C84.4878 202.832 71.6043 192.06 78.6316 189.792C85.659 187.524 118.462 198.822 118.462 198.822" stroke="#121212" stroke-width="1.5" stroke-linecap="round" stroke-linejoin="round"/>
<path d="M149.516 205.011L210.395 222.2" stroke="#121212" stroke-width="1.5" stroke-linecap="round" stroke-linejoin="round"/>
<path d="M100.058 95.7622C100.058 95.7622 65.4055 114.143 67.505 187.524C67.505 187.524 61.6489 124.026 39.3955 107.018C17.1421 90.0092 -0.636946 99.7712 1.1199 102.039C2.87675 104.307 17.1421 108.719 17.1421 108.719C17.1421 108.719 6.60104 117.223 17.7277 129.129C17.7277 129.129 4.23279 277.328 67.9953 266.749" stroke="#121212" stroke-width="1.5" stroke-linecap="round" stroke-linejoin="round"/>
</svg>
