<svg width="308" height="298" viewBox="0 0 308 298" fill="none" xmlns="http://www.w3.org/2000/svg">
<path d="M288.665 120.348L216.105 116.077C210.628 144.144 234.473 228.748 234.473 228.748L291.403 185.634C264.022 141.703 288.665 120.348 288.665 120.348Z" fill="#FF83A8"/>
<path d="M129.297 33.7767V72.9664L74.8301 84.8981V18.7635L129.297 6.83179V33.7767Z" fill="#EDEEEF"/>
<path d="M98.5291 47.3354C99.3334 47.3354 99.9854 46.7542 99.9854 46.0373C99.9854 45.3204 99.3334 44.7393 98.5291 44.7393C97.7248 44.7393 97.0728 45.3204 97.0728 46.0373C97.0728 46.7542 97.7248 47.3354 98.5291 47.3354Z" fill="#121212"/>
<path d="M120.897 47.3354C121.702 47.3354 122.354 46.7542 122.354 46.0373C122.354 45.3204 121.702 44.7393 120.897 44.7393C120.093 44.7393 119.441 45.3204 119.441 46.0373C119.441 46.7542 120.093 47.3354 120.897 47.3354Z" fill="#121212"/>
<path d="M114.335 53.7805V33.7766H125.578" stroke="#121212" stroke-width="1.5" stroke-linecap="round" stroke-linejoin="round"/>
<path d="M95.7856 33.7767H107.029" stroke="#121212" stroke-width="1.5" stroke-linecap="round" stroke-linejoin="round"/>
<path d="M78.4174 44.0262V50.973C74.2133 50.973 70.8052 47.9352 70.8052 44.188C70.8052 43.9798 70.8155 43.7739 70.8363 43.5704C71.2628 39.3571 78.4174 39.7958 78.4174 44.0262Z" fill="#EDEEEF"/>
<path d="M78.4174 50.9732C74.2133 50.9732 70.8052 47.9355 70.8052 44.1882" stroke="#121212" stroke-width="1.5" stroke-linecap="round" stroke-linejoin="round"/>
<path d="M109.417 58.7122C107.374 58.7122 105.414 57.9887 103.969 56.7009C102.525 55.413 101.713 53.6663 101.713 51.845" stroke="#FF83A8" stroke-width="1.5" stroke-linecap="round" stroke-linejoin="round"/>
<path d="M129.297 72.9658L74.8301 84.8981" stroke="#121212" stroke-width="1.5" stroke-linecap="round" stroke-linejoin="round"/>
<path d="M114.335 53.7966L109.417 54.8739" stroke="#121212" stroke-width="1.5" stroke-linecap="round" stroke-linejoin="round"/>
<path d="M80.396 42.0972C80.396 42.0972 106.066 31.7247 113.596 22.8776V28.9791C113.596 28.9791 127.458 24.403 130.88 19.0642" stroke="#121212" stroke-width="1.5" stroke-linecap="round" stroke-linejoin="round"/>
<path d="M129.297 29.7417C129.297 29.7417 141.32 25.1656 138.068 15.2507C134.817 5.33585 109.417 -2.29096 90.4934 2.43766C90.4934 2.43766 34.8662 12.1237 74.8302 63.8335" stroke="#121212" stroke-width="1.5" stroke-linecap="round" stroke-linejoin="round"/>
<path d="M189.81 155.076V261.088L21.3203 298V179.931C21.3203 138.066 53.3858 101.61 98.9975 91.6173H98.9976C120.871 86.8253 144.003 91.2617 161.729 103.649C179.456 116.036 189.81 134.999 189.81 155.076V155.076Z" fill="#EDEEEF"/>
<path d="M63.6661 106.166C63.6661 106.166 -10.4752 144.144 2.5309 225.903C15.537 307.663 190.777 277.156 233.902 232.005L237.325 212.48C237.325 212.48 261.673 185.914 247.788 191.571C233.902 197.227 93.6463 206.379 93.6463 206.379L95.7854 177.702" stroke="#121212" stroke-width="1.5" stroke-linecap="round" stroke-linejoin="round"/>
<path d="M169.233 109.672C169.233 109.672 213.179 140.457 225.594 195.383" stroke="#121212" stroke-width="1.5" stroke-linecap="round" stroke-linejoin="round"/>
<path d="M197.414 276.975C197.414 276.975 264.706 291.494 294.141 223.463C318.814 166.438 299.617 139.263 290.718 137.432C281.82 135.602 279.081 146.585 279.081 146.585" stroke="#121212" stroke-width="1.5" stroke-linecap="round" stroke-linejoin="round"/>
</svg>
