<svg width="887" height="1117" viewBox="0 0 887 1117" fill="none" xmlns="http://www.w3.org/2000/svg">
<g filter="url(#filter0_d)">
<rect width="583.209" height="748.693" rx="98" transform="matrix(-0.847345 -0.531042 0.72966 -0.68381 550.317 995.571)" fill="#121212" fill-opacity="0.2"/>
</g>
<g filter="url(#filter1_d)">
<rect width="583.209" height="748.693" rx="98" transform="matrix(-0.847345 -0.531042 0.729659 -0.68381 648.359 1022.03)" fill="#121212" fill-opacity="0.5"/>
</g>
<g filter="url(#filter2_d)">
<rect width="583.209" height="748.693" rx="98" transform="matrix(-0.847345 -0.531042 0.729659 -0.683811 592.08 1012.71)" fill="#121212" fill-opacity="0.5"/>
</g>
<g filter="url(#filter3_d)">
<rect width="583.209" height="748.693" rx="98" transform="matrix(-0.847345 -0.531043 0.729659 -0.68381 707.638 1031.91)" fill="#121212" fill-opacity="0.9"/>
</g>
<path d="M730.583 250.356L700.485 213.956L685.564 487.345H730.583L723.934 476.596C724.36 434.675 730.583 250.356 730.583 250.356Z" fill="#E2E2E2"/>
<path d="M719.808 228.746L669.889 224.694L660.812 229.074L656.546 487.345H702.912L698.01 476.937L719.808 228.746Z" fill="#EDEEEF"/>
<path d="M702.912 487.345L698.01 476.937L719.808 228.746" stroke="black" stroke-width="1.5" stroke-linecap="round" stroke-linejoin="round"/>
<path d="M679.868 104.54V113.875C679.868 121.093 684.027 127.378 689.944 129.101L702.483 132.752V96.2547L692.057 93.2189C689.121 92.364 686.016 93.1554 683.637 95.3653C681.257 97.5751 679.868 100.958 679.868 104.54V104.54Z" fill="#EDEEEF"/>
<path d="M679.868 113.875C679.868 121.093 684.027 127.379 689.944 129.101L702.483 132.752" stroke="black" stroke-width="1.5" stroke-linecap="round" stroke-linejoin="round"/>
<path d="M692.643 112.023C692.977 112.023 693.247 111.702 693.247 111.306C693.247 110.911 692.977 110.59 692.643 110.59C692.309 110.59 692.038 110.911 692.038 111.306C692.038 111.702 692.309 112.023 692.643 112.023Z" fill="black"/>
<path d="M683.355 112.023C683.689 112.023 683.96 111.702 683.96 111.306C683.96 110.911 683.689 110.59 683.355 110.59C683.021 110.59 682.751 110.911 682.751 111.306C682.751 111.702 683.021 112.023 683.355 112.023Z" fill="black"/>
<path d="M686.08 115.58V104.54H681.412" stroke="black" stroke-width="1.5" stroke-linecap="round" stroke-linejoin="round"/>
<path d="M693.782 104.54H689.114" stroke="black" stroke-width="1.5" stroke-linecap="round" stroke-linejoin="round"/>
<path d="M700.993 110.196V114.03C702.739 114.03 704.154 112.354 704.154 110.286C704.154 110.171 704.15 110.057 704.141 109.945C703.964 107.62 700.993 107.862 700.993 110.196Z" fill="#EDEEEF"/>
<path d="M700.993 114.03C702.739 114.03 704.154 112.354 704.154 110.286" stroke="black" stroke-width="1.5" stroke-linecap="round" stroke-linejoin="round"/>
<path d="M688.632 116.87C689.025 117.335 689.557 117.596 690.112 117.596C690.667 117.596 691.2 117.335 691.592 116.87" stroke="#FF83A8" stroke-width="1.5" stroke-linecap="round" stroke-linejoin="round"/>
<path d="M686.08 115.588L688.122 116.183" stroke="black" stroke-width="1.5" stroke-linecap="round" stroke-linejoin="round"/>
<path d="M660.625 171.481V229.985L730.584 250.356V185.198C730.584 162.094 717.27 141.975 698.331 136.46H698.331C689.249 133.816 679.645 136.264 672.285 143.1C664.924 149.936 660.625 160.401 660.625 171.481V171.481Z" fill="#FF83A8"/>
<path d="M702.573 124.725C702.573 124.725 699.686 133.901 706.738 139.373C713.387 144.531 718.87 126.645 715.454 113.933C715.255 113.196 715.157 112.425 715.162 111.651C715.205 106.668 714.025 87.3219 693.247 86.0027C679.368 85.1214 667.956 97.1283 679.389 110.59" stroke="black" stroke-width="1.5" stroke-linecap="round" stroke-linejoin="round"/>
<path d="M679.868 104.54C679.868 104.54 684.285 105.448 686.416 98.377C686.416 98.377 693.116 109.404 700.993 107.721L701.554 108.749" stroke="black" stroke-width="1.5" stroke-linecap="round" stroke-linejoin="round"/>
<path d="M714.982 139.671C714.982 139.671 715.209 144.368 707.279 142.623" stroke="#FF83A8" stroke-width="1.5" stroke-linecap="round" stroke-linejoin="round"/>
<path d="M716.501 144.255C716.501 144.255 720.949 165.216 712.423 162.438C703.896 159.66 709.438 147.033 709.438 147.033" stroke="black" stroke-width="1.5" stroke-linecap="round" stroke-linejoin="round"/>
<path d="M628.42 119.334L644.801 115.588L592.788 85.9185L614.744 132.752L619.86 126.167L623.669 134.153L626.078 124.048" fill="#FF83A8"/>
<path d="M681.839 137.182C681.839 137.182 660.844 144.76 647.416 185.742C647.416 185.742 635.497 126.992 632.65 123.546C628.245 118.215 622.063 114.455 624.052 119.843C626.042 125.23 628.032 126.167 628.032 126.167C628.032 126.167 622.631 131.429 626.326 135.401" stroke="black" stroke-width="1.5" stroke-linecap="round" stroke-linejoin="round"/>
<path d="M620.619 115.58C620.073 114.96 612.541 134.827 622.063 146.107C622.063 146.107 605.01 302.681 688.122 208.4" stroke="black" stroke-width="1.5" stroke-linecap="round" stroke-linejoin="round"/>
<path d="M683.533 213.461C683.533 213.461 677.389 260.922 660.625 275.32V233.298C660.625 233.298 682.044 215.089 683.533 213.461Z" fill="black"/>
<path d="M723.767 157.9C723.767 157.9 760.682 217.996 730.584 280.626" stroke="black" stroke-width="1.5" stroke-linecap="round" stroke-linejoin="round"/>
<path d="M842.87 479.15C841.674 392.385 815.276 227.282 815.276 227.282L790.754 230.606L775.789 341.705L815.276 497.697L848.176 487.375L842.87 479.15Z" fill="#FF83A8"/>
<path d="M781.378 300.209L775.789 341.705L796.682 424.243C802.162 410.203 805.367 393.235 805.367 374.957C805.367 343.315 795.765 315.596 781.378 300.209Z" fill="black"/>
<path d="M805.367 225.979L758.687 221.723L750.199 226.324L746.21 497.697H789.567L784.983 486.761L805.367 225.979Z" fill="#FF83A8"/>
<path d="M770.62 95.4725V105.281C770.62 112.865 774.509 119.47 780.042 121.28L791.768 125.116V86.7671L782.018 83.5773C779.273 82.679 776.369 83.5106 774.144 85.8326C771.919 88.1545 770.62 91.7091 770.62 95.4725V95.4725Z" fill="#EDEEEF"/>
<path d="M770.62 105.281C770.62 112.865 774.509 119.47 780.042 121.28L791.768 125.116" stroke="black" stroke-width="1.5" stroke-linecap="round" stroke-linejoin="round"/>
<path d="M782.566 103.335C782.878 103.335 783.131 102.998 783.131 102.582C783.131 102.167 782.878 101.83 782.566 101.83C782.254 101.83 782 102.167 782 102.582C782 102.998 782.254 103.335 782.566 103.335Z" fill="black"/>
<path d="M773.881 103.335C774.193 103.335 774.447 102.998 774.447 102.582C774.447 102.167 774.193 101.83 773.881 101.83C773.569 101.83 773.316 102.167 773.316 102.582C773.316 102.998 773.569 103.335 773.881 103.335Z" fill="black"/>
<path d="M776.429 107.072V95.4727H772.064" stroke="black" stroke-width="1.5" stroke-linecap="round" stroke-linejoin="round"/>
<path d="M783.631 95.4729H779.266" stroke="black" stroke-width="1.5" stroke-linecap="round" stroke-linejoin="round"/>
<path d="M790.375 101.416V105.444C792.007 105.444 793.33 103.683 793.33 101.51C793.33 101.389 793.326 101.27 793.318 101.152C793.153 98.7088 790.375 98.9632 790.375 101.416Z" fill="#EDEEEF"/>
<path d="M790.375 105.444C792.007 105.444 793.33 103.683 793.33 101.51" stroke="black" stroke-width="1.5" stroke-linecap="round" stroke-linejoin="round"/>
<path d="M778.816 108.428C779.183 108.916 779.681 109.191 780.2 109.191C780.719 109.191 781.217 108.916 781.584 108.428" stroke="#FF83A8" stroke-width="1.5" stroke-linecap="round" stroke-linejoin="round"/>
<path d="M776.429 107.082L778.338 107.706" stroke="black" stroke-width="1.5" stroke-linecap="round" stroke-linejoin="round"/>
<path d="M815.276 165.81V227.282L749.856 248.686V180.222C749.856 155.946 762.306 134.807 780.016 129.012H780.016C788.509 126.234 797.49 128.806 804.373 135.989C811.255 143.172 815.276 154.168 815.276 165.81Z" fill="#EDEEEF"/>
<path d="M770.62 101.51C770.62 101.51 758.688 81.7439 774.447 77.2329C790.205 72.722 793.993 75.5082 795.587 80.2845C797.182 85.0608 799.708 107.35 791.767 110.534" stroke="black" stroke-width="1.5" stroke-linecap="round" stroke-linejoin="round"/>
<path d="M771.384 95.4728C776.207 94.9804 780.701 92.0265 783.926 87.228C783.926 87.228 785.189 97.3113 789.707 98.1074L790.375 99.788" stroke="black" stroke-width="1.5" stroke-linecap="round" stroke-linejoin="round"/>
<path d="M785.122 73.9163C785.122 73.9163 784.624 66.6191 792.398 66.7518C800.172 66.8845 808.521 80.6554 797.27 92.7425" stroke="black" stroke-width="1.5" stroke-linecap="round" stroke-linejoin="round"/>
<path d="M784.983 486.761L805.367 225.979" stroke="black" stroke-width="1.5" stroke-linecap="round" stroke-linejoin="round"/>
<path d="M769.178 134.927C769.178 134.927 733.766 158.961 725.394 207.255C717.022 255.549 762.072 299.597 762.072 299.597L773.881 277.838L755.294 224.237L777.384 184.966" stroke="black" stroke-width="1.5" stroke-linecap="round" stroke-linejoin="round"/>
<path d="M762.072 299.597L781.001 264.721" stroke="black" stroke-width="1.5" stroke-linecap="round" stroke-linejoin="round"/>
<path d="M805.367 137.078C806.749 138.763 826.258 160.553 827.853 202.479L836.225 159.492C836.225 159.492 830.245 147.816 836.225 146.224C836.225 146.224 835.029 127.345 843.401 134.927C851.773 142.509 868.3 246.794 818.974 251.437" stroke="black" stroke-width="1.5" stroke-linecap="round" stroke-linejoin="round"/>
<path d="M402.299 242.286L440.534 246.372L432.979 312.827L528.721 345.569L522.312 392.067L514.881 385.667C336.721 400.52 402.299 242.286 402.299 242.286Z" fill="#E2E2E2"/>
<path d="M418.952 246.866L470.929 237.346V308.085V482.551H430.176L434.359 472.834L418.952 246.866Z" fill="#EDEEEF"/>
<path d="M470.929 308.085V482.551H430.176" stroke="#121212" stroke-width="1.5" stroke-linecap="round" stroke-linejoin="round"/>
<path d="M434.359 472.834L418.952 246.866" stroke="#121212" stroke-width="1.5" stroke-linecap="round" stroke-linejoin="round"/>
<path d="M446.629 125.173V133.888C446.629 140.627 442.548 146.495 436.744 148.103L424.443 151.511V117.438L434.671 114.604C437.551 113.806 440.597 114.545 442.931 116.608C445.265 118.671 446.629 121.829 446.629 125.173V125.173Z" fill="#EDEEEF"/>
<path d="M446.629 133.888C446.629 140.626 442.548 146.494 436.744 148.103L424.443 151.511" stroke="#121212" stroke-width="1.5" stroke-linecap="round" stroke-linejoin="round"/>
<path d="M434.096 132.159C433.769 132.159 433.503 131.859 433.503 131.49C433.503 131.121 433.769 130.821 434.096 130.821C434.424 130.821 434.69 131.121 434.69 131.49C434.69 131.859 434.424 132.159 434.096 132.159Z" fill="#121212"/>
<path d="M443.207 132.159C442.88 132.159 442.614 131.859 442.614 131.49C442.614 131.121 442.88 130.821 443.207 130.821C443.535 130.821 443.801 131.121 443.801 131.49C443.801 131.859 443.535 132.159 443.207 132.159Z" fill="#121212"/>
<path d="M440.534 135.479V125.173H445.114" stroke="#121212" stroke-width="1.5" stroke-linecap="round" stroke-linejoin="round"/>
<path d="M432.979 125.173H437.559" stroke="#121212" stroke-width="1.5" stroke-linecap="round" stroke-linejoin="round"/>
<path d="M425.904 130.454V134.033C424.192 134.033 422.804 132.468 422.804 130.537C422.804 130.43 422.808 130.324 422.816 130.219C422.99 128.048 425.904 128.274 425.904 130.454Z" fill="#EDEEEF"/>
<path d="M425.904 134.033C424.192 134.033 422.804 132.468 422.804 130.538" stroke="#121212" stroke-width="1.5" stroke-linecap="round" stroke-linejoin="round"/>
<path d="M438.03 136.684C437.645 137.118 437.123 137.362 436.578 137.362C436.034 137.362 435.512 137.118 435.127 136.684" stroke="#FF83A8" stroke-width="1.5" stroke-linecap="round" stroke-linejoin="round"/>
<path d="M440.534 135.487L438.531 136.042" stroke="#121212" stroke-width="1.5" stroke-linecap="round" stroke-linejoin="round"/>
<path d="M447.324 122.185C447.324 122.185 441.675 122.893 439.533 117.824C439.533 117.824 436.868 122.9 429.026 123.486C429.026 123.486 428.695 128.851 425.904 130.454" stroke="#121212" stroke-width="1.5" stroke-linecap="round" stroke-linejoin="round"/>
<path d="M447.324 128.701C447.324 128.701 457.501 123.398 450.67 114.285C443.838 105.171 421.079 100.613 415.677 117.824C410.442 134.504 424.354 141.008 424.354 141.008" stroke="#121212" stroke-width="1.5" stroke-linecap="round" stroke-linejoin="round"/>
<path d="M417.002 109.69C417.002 109.69 413.447 113.344 413.865 117.234" stroke="#FF83A8" stroke-width="1.5" stroke-linecap="round" stroke-linejoin="round"/>
<path d="M414.499 109.69L407.173 96.5264C407.173 96.5264 392.395 104.071 401.318 120.103L411.913 116.488" stroke="#121212" stroke-width="1.5" stroke-linecap="round" stroke-linejoin="round"/>
<path d="M402.299 187.667V242.286L470.929 261.303V200.473C470.929 178.904 457.868 160.121 439.289 154.973H439.289C430.38 152.504 420.958 154.79 413.737 161.172C406.517 167.554 402.299 177.323 402.299 187.667V187.667Z" fill="#FF83A8"/>
<path d="M461.634 170.943C461.634 170.943 502.949 213.939 496.815 246.867C490.681 279.794 464.75 294.569 464.75 294.569C464.75 294.569 454.991 283.252 452.482 271.621" stroke="#121212" stroke-width="1.5" stroke-linecap="round" stroke-linejoin="round"/>
<path d="M444.94 207.644L465.866 244.901L455.177 279.499" stroke="#121212" stroke-width="1.5" stroke-linecap="round" stroke-linejoin="round"/>
<path d="M449.576 215.897L465.866 244.901L458.118 269.977C463.754 248.216 449.578 215.902 449.576 215.897Z" fill="#121212"/>
<path d="M406.477 170.466L384.021 215.898C384.021 215.898 372.042 181.245 345.902 173.936L344.647 178.651L346.947 181.48C346.947 181.48 344.438 191.383 349.666 194.447C349.666 194.447 363.549 278.852 400 248.556" stroke="#121212" stroke-width="1.5" stroke-linecap="round" stroke-linejoin="round"/>
<path d="M483.098 467.024C479.901 353.744 519.856 254.962 519.856 254.962L544.022 241.165L552.26 375.916L512.686 486.574L475.374 474.389L483.098 467.024Z" fill="#FF83A8"/>
<path d="M546.437 280.663L552.26 375.917L530.714 436.166C520.256 418.514 513.817 394.463 513.817 367.951C513.817 329.91 527.068 296.929 546.437 280.663Z" fill="#121212"/>
<path d="M531.233 238.291C531.233 238.291 522.626 400.933 546.936 477.937L541.858 486.575H585.095C585.095 486.575 589.819 279.704 589.819 235.054L531.233 238.291Z" fill="#FF83A8"/>
<path d="M545.591 112.453V133.59L568.208 140.026V104.356L545.591 97.9204V112.453Z" fill="#EDEEEF"/>
<path d="M558.367 119.766C558.033 119.766 557.763 119.453 557.763 119.066C557.763 118.68 558.033 118.366 558.367 118.366C558.701 118.366 558.972 118.68 558.972 119.066C558.972 119.453 558.701 119.766 558.367 119.766Z" fill="#121212"/>
<path d="M549.079 119.766C548.745 119.766 548.474 119.453 548.474 119.066C548.474 118.68 548.745 118.366 549.079 118.366C549.413 118.366 549.684 118.68 549.684 119.066C549.684 119.453 549.413 119.766 549.079 119.766Z" fill="#121212"/>
<path d="M551.804 123.243V112.453H547.136" stroke="#121212" stroke-width="1.5" stroke-linecap="round" stroke-linejoin="round"/>
<path d="M559.506 112.454H554.838" stroke="#121212" stroke-width="1.5" stroke-linecap="round" stroke-linejoin="round"/>
<path d="M566.718 117.982V121.729C568.464 121.729 569.879 120.09 569.879 118.069C569.879 117.957 569.875 117.846 569.866 117.736C569.689 115.464 566.718 115.7 566.718 117.982Z" fill="#EDEEEF"/>
<path d="M566.718 121.728C568.464 121.728 569.879 120.09 569.879 118.069" stroke="#121212" stroke-width="1.5" stroke-linecap="round" stroke-linejoin="round"/>
<path d="M551.804 123.251L553.846 123.832" stroke="#121212" stroke-width="1.5" stroke-linecap="round" stroke-linejoin="round"/>
<path d="M589.819 177.876V235.054L519.856 254.962V191.282C519.856 168.702 533.171 149.039 552.11 143.65H552.11C561.193 141.065 570.798 143.458 578.159 150.139C585.52 156.82 589.819 167.047 589.819 177.876V177.876Z" fill="#EDEEEF"/>
<path d="M531.233 238.291C531.233 238.291 522.626 400.932 546.936 477.937" stroke="#121212" stroke-width="1.5" stroke-linecap="round" stroke-linejoin="round"/>
<path d="M568.299 122.548C568.299 122.548 573.097 148.14 556.9 151.342C540.67 154.551 537.513 139.144 543.015 126.616C544.266 123.786 544.921 120.653 544.928 117.474V117.365" stroke="#121212" stroke-width="1.5" stroke-linecap="round" stroke-linejoin="round"/>
<path d="M559.263 125.259C559.263 125.259 555.142 122.192 553.259 124.496C553.259 124.496 551.624 122.028 548.107 125.03" stroke="#121212" stroke-width="1.5" stroke-linecap="round" stroke-linejoin="round"/>
<path d="M554.78 127.111C555.664 127.111 556.38 126.282 556.38 125.259" stroke="#FF83A8" stroke-width="1.5" stroke-linecap="round" stroke-linejoin="round"/>
<path d="M563.972 117.365C563.972 117.365 565.393 109.221 560.419 107.411L561.059 110.687C561.059 110.687 553.029 110.208 550.328 106.588V109.714C550.328 109.714 545.638 109.55 544.572 106.588" stroke="#121212" stroke-width="1.5" stroke-linecap="round" stroke-linejoin="round"/>
<path d="M569.515 116.146C569.515 116.146 575.626 103.461 565.393 99.0187C555.161 94.5761 529.2 94.7406 545.591 113.992" stroke="#121212" stroke-width="1.5" stroke-linecap="round" stroke-linejoin="round"/>
<path d="M569.879 144.783C569.879 144.783 620.323 168.866 617.481 223.165C614.638 277.463 543.63 240.606 538.345 220.861C538.345 220.861 535.309 195.802 540.296 198.788C545.283 201.774 546.936 210.66 546.936 210.66L589.819 214.938" stroke="#121212" stroke-width="1.5" stroke-linecap="round" stroke-linejoin="round"/>
<path d="M536.099 152.664C536.099 152.664 497.652 180.457 494.617 217.199C491.581 253.941 526.396 262.344 538.345 222.726" stroke="#121212" stroke-width="1.5" stroke-linecap="round" stroke-linejoin="round"/>
<path d="M537.43 202.017C536.377 201.378 533.581 188.97 529.754 212.235L508.78 217.199" stroke="#121212" stroke-width="1.5" stroke-linecap="round" stroke-linejoin="round"/>
<defs>
<filter id="filter0_d" x="97.0969" y="208.102" width="958.551" height="761.266" filterUnits="userSpaceOnUse" color-interpolation-filters="sRGB">
<feFlood flood-opacity="0" result="BackgroundImageFix"/>
<feColorMatrix in="SourceAlpha" type="matrix" values="0 0 0 0 0 0 0 0 0 0 0 0 0 0 0 0 0 0 127 0"/>
<feOffset dy="4"/>
<feGaussianBlur stdDeviation="2"/>
<feColorMatrix type="matrix" values="0 0 0 0 0 0 0 0 0 0 0 0 0 0 0 0 0 0 0.25 0"/>
<feBlend mode="normal" in2="BackgroundImageFix" result="effect1_dropShadow"/>
<feBlend mode="normal" in="SourceGraphic" in2="effect1_dropShadow" result="shape"/>
</filter>
<filter id="filter1_d" x="195.139" y="234.562" width="958.551" height="761.266" filterUnits="userSpaceOnUse" color-interpolation-filters="sRGB">
<feFlood flood-opacity="0" result="BackgroundImageFix"/>
<feColorMatrix in="SourceAlpha" type="matrix" values="0 0 0 0 0 0 0 0 0 0 0 0 0 0 0 0 0 0 127 0"/>
<feOffset dy="4"/>
<feGaussianBlur stdDeviation="2"/>
<feColorMatrix type="matrix" values="0 0 0 0 0 0 0 0 0 0 0 0 0 0 0 0 0 0 0.25 0"/>
<feBlend mode="normal" in2="BackgroundImageFix" result="effect1_dropShadow"/>
<feBlend mode="normal" in="SourceGraphic" in2="effect1_dropShadow" result="shape"/>
</filter>
<filter id="filter2_d" x="138.86" y="225.239" width="958.551" height="761.266" filterUnits="userSpaceOnUse" color-interpolation-filters="sRGB">
<feFlood flood-opacity="0" result="BackgroundImageFix"/>
<feColorMatrix in="SourceAlpha" type="matrix" values="0 0 0 0 0 0 0 0 0 0 0 0 0 0 0 0 0 0 127 0"/>
<feOffset dy="4"/>
<feGaussianBlur stdDeviation="2"/>
<feColorMatrix type="matrix" values="0 0 0 0 0 0 0 0 0 0 0 0 0 0 0 0 0 0 0.25 0"/>
<feBlend mode="normal" in2="BackgroundImageFix" result="effect1_dropShadow"/>
<feBlend mode="normal" in="SourceGraphic" in2="effect1_dropShadow" result="shape"/>
</filter>
<filter id="filter3_d" x="254.419" y="244.439" width="958.551" height="761.266" filterUnits="userSpaceOnUse" color-interpolation-filters="sRGB">
<feFlood flood-opacity="0" result="BackgroundImageFix"/>
<feColorMatrix in="SourceAlpha" type="matrix" values="0 0 0 0 0 0 0 0 0 0 0 0 0 0 0 0 0 0 127 0"/>
<feOffset dy="4"/>
<feGaussianBlur stdDeviation="2"/>
<feColorMatrix type="matrix" values="0 0 0 0 0 0 0 0 0 0 0 0 0 0 0 0 0 0 0.25 0"/>
<feBlend mode="normal" in2="BackgroundImageFix" result="effect1_dropShadow"/>
<feBlend mode="normal" in="SourceGraphic" in2="effect1_dropShadow" result="shape"/>
</filter>
</defs>
</svg>
