<svg width="643" height="847" viewBox="0 0 643 847" fill="none" xmlns="http://www.w3.org/2000/svg">
<path d="M403.01 258.097C358.871 271.053 347.341 328.186 383 357.247L418.94 386.536C449.239 411.229 431.841 460.293 392.755 460.381C353.158 460.47 337.101 511.397 369.485 534.183L526.812 644.877C552.162 662.713 584.262 668.019 614.003 659.288L691.241 636.616C744.294 621.043 778.406 569.506 772.012 514.585L763.129 438.295C759.26 405.067 740.931 375.238 713.036 356.775L551.353 249.76C527.987 234.294 498.988 229.923 472.102 237.816L403.01 258.097Z" fill="#FF83A8" fill-opacity="0.2" stroke="white"/>
<path d="M254.404 348.587C228.657 292.105 248.199 248.894 290.316 269.181L320.304 283.625C359.177 302.349 371.179 253.211 339.549 204.834C307.032 155.099 321.814 106.005 362.216 129.553L503.139 211.688C536.051 230.871 568.052 268.948 587.953 312.606L646.692 441.465C670.673 494.073 672.688 544.96 651.765 569.586L599.365 631.26C582.631 650.955 553.62 650.887 521.83 631.077L378.956 542.044C347.167 522.234 316.693 485.234 297.514 443.16L254.404 348.587Z" fill="#FF83A8" fill-opacity="0.2" stroke="white"/>
</svg>
