<svg width="486" height="618" viewBox="0 0 486 618" fill="none" xmlns="http://www.w3.org/2000/svg">
<path d="M318.79 429.935C284.21 432.476 254.706 405.207 254.521 370.534C254.304 330.029 215.331 301.025 176.469 312.448L162.463 316.565C112.104 331.368 63.6899 288.197 72.6477 236.478L75.3119 221.096C81.6232 184.657 111.927 157.191 148.81 154.481L290.404 144.078C314.582 142.301 338.693 148.313 359.206 161.232L468.75 230.22C506.858 254.221 525.251 299.976 514.356 343.675C503.46 387.374 465.74 419.139 420.824 422.439L318.79 429.935Z" fill="#FF83A8" fill-opacity="0.5" stroke="white"/>
<path d="M190.068 445.671C215.643 472.127 252.262 471.161 270.407 443.552C291.554 411.373 336.193 415.599 360.697 452.101L370.842 467.214C403.536 515.916 464.386 515.198 484.64 465.871L488.667 456.064C502.67 421.959 493.136 377.77 465.638 349.325L356.632 236.565C339.419 218.759 318.582 206.878 296.982 202.556L170.331 177.208C129.217 168.98 91.9084 192.211 78.1062 234.633C64.304 277.055 77.1863 328.901 109.951 362.794L190.068 445.671Z" fill="#FF83A8" fill-opacity="0.5" stroke="white"/>
</svg>
