<svg width="394" height="423" viewBox="0 0 394 423" fill="none" xmlns="http://www.w3.org/2000/svg">
<path d="M126.633 392.148C123.084 275.561 167.429 173.895 167.429 173.895L194.25 159.695L203.392 298.381L159.471 412.27L118.06 399.728L126.633 392.148Z" fill="#FF83A8"/>
<path d="M196.929 200.346L203.392 298.38L179.479 360.389C167.872 342.222 160.726 317.469 160.726 290.183C160.726 251.031 175.433 217.087 196.929 200.346Z" fill="#121212"/>
<path d="M180.056 156.737C180.056 156.737 170.503 324.127 197.484 403.38L191.848 412.27H239.835C239.835 412.27 245.078 199.359 245.078 153.405L180.056 156.737Z" fill="#FF83A8"/>
<path d="M195.991 27.2251V48.979L221.092 55.6028V18.8918L195.991 12.2681V27.2251Z" fill="#EDEEEF"/>
<path d="M210.171 34.7519C209.8 34.7519 209.499 34.4293 209.499 34.0313C209.499 33.6334 209.8 33.3108 210.171 33.3108C210.541 33.3108 210.842 33.6334 210.842 34.0313C210.842 34.4293 210.541 34.7519 210.171 34.7519Z" fill="#121212"/>
<path d="M199.862 34.7519C199.492 34.7519 199.191 34.4293 199.191 34.0313C199.191 33.6334 199.492 33.3108 199.862 33.3108C200.233 33.3108 200.533 33.6334 200.533 34.0313C200.533 34.4293 200.233 34.7519 199.862 34.7519Z" fill="#121212"/>
<path d="M202.887 38.3297V27.2251H197.705" stroke="#121212" stroke-width="1.5" stroke-linecap="round" stroke-linejoin="round"/>
<path d="M211.435 27.2255H206.253" stroke="#121212" stroke-width="1.5" stroke-linecap="round" stroke-linejoin="round"/>
<path d="M219.439 32.9149V36.7711C221.377 36.7711 222.947 35.0849 222.947 33.0048C222.947 32.8892 222.942 32.7749 222.933 32.662C222.736 30.3232 219.439 30.5667 219.439 32.9149Z" fill="#EDEEEF"/>
<path d="M219.439 36.7712C221.377 36.7712 222.947 35.085 222.947 33.0049" stroke="#121212" stroke-width="1.5" stroke-linecap="round" stroke-linejoin="round"/>
<path d="M202.886 38.3384L205.153 38.9364" stroke="#121212" stroke-width="1.5" stroke-linecap="round" stroke-linejoin="round"/>
<path d="M245.078 94.5579V153.405L167.429 173.895V108.355C167.429 85.1158 182.206 64.8791 203.227 59.3324H203.227C213.307 56.6724 223.967 59.135 232.137 66.011C240.306 72.8871 245.078 83.4132 245.078 94.5579V94.5579Z" fill="#EDEEEF"/>
<path d="M180.056 156.737C180.056 156.737 170.503 324.127 197.484 403.38" stroke="#121212" stroke-width="1.5" stroke-linecap="round" stroke-linejoin="round"/>
<path d="M221.193 37.6146C221.193 37.6146 226.519 63.9541 208.542 67.2499C190.529 70.5521 187.026 54.6954 193.132 41.8014C194.52 38.8885 195.248 35.6647 195.255 32.3927V32.2803" stroke="#121212" stroke-width="1.5" stroke-linecap="round" stroke-linejoin="round"/>
<path d="M211.165 40.4047C211.165 40.4047 206.591 37.2486 204.501 39.6194C204.501 39.6194 202.687 37.0793 198.783 40.1698" stroke="#121212" stroke-width="1.5" stroke-linecap="round" stroke-linejoin="round"/>
<path d="M206.19 42.3108C207.171 42.3108 207.965 41.4574 207.965 40.4048" stroke="#FF83A8" stroke-width="1.5" stroke-linecap="round" stroke-linejoin="round"/>
<path d="M216.391 32.2803C216.391 32.2803 217.969 23.8977 212.448 22.035L213.158 25.4072C213.158 25.4072 204.246 24.9138 201.249 21.1882V24.4058C201.249 24.4058 196.043 24.2364 194.86 21.1882" stroke="#121212" stroke-width="1.5" stroke-linecap="round" stroke-linejoin="round"/>
<path d="M222.543 31.0259C222.543 31.0259 229.325 17.9706 217.968 13.3983C206.612 8.82602 177.799 8.99538 195.991 28.8087" stroke="#121212" stroke-width="1.5" stroke-linecap="round" stroke-linejoin="round"/>
<path d="M222.947 60.4983C222.947 60.4983 278.933 85.285 275.778 141.169C272.624 197.052 193.814 159.119 187.949 138.798C187.949 138.798 184.579 113.007 190.114 116.081C195.649 119.154 197.484 128.299 197.484 128.299L245.078 132.701" stroke="#121212" stroke-width="1.5" stroke-linecap="round" stroke-linejoin="round"/>
<path d="M185.457 68.6096C185.457 68.6096 142.786 97.2141 139.417 135.029C136.048 172.844 174.687 181.492 187.949 140.718" stroke="#121212" stroke-width="1.5" stroke-linecap="round" stroke-linejoin="round"/>
<path d="M186.933 119.405C185.764 118.747 182.662 105.977 178.414 129.921L155.135 135.029" stroke="#121212" stroke-width="1.5" stroke-linecap="round" stroke-linejoin="round"/>
</svg>
