<svg width="98" height="21" viewBox="0 0 98 21" fill="none" xmlns="http://www.w3.org/2000/svg">
<path fill-rule="evenodd" clip-rule="evenodd" d="M0 4C0 2.93913 0.421427 1.92172 1.17157 1.17157C1.92172 0.421427 2.93913 0 4 0H16C17.0609 0 18.0783 0.421427 18.8284 1.17157C19.5786 1.92172 20 2.93913 20 4V16C20 17.0609 19.5786 18.0783 18.8284 18.8284C18.0783 19.5786 17.0609 20 16 20H4C2.93913 20 1.92172 19.5786 1.17157 18.8284C0.421427 18.0783 0 17.0609 0 16V4ZM4 2C3.46957 2 2.96086 2.21071 2.58579 2.58579C2.21071 2.96086 2 3.46957 2 4V16C2 16.5304 2.21071 17.0391 2.58579 17.4142C2.96086 17.7893 3.46957 18 4 18H10V11H9C8.73478 11 8.48043 10.8946 8.29289 10.7071C8.10536 10.5196 8 10.2652 8 10C8 9.73478 8.10536 9.48043 8.29289 9.29289C8.48043 9.10536 8.73478 9 9 9H10V7.5C10 6.57174 10.3687 5.6815 11.0251 5.02513C11.6815 4.36875 12.5717 4 13.5 4H14.1C14.3652 4 14.6196 4.10536 14.8071 4.29289C14.9946 4.48043 15.1 4.73478 15.1 5C15.1 5.26522 14.9946 5.51957 14.8071 5.70711C14.6196 5.89464 14.3652 6 14.1 6H13.5C13.303 6 13.108 6.0388 12.926 6.11418C12.744 6.18956 12.5786 6.30005 12.4393 6.43934C12.3001 6.57863 12.1896 6.74399 12.1142 6.92597C12.0388 7.10796 12 7.30302 12 7.5V9H14.1C14.3652 9 14.6196 9.10536 14.8071 9.29289C14.9946 9.48043 15.1 9.73478 15.1 10C15.1 10.2652 14.9946 10.5196 14.8071 10.7071C14.6196 10.8946 14.3652 11 14.1 11H12V18H16C16.5304 18 17.0391 17.7893 17.4142 17.4142C17.7893 17.0391 18 16.5304 18 16V4C18 3.46957 17.7893 2.96086 17.4142 2.58579C17.0391 2.21071 16.5304 2 16 2H4Z" fill="black"/>
<path fill-rule="evenodd" clip-rule="evenodd" d="M35 4C35 2.93913 35.4214 1.92172 36.1716 1.17157C36.9217 0.421427 37.9391 0 39 0H51C52.0609 0 53.0783 0.421427 53.8284 1.17157C54.5786 1.92172 55 2.93913 55 4V16C55 17.0609 54.5786 18.0783 53.8284 18.8284C53.0783 19.5786 52.0609 20 51 20H39C37.9391 20 36.9217 19.5786 36.1716 18.8284C35.4214 18.0783 35 17.0609 35 16V4ZM39 2C38.4696 2 37.9609 2.21071 37.5858 2.58579C37.2107 2.96086 37 3.46957 37 4V16C37 16.5304 37.2107 17.0391 37.5858 17.4142C37.9609 17.7893 38.4696 18 39 18H51C51.5304 18 52.0391 17.7893 52.4142 17.4142C52.7893 17.0391 53 16.5304 53 16V4C53 3.46957 52.7893 2.96086 52.4142 2.58579C52.0391 2.21071 51.5304 2 51 2H39ZM45 7C44.2044 7 43.4413 7.31607 42.8787 7.87868C42.3161 8.44129 42 9.20435 42 10C42 10.7956 42.3161 11.5587 42.8787 12.1213C43.4413 12.6839 44.2044 13 45 13C45.7956 13 46.5587 12.6839 47.1213 12.1213C47.6839 11.5587 48 10.7956 48 10C48 9.20435 47.6839 8.44129 47.1213 7.87868C46.5587 7.31607 45.7956 7 45 7ZM40 10C40 8.67392 40.5268 7.40215 41.4645 6.46447C42.4021 5.52678 43.6739 5 45 5C46.3261 5 47.5979 5.52678 48.5355 6.46447C49.4732 7.40215 50 8.67392 50 10C50 11.3261 49.4732 12.5979 48.5355 13.5355C47.5979 14.4732 46.3261 15 45 15C43.6739 15 42.4021 14.4732 41.4645 13.5355C40.5268 12.5979 40 11.3261 40 10ZM50.5 6C50.8978 6 51.2794 5.84196 51.5607 5.56066C51.842 5.27936 52 4.89782 52 4.5C52 4.10218 51.842 3.72064 51.5607 3.43934C51.2794 3.15804 50.8978 3 50.5 3C50.1022 3 49.7206 3.15804 49.4393 3.43934C49.158 3.72064 49 4.10218 49 4.5C49 4.89782 49.158 5.27936 49.4393 5.56066C49.7206 5.84196 50.1022 6 50.5 6Z" fill="black"/>
<path fill-rule="evenodd" clip-rule="evenodd" d="M74 0C72.9391 0 71.9217 0.421427 71.1716 1.17157C70.4214 1.92172 70 2.93913 70 4V16C70 17.0609 70.4214 18.0783 71.1716 18.8284C71.9217 19.5786 72.9391 20 74 20H86C87.0609 20 88.0783 19.5786 88.8284 18.8284C89.5786 18.0783 90 17.0609 90 16V4C90 2.93913 89.5786 1.92172 88.8284 1.17157C88.0783 0.421427 87.0609 0 86 0H74ZM72 4C72 3.46957 72.2107 2.96086 72.5858 2.58579C72.9609 2.21071 73.4696 2 74 2H86C86.5304 2 87.0391 2.21071 87.4142 2.58579C87.7893 2.96086 88 3.46957 88 4V16C88 16.5304 87.7893 17.0391 87.4142 17.4142C87.0391 17.7893 86.5304 18 86 18H74C73.4696 18 72.9609 17.7893 72.5858 17.4142C72.2107 17.0391 72 16.5304 72 16V4ZM80 5.5C80 5.23478 79.8946 4.98043 79.7071 4.79289C79.5196 4.60536 79.2652 4.5 79 4.5C78.7348 4.5 78.4804 4.60536 78.2929 4.79289C78.1054 4.98043 78 5.23478 78 5.5V7H77C76.7348 7 76.4804 7.10536 76.2929 7.29289C76.1054 7.48043 76 7.73478 76 8C76 8.26522 76.1054 8.51957 76.2929 8.70711C76.4804 8.89464 76.7348 9 77 9H78V11.89C78 14.335 80.442 16.027 82.73 15.167L83.346 14.937C83.5944 14.8438 83.7955 14.6557 83.9053 14.4142C84.015 14.1726 84.0242 13.8974 83.931 13.649C83.8378 13.4006 83.6497 13.1995 83.4082 13.0897C83.1666 12.98 82.8914 12.9708 82.643 13.064L82.027 13.294C81.8002 13.3791 81.5562 13.408 81.3159 13.3783C81.0755 13.3486 80.8459 13.2611 80.6467 13.1233C80.4475 12.9855 80.2847 12.8015 80.172 12.5871C80.0594 12.3727 80.0004 12.1342 80 11.892V9H82.5C82.7652 9 83.0196 8.89464 83.2071 8.70711C83.3946 8.51957 83.5 8.26522 83.5 8C83.5 7.73478 83.3946 7.48043 83.2071 7.29289C83.0196 7.10536 82.7652 7 82.5 7H80V5.5Z" fill="black"/>
</svg>
