<svg width="605" height="465" viewBox="0 0 605 465" fill="none" xmlns="http://www.w3.org/2000/svg">
<path d="M451.055 219.526L422.499 185.136L408.342 443.43H451.055L444.746 433.275C445.15 393.668 451.055 219.526 451.055 219.526Z" fill="#F5F5F5"/>
<path d="M440.832 199.109L393.471 195.281L384.859 199.419L380.812 443.43H424.801L420.15 433.597L440.832 199.109Z" fill="#EDEEEF"/>
<path d="M424.802 443.43L420.15 433.597L440.832 199.109" stroke="#121212" stroke-width="1.5" stroke-linecap="round" stroke-linejoin="round"/>
<path d="M402.938 81.7616V90.581C402.938 97.4005 406.885 103.339 412.498 104.967L424.394 108.416V73.934L414.503 71.0657C411.717 70.2581 408.771 71.0058 406.514 73.0936C404.257 75.1815 402.938 78.3776 402.938 81.7616V81.7616Z" fill="#EDEEEF"/>
<path d="M402.938 90.5811C402.938 97.4006 406.885 103.339 412.498 104.967L424.394 108.416" stroke="#121212" stroke-width="1.5" stroke-linecap="round" stroke-linejoin="round"/>
<path d="M415.059 88.831C415.375 88.831 415.632 88.528 415.632 88.1542C415.632 87.7804 415.375 87.4774 415.059 87.4774C414.742 87.4774 414.485 87.7804 414.485 88.1542C414.485 88.528 414.742 88.831 415.059 88.831Z" fill="#121212"/>
<path d="M406.247 88.831C406.564 88.831 406.821 88.528 406.821 88.1542C406.821 87.7804 406.564 87.4774 406.247 87.4774C405.93 87.4774 405.673 87.7804 405.673 88.1542C405.673 88.528 405.93 88.831 406.247 88.831Z" fill="#121212"/>
<path d="M408.832 92.1917V81.7617H404.403" stroke="#121212" stroke-width="1.5" stroke-linecap="round" stroke-linejoin="round"/>
<path d="M416.139 81.7615H411.71" stroke="#121212" stroke-width="1.5" stroke-linecap="round" stroke-linejoin="round"/>
<path d="M422.981 87.1057V90.7277C424.637 90.7277 425.98 89.1438 425.98 87.19C425.98 87.0815 425.976 86.9742 425.967 86.868C425.799 84.6713 422.981 84.9 422.981 87.1057Z" fill="#EDEEEF"/>
<path d="M422.981 90.7277C424.637 90.7277 425.98 89.1439 425.98 87.1901" stroke="#121212" stroke-width="1.5" stroke-linecap="round" stroke-linejoin="round"/>
<path d="M411.254 93.4103C411.626 93.8496 412.131 94.0964 412.658 94.0964C413.184 94.0964 413.689 93.8496 414.062 93.4103" stroke="#FF83A8" stroke-width="1.5" stroke-linecap="round" stroke-linejoin="round"/>
<path d="M408.832 92.2L410.769 92.7617" stroke="#121212" stroke-width="1.5" stroke-linecap="round" stroke-linejoin="round"/>
<path d="M384.682 145.006V200.281L451.055 219.526V157.966C451.055 136.137 438.423 117.129 420.456 111.919H420.455C411.839 109.421 402.727 111.734 395.744 118.193C388.761 124.651 384.682 134.538 384.682 145.006V145.006Z" fill="#FF83A8"/>
<path d="M424.48 100.832C424.48 100.832 421.741 109.501 428.432 114.671C434.74 119.545 439.941 102.646 436.701 90.6361C436.512 89.9393 436.418 89.2113 436.424 88.4796C436.464 83.7715 435.345 65.494 415.632 64.2476C402.464 63.415 391.637 74.7589 402.484 87.4774" stroke="#121212" stroke-width="1.5" stroke-linecap="round" stroke-linejoin="round"/>
<path d="M402.938 81.7616C402.938 81.7616 407.129 82.6195 409.151 75.9388C409.151 75.9388 415.508 86.3575 422.981 84.7669L423.513 85.7387" stroke="#121212" stroke-width="1.5" stroke-linecap="round" stroke-linejoin="round"/>
<path d="M436.253 114.953C436.253 114.953 436.468 119.39 428.945 117.742" stroke="#FF83A8" stroke-width="1.5" stroke-linecap="round" stroke-linejoin="round"/>
<path d="M437.694 119.284C437.694 119.284 441.914 139.087 433.825 136.462C425.735 133.838 430.993 121.908 430.993 121.908" stroke="#121212" stroke-width="1.5" stroke-linecap="round" stroke-linejoin="round"/>
<path d="M354.127 95.7391L369.668 92.1998L320.321 64.1682L341.152 108.416L346.006 102.195L349.62 109.74L351.905 100.192" fill="#FF83A8"/>
<path d="M404.809 112.601C404.809 112.601 384.89 119.761 372.15 158.48C372.15 158.48 360.842 102.974 358.141 99.7187C353.961 94.6817 348.096 91.1293 349.984 96.2193C351.871 101.309 353.759 102.195 353.759 102.195C353.759 102.195 348.635 107.166 352.141 110.918" stroke="#121212" stroke-width="1.5" stroke-linecap="round" stroke-linejoin="round"/>
<path d="M346.726 92.1916C346.208 91.6065 339.062 110.376 348.096 121.033C348.096 121.033 331.916 268.962 410.769 179.887" stroke="#121212" stroke-width="1.5" stroke-linecap="round" stroke-linejoin="round"/>
<path d="M406.415 184.668C406.415 184.668 400.587 229.509 384.682 243.112V203.41C384.682 203.41 405.003 186.207 406.415 184.668Z" fill="#121212"/>
<path d="M444.588 132.175C444.588 132.175 479.611 188.953 451.055 248.125" stroke="#121212" stroke-width="1.5" stroke-linecap="round" stroke-linejoin="round"/>
<path d="M557.586 435.688C556.452 353.714 531.407 197.727 531.407 197.727L508.142 200.867L493.943 305.832L531.407 453.211L562.621 443.459L557.586 435.688Z" fill="#FF83A8"/>
<path d="M499.246 266.627L493.943 305.832L513.766 383.813C518.964 370.548 522.006 354.517 522.006 337.248C522.006 307.353 512.896 281.164 499.246 266.627Z" fill="#121212"/>
<path d="M522.006 196.496L477.718 192.474L469.665 196.822L465.88 453.211H507.016L502.666 442.878L522.006 196.496Z" fill="#FF83A8"/>
<path d="M489.039 73.195V82.4618C489.039 89.6273 492.73 95.867 497.979 97.5773L509.103 101.202V64.9702L499.853 61.9565C497.249 61.1079 494.494 61.8936 492.383 64.0873C490.272 66.281 489.039 69.6393 489.039 73.195V73.195Z" fill="#EDEEEF"/>
<path d="M489.039 82.4618C489.039 89.6273 492.73 95.867 497.979 97.5772L509.103 101.202" stroke="#121212" stroke-width="1.5" stroke-linecap="round" stroke-linejoin="round"/>
<path d="M500.373 80.6231C500.669 80.6231 500.91 80.3047 500.91 79.9119C500.91 79.5192 500.669 79.2008 500.373 79.2008C500.077 79.2008 499.837 79.5192 499.837 79.9119C499.837 80.3047 500.077 80.6231 500.373 80.6231Z" fill="#121212"/>
<path d="M492.133 80.6231C492.43 80.6231 492.67 80.3047 492.67 79.9119C492.67 79.5192 492.43 79.2008 492.133 79.2008C491.837 79.2008 491.597 79.5192 491.597 79.9119C491.597 80.3047 491.837 80.6231 492.133 80.6231Z" fill="#121212"/>
<path d="M494.551 84.1539V73.1948H490.409" stroke="#121212" stroke-width="1.5" stroke-linecap="round" stroke-linejoin="round"/>
<path d="M501.384 73.1949H497.242" stroke="#121212" stroke-width="1.5" stroke-linecap="round" stroke-linejoin="round"/>
<path d="M507.782 78.8102V82.616C509.33 82.616 510.586 80.9518 510.586 78.8988C510.586 78.7848 510.582 78.672 510.574 78.5605C510.417 76.2523 507.782 76.4926 507.782 78.8102Z" fill="#EDEEEF"/>
<path d="M507.782 82.6159C509.33 82.6159 510.586 80.9517 510.586 78.8988" stroke="#121212" stroke-width="1.5" stroke-linecap="round" stroke-linejoin="round"/>
<path d="M496.815 85.4347C497.163 85.8963 497.636 86.1556 498.128 86.1556C498.621 86.1556 499.093 85.8963 499.441 85.4347" stroke="#FF83A8" stroke-width="1.5" stroke-linecap="round" stroke-linejoin="round"/>
<path d="M494.551 84.163L496.362 84.7532" stroke="#121212" stroke-width="1.5" stroke-linecap="round" stroke-linejoin="round"/>
<path d="M531.406 139.648V197.727L469.34 217.949V153.265C469.34 130.329 481.152 110.357 497.954 104.883H497.954C506.011 102.257 514.532 104.688 521.062 111.474C527.592 118.26 531.406 128.649 531.406 139.648Z" fill="#EDEEEF"/>
<path d="M489.039 78.8989C489.039 78.8989 477.719 60.2244 492.67 55.9625C507.621 51.7006 511.214 54.3329 512.727 58.8455C514.24 63.3581 516.637 84.4168 509.103 87.4252" stroke="#121212" stroke-width="1.5" stroke-linecap="round" stroke-linejoin="round"/>
<path d="M489.764 73.1949C494.34 72.7298 498.603 69.9389 501.664 65.4054C501.664 65.4054 502.861 74.932 507.148 75.6841L507.782 77.2718" stroke="#121212" stroke-width="1.5" stroke-linecap="round" stroke-linejoin="round"/>
<path d="M502.798 52.8287C502.798 52.8287 502.326 45.9344 509.701 46.0598C517.077 46.1851 524.998 59.1957 514.324 70.6154" stroke="#121212" stroke-width="1.5" stroke-linecap="round" stroke-linejoin="round"/>
<path d="M502.666 442.879L522.006 196.496" stroke="#121212" stroke-width="1.5" stroke-linecap="round" stroke-linejoin="round"/>
<path d="M487.672 110.471C487.672 110.471 454.074 133.178 446.131 178.805C438.188 224.432 480.929 266.048 480.929 266.048L492.133 245.491L474.499 194.85L495.457 157.746" stroke="#121212" stroke-width="1.5" stroke-linecap="round" stroke-linejoin="round"/>
<path d="M480.929 266.048L498.888 233.098" stroke="#121212" stroke-width="1.5" stroke-linecap="round" stroke-linejoin="round"/>
<path d="M522.006 112.503C523.317 114.095 541.826 134.682 543.339 174.293L551.282 133.679C551.282 133.679 545.609 122.648 551.282 121.144C551.282 121.144 550.148 103.307 558.091 110.471C566.034 117.634 581.714 216.161 534.915 220.548" stroke="#121212" stroke-width="1.5" stroke-linecap="round" stroke-linejoin="round"/>
<path d="M139.595 211.902L175.871 215.762L168.702 278.549L259.538 309.482L253.458 353.413L246.407 347.367C77.378 361.399 139.595 211.902 139.595 211.902Z" fill="#E2E2E2"/>
<path d="M155.394 216.229L204.707 207.235V274.068V438.901H166.043L170.011 429.72L155.394 216.229Z" fill="#EDEEEF"/>
<path d="M204.707 274.068V438.901H166.043" stroke="#121212" stroke-width="1.5" stroke-linecap="round" stroke-linejoin="round"/>
<path d="M170.011 429.72L155.394 216.229" stroke="#121212" stroke-width="1.5" stroke-linecap="round" stroke-linejoin="round"/>
<path d="M181.653 101.255V109.489C181.653 115.856 177.781 121.4 172.274 122.919L160.604 126.14V93.9477L170.308 91.2701C173.04 90.516 175.93 91.2141 178.145 93.1632C180.359 95.1124 181.653 98.0962 181.653 101.255V101.255Z" fill="#EDEEEF"/>
<path d="M181.653 109.489C181.653 115.856 177.781 121.4 172.274 122.919L160.604 126.14" stroke="#121212" stroke-width="1.5" stroke-linecap="round" stroke-linejoin="round"/>
<path d="M169.763 107.855C169.452 107.855 169.2 107.573 169.2 107.224C169.2 106.875 169.452 106.592 169.763 106.592C170.074 106.592 170.326 106.875 170.326 107.224C170.326 107.573 170.074 107.855 169.763 107.855Z" fill="#121212"/>
<path d="M178.407 107.855C178.096 107.855 177.844 107.573 177.844 107.224C177.844 106.875 178.096 106.592 178.407 106.592C178.718 106.592 178.969 106.875 178.969 107.224C178.969 107.573 178.718 107.855 178.407 107.855Z" fill="#121212"/>
<path d="M175.871 110.992V101.255H180.216" stroke="#121212" stroke-width="1.5" stroke-linecap="round" stroke-linejoin="round"/>
<path d="M168.702 101.256H173.047" stroke="#121212" stroke-width="1.5" stroke-linecap="round" stroke-linejoin="round"/>
<path d="M161.99 106.245V109.626C160.366 109.626 159.049 108.148 159.049 106.324C159.049 106.222 159.053 106.122 159.061 106.023C159.226 103.972 161.99 104.186 161.99 106.245Z" fill="#EDEEEF"/>
<path d="M161.99 109.626C160.366 109.626 159.049 108.148 159.049 106.324" stroke="#121212" stroke-width="1.5" stroke-linecap="round" stroke-linejoin="round"/>
<path d="M173.495 112.13C173.13 112.541 172.634 112.771 172.118 112.771C171.601 112.771 171.105 112.541 170.74 112.13" stroke="#FF83A8" stroke-width="1.5" stroke-linecap="round" stroke-linejoin="round"/>
<path d="M175.871 111L173.97 111.525" stroke="#121212" stroke-width="1.5" stroke-linecap="round" stroke-linejoin="round"/>
<path d="M182.312 98.4326C182.312 98.4326 176.953 99.1008 174.921 94.3118C174.921 94.3118 172.392 99.1074 164.952 99.661C164.952 99.661 164.638 104.73 161.991 106.245" stroke="#121212" stroke-width="1.5" stroke-linecap="round" stroke-linejoin="round"/>
<path d="M182.312 104.589C182.312 104.589 191.968 99.5786 185.487 90.9684C179.006 82.3582 157.413 78.0517 152.288 94.3122C147.32 110.071 160.52 116.216 160.52 116.216" stroke="#121212" stroke-width="1.5" stroke-linecap="round" stroke-linejoin="round"/>
<path d="M153.544 86.6273C153.544 86.6273 150.171 90.0799 150.568 93.7552" stroke="#FF83A8" stroke-width="1.5" stroke-linecap="round" stroke-linejoin="round"/>
<path d="M151.17 86.6273L144.219 74.1906C144.219 74.1906 130.199 81.3185 138.664 96.4653L148.716 93.0498" stroke="#121212" stroke-width="1.5" stroke-linecap="round" stroke-linejoin="round"/>
<path d="M139.595 160.299V211.902L204.708 229.87V172.398C204.708 152.02 192.316 134.274 174.689 129.41H174.689C166.236 127.078 157.297 129.237 150.447 135.267C143.597 141.296 139.595 150.527 139.595 160.299V160.299Z" fill="#FF83A8"/>
<path d="M195.889 144.498C195.889 144.498 235.087 185.121 229.267 216.23C223.447 247.34 198.846 261.298 198.846 261.298C198.846 261.298 189.587 250.607 187.206 239.618" stroke="#121212" stroke-width="1.5" stroke-linecap="round" stroke-linejoin="round"/>
<path d="M180.051 179.172L199.904 214.373L189.763 247.06" stroke="#121212" stroke-width="1.5" stroke-linecap="round" stroke-linejoin="round"/>
<path d="M184.449 186.97L199.904 214.373L192.554 238.064C197.9 217.505 184.451 186.975 184.449 186.97Z" fill="#121212"/>
<path d="M143.559 144.047L122.254 186.971C122.254 186.971 110.888 154.231 86.0881 147.326L84.8977 151.781L87.0801 154.454C87.0801 154.454 84.6993 163.809 89.6594 166.705C89.6594 166.705 102.831 246.449 137.413 217.826" stroke="#121212" stroke-width="1.5" stroke-linecap="round" stroke-linejoin="round"/>
<path d="M216.253 424.231C213.219 317.205 251.127 223.878 251.127 223.878L274.055 210.842L281.87 338.154L244.325 442.702L208.925 431.189L216.253 424.231Z" fill="#FF83A8"/>
<path d="M276.346 248.16L281.87 338.154L261.428 395.076C251.506 378.4 245.397 355.677 245.397 330.628C245.397 294.688 257.969 263.528 276.346 248.16Z" fill="#121212"/>
<path d="M261.921 208.127C261.921 208.127 253.755 361.788 276.819 434.542L272.002 442.702H313.023C313.023 442.702 317.505 247.254 317.505 205.069L261.921 208.127Z" fill="#FF83A8"/>
<path d="M275.544 89.2376V109.207L297.001 115.288V81.5878L275.544 75.5073V89.2376Z" fill="#EDEEEF"/>
<path d="M287.665 96.1474C287.348 96.1474 287.091 95.8512 287.091 95.4859C287.091 95.1206 287.348 94.8245 287.665 94.8245C287.982 94.8245 288.239 95.1206 288.239 95.4859C288.239 95.8512 287.982 96.1474 287.665 96.1474Z" fill="#121212"/>
<path d="M278.853 96.1474C278.536 96.1474 278.279 95.8512 278.279 95.4859C278.279 95.1206 278.536 94.8245 278.853 94.8245C279.169 94.8245 279.426 95.1206 279.426 95.4859C279.426 95.8512 279.169 96.1474 278.853 96.1474Z" fill="#121212"/>
<path d="M281.438 99.4314V89.2375H277.009" stroke="#121212" stroke-width="1.5" stroke-linecap="round" stroke-linejoin="round"/>
<path d="M288.746 89.2381H284.316" stroke="#121212" stroke-width="1.5" stroke-linecap="round" stroke-linejoin="round"/>
<path d="M295.588 94.4612V98.0011C297.244 98.0011 298.587 96.4531 298.587 94.5436C298.587 94.4375 298.583 94.3326 298.574 94.2289C298.406 92.082 295.588 92.3055 295.588 94.4612Z" fill="#EDEEEF"/>
<path d="M295.588 98.0008C297.244 98.0008 298.587 96.4528 298.587 94.5433" stroke="#121212" stroke-width="1.5" stroke-linecap="round" stroke-linejoin="round"/>
<path d="M281.438 99.4395L283.375 99.9884" stroke="#121212" stroke-width="1.5" stroke-linecap="round" stroke-linejoin="round"/>
<path d="M317.505 151.048V205.069L251.127 223.878V163.714C251.127 142.381 263.76 123.804 281.729 118.712H281.729C290.346 116.27 299.459 118.531 306.442 124.843C313.426 131.155 317.505 140.818 317.505 151.048V151.048Z" fill="#EDEEEF"/>
<path d="M261.922 208.128C261.922 208.128 253.756 361.789 276.82 434.542" stroke="#121212" stroke-width="1.5" stroke-linecap="round" stroke-linejoin="round"/>
<path d="M297.087 98.775C297.087 98.775 301.64 122.954 286.272 125.98C270.875 129.011 267.879 114.455 273.099 102.618C274.286 99.9444 274.908 96.985 274.914 93.9814V93.8782" stroke="#121212" stroke-width="1.5" stroke-linecap="round" stroke-linejoin="round"/>
<path d="M288.515 101.336C288.515 101.336 284.605 98.4389 282.818 100.615C282.818 100.615 281.267 98.2835 277.93 101.121" stroke="#121212" stroke-width="1.5" stroke-linecap="round" stroke-linejoin="round"/>
<path d="M284.262 103.086C285.1 103.086 285.78 102.303 285.78 101.336" stroke="#FF83A8" stroke-width="1.5" stroke-linecap="round" stroke-linejoin="round"/>
<path d="M292.982 93.8784C292.982 93.8784 294.331 86.1833 289.611 84.4733L290.218 87.569C290.218 87.569 282.6 87.1161 280.038 83.696V86.6497C280.038 86.6497 275.588 86.4942 274.577 83.696" stroke="#121212" stroke-width="1.5" stroke-linecap="round" stroke-linejoin="round"/>
<path d="M298.241 92.7268C298.241 92.7268 304.039 80.7423 294.331 76.545C284.622 72.3477 259.993 72.5032 275.544 90.6914" stroke="#121212" stroke-width="1.5" stroke-linecap="round" stroke-linejoin="round"/>
<path d="M298.587 119.782C298.587 119.782 346.445 142.536 343.749 193.836C341.052 245.136 273.683 210.314 268.669 191.66C268.669 191.66 265.788 167.984 270.52 170.806C275.251 173.627 276.819 182.022 276.819 182.022L317.505 186.063" stroke="#121212" stroke-width="1.5" stroke-linecap="round" stroke-linejoin="round"/>
<path d="M266.538 127.228C266.538 127.228 230.061 153.486 227.181 188.2C224.301 222.913 257.332 230.852 268.669 193.422" stroke="#121212" stroke-width="1.5" stroke-linecap="round" stroke-linejoin="round"/>
<path d="M267.8 173.857C266.801 173.253 264.149 161.53 260.518 183.51L240.618 188.2" stroke="#121212" stroke-width="1.5" stroke-linecap="round" stroke-linejoin="round"/>
</svg>
