<svg width="606" height="798" viewBox="0 0 606 798" fill="none" xmlns="http://www.w3.org/2000/svg">
<path d="M503.376 323.992C482.809 289.847 435.778 283.807 407.251 311.649L405.185 313.665C372.33 345.731 317.168 331.436 304.022 287.449C290.069 240.762 229.259 229.242 199.197 267.591L159.553 318.161C135.658 348.642 133.073 390.715 153.057 423.892L216.227 528.771C232.78 556.253 260.191 575.446 291.677 581.601L402.565 603.279C446.603 611.888 491.578 593.745 517.315 556.989L542.938 520.396C568.675 483.64 570.341 435.171 547.19 396.734L503.376 323.992Z" fill="#FF83A8" fill-opacity="0.2" stroke="white"/>
<path d="M420.375 198.459C464.827 194.477 493.859 223.916 480.585 259.514C464.91 301.554 507.613 332.778 559.897 318.098C616.505 302.204 659.893 339.997 635.414 384.496L609.369 431.84C590.298 466.508 547.888 492.381 503.636 496.346L356.217 509.552C323.042 512.524 292.648 504.815 271.764 488.131L184.809 418.667C153.097 393.334 148.275 351.49 172.587 312.61L193.345 279.415C217.657 240.536 266.327 212.259 316.702 207.746L420.375 198.459Z" fill="#FF83A8" fill-opacity="0.2" stroke="white"/>
</svg>
