<svg width="657" height="400" viewBox="0 0 657 400" fill="none" xmlns="http://www.w3.org/2000/svg">
<path d="M285.503 108.316C317.325 102.431 349.06 118.998 362.425 148.471C377.489 181.691 415.17 198.217 449.812 186.796L557.617 151.253C598.917 137.637 642.401 164.999 647.997 208.124C652.734 244.625 628.095 278.456 591.902 285.149L360.607 327.922C346.963 330.445 332.972 330.445 319.329 327.922L80.6771 283.789C47.5064 277.654 23.4358 248.725 23.4358 214.991C23.4358 181.258 47.5063 152.328 80.6771 146.194L285.503 108.316Z" fill="#FF83A8" fill-opacity="0.2" stroke="white"/>
<path d="M395.431 68.5293C364.734 57.7543 331.352 69.2167 314.455 96.3345C295.413 126.892 256.186 137.391 223.387 120.709L120.407 68.3308C81.3846 48.4829 35.1867 68.8052 24.3141 110.602C15.0905 146.06 35.2289 183.463 70.142 195.718L294.182 274.358C307.291 278.959 321.047 281.133 334.776 280.771L576.972 274.389C610.425 273.507 637.742 248.621 641.918 215.223C646.094 181.825 625.938 149.439 593.998 138.228L395.431 68.5293Z" fill="#FF83A8" fill-opacity="0.2" stroke="white"/>
</svg>
