<svg width="796" height="1297" viewBox="0 0 796 1297" fill="none" xmlns="http://www.w3.org/2000/svg">
<path d="M805.052 672.886C813.151 718.168 767.165 753.979 725.247 735.033L682.999 715.938C647.381 699.84 611.235 737.303 628.596 772.322C646.184 807.798 607.773 844.892 572.932 826.077L403.669 734.671C376.395 719.943 357.324 693.583 351.867 663.071L337.693 583.832C327.958 529.404 358.86 475.881 410.864 457.098L483.102 431.006C514.565 419.642 549.438 422.737 578.408 439.463L746.322 536.408C770.589 550.418 787.439 574.42 792.373 602.003L805.052 672.886Z" fill="#FF83A8" fill-opacity="0.2" stroke="white"/>
<path d="M790.377 846.255C852.413 844.094 882.363 807.324 845.416 778.684L819.108 758.292C785.007 731.859 823.627 699.192 881.034 705.913C940.053 712.822 977.393 677.688 938.291 652.037L801.907 562.569C770.055 541.674 721.699 530.025 673.748 531.695L532.218 536.624C474.438 538.636 427.998 559.539 415.295 589.252L383.482 663.665C373.322 687.429 386.328 713.361 418.241 732.972L561.67 821.108C593.583 840.719 640.293 851.481 686.505 849.872L790.377 846.255Z" fill="#FF83A8" fill-opacity="0.2" stroke="white"/>
</svg>
