<svg width="806" height="631" viewBox="0 0 806 631" fill="none" xmlns="http://www.w3.org/2000/svg">
<path d="M336.271 173.905C382.026 163.025 428.616 188.426 444.257 232.78C462.081 283.326 518.847 308.363 568.193 287.443L649.981 252.77C715.435 225.021 789.046 268.61 796.184 339.344C801.494 391.961 767.042 440.384 715.592 452.619L443.326 517.362C426.062 521.467 408.076 521.467 390.811 517.362L115.88 451.985C64.7367 439.824 28.6375 394.134 28.6375 341.564V336.734C28.6375 284.164 64.7367 238.474 115.88 226.313L336.271 173.905Z" fill="#FF83A8" fill-opacity="0.2" stroke="white"/>
<path d="M497.961 113.608C454.125 93.8221 406.057 109.773 386.232 150.683C363.662 197.259 305.77 210.862 259.345 180.499L178.398 127.557C117.174 87.5149 41.4982 116.178 27.6453 184.656C17.2553 236.016 46.4419 291.165 95.8053 313.445L360.426 432.883C376.719 440.237 394.074 443.763 411.139 443.184L690.889 433.705C742.353 431.961 782.355 393.625 787.457 341.156L787.771 337.919C792.873 285.45 761.733 232.663 712.595 210.484L497.961 113.608Z" fill="#FF83A8" fill-opacity="0.2" stroke="white"/>
</svg>
