<svg width="856" height="507" viewBox="0 0 856 507" fill="none" xmlns="http://www.w3.org/2000/svg">
<path d="M375.293 158.792C411.106 149.623 448.028 163.959 467.451 194.574C489.095 228.689 531.844 242.418 570.457 227.656L732.255 165.796C774.723 149.559 820.54 173.777 830.204 217.569C839.111 257.929 813.56 299.01 773.109 309.366L468.279 387.408C456.888 390.324 445.175 391.466 433.556 390.794L109.497 372.039C74.0299 369.986 46.204 342.19 43.9404 306.552C41.6768 270.914 65.6507 238.066 100.422 229.164L375.293 158.792Z" fill="#FF83A8" fill-opacity="0.2" stroke="white"/>
<path d="M495.627 103.519C459.933 96.5634 422.646 113.202 402.594 145.034C380.248 180.508 337.126 196.902 298.74 184.516L138.42 132.788C96.1541 119.15 49.6919 146.239 39.1255 190.68C29.3974 231.594 54.17 271.082 94.4944 278.94L397.782 338.037C409.157 340.253 420.891 340.669 432.568 339.269L757.026 300.363C792.636 296.093 821.099 266.544 824.089 230.739C827.08 194.934 803.708 163.55 769.019 156.79L495.627 103.519Z" fill="#FF83A8" fill-opacity="0.2" stroke="white"/>
</svg>
