<svg width="657" height="400" viewBox="0 0 657 400" fill="none" xmlns="http://www.w3.org/2000/svg">
<path d="M285.503 108.316C317.325 102.432 349.06 118.998 362.425 148.471C377.489 181.691 415.17 198.217 449.812 186.796L557.618 151.253C598.917 137.637 642.402 165 647.997 208.124C652.734 244.625 628.096 278.456 591.902 285.149L360.607 327.922C346.964 330.445 332.973 330.445 319.329 327.922L80.6774 283.789C47.5066 277.655 23.436 248.725 23.436 214.992C23.436 181.258 47.5066 152.328 80.6773 146.194L285.503 108.316Z" fill="#FF83A8" fill-opacity="0.2" stroke="white"/>
<path d="M395.432 68.5291C364.734 57.7541 331.353 69.2164 314.455 96.3342C295.414 126.892 256.186 137.391 223.387 120.709L120.408 68.3306C81.3849 48.4826 35.187 68.805 24.3144 110.602C15.0908 146.06 35.2292 183.463 70.1422 195.718L294.183 274.358C307.291 278.959 321.047 281.132 334.776 280.771L576.973 274.388C610.425 273.507 637.743 248.621 641.919 215.223C646.095 181.825 625.938 149.439 593.998 138.228L395.432 68.5291Z" fill="#FF83A8" fill-opacity="0.2" stroke="white"/>
</svg>
