<svg width="241" height="335" viewBox="0 0 241 335" fill="none" xmlns="http://www.w3.org/2000/svg">
<path d="M118.562 38.4064V57.3938C118.562 72.0755 127.132 84.8604 139.323 88.3646L165.158 95.791V21.5543L143.676 15.3794C137.627 13.6405 131.23 15.2503 126.328 19.7452C121.426 24.2401 118.562 31.1211 118.562 38.4064V38.4064Z" fill="#EDEEEF"/>
<path d="M118.562 57.3936C118.562 72.0753 127.132 84.8602 139.323 88.3644L165.158 95.7907" stroke="#121212" stroke-width="1.5" stroke-linecap="round" stroke-linejoin="round"/>
<path d="M144.884 53.6261C145.572 53.6261 146.129 52.9737 146.129 52.169C146.129 51.3643 145.572 50.7119 144.884 50.7119C144.195 50.7119 143.638 51.3643 143.638 52.169C143.638 52.9737 144.195 53.6261 144.884 53.6261Z" fill="#FF83A8"/>
<path d="M125.748 53.6261C126.436 53.6261 126.994 52.9737 126.994 52.169C126.994 51.3643 126.436 50.7119 125.748 50.7119C125.06 50.7119 124.502 51.3643 124.502 52.169C124.502 52.9737 125.06 53.6261 125.748 53.6261Z" fill="#FF83A8"/>
<path d="M131.361 60.8614V38.4067H121.743" stroke="#121212" stroke-width="1.5" stroke-linecap="round" stroke-linejoin="round"/>
<path d="M147.23 38.4063H137.612" stroke="#121212" stroke-width="1.5" stroke-linecap="round" stroke-linejoin="round"/>
<path d="M162.089 49.9114V57.7092C165.685 57.7092 168.601 54.2993 168.601 50.093C168.601 49.8593 168.592 49.6282 168.575 49.3998C168.21 44.6703 162.089 45.1627 162.089 49.9114Z" fill="#EDEEEF"/>
<path d="M162.089 57.7095C165.685 57.7095 168.601 54.2996 168.601 50.0933" stroke="#121212" stroke-width="1.5" stroke-linecap="round" stroke-linejoin="round"/>
<path d="M136.621 63.4849C137.429 64.4307 138.526 64.962 139.67 64.962C140.813 64.962 141.91 64.4307 142.719 63.4849" stroke="#121212" stroke-width="1.5" stroke-linecap="round" stroke-linejoin="round"/>
<path d="M131.362 60.8789L135.569 62.0882" stroke="#121212" stroke-width="1.5" stroke-linecap="round" stroke-linejoin="round"/>
<path d="M75.1592 174.566V293.566L219.302 335V202.466C219.302 155.472 191.87 114.55 152.849 103.333H152.849C134.136 97.954 114.347 102.934 99.1824 116.839C84.0173 130.743 75.1592 152.029 75.1592 174.566V174.566Z" fill="#EDEEEF"/>
<path d="M118.562 52.169C118.562 52.169 105.277 38.9062 110.84 21.7838C116.054 5.73691 143.649 -5.05725 159.146 6.26099C161.332 7.84326 163.638 9.18336 166.037 10.2638C175.971 14.7915 201.119 32.5298 199.708 95.7908C197.951 174.515 156.811 135.134 160.618 117.327C164.424 99.5195 167.063 84.623 165.158 69.2128" stroke="#121212" stroke-width="1.5" stroke-linecap="round" stroke-linejoin="round"/>
<path d="M162.96 137.747C162.96 137.747 167.792 147.336 179.504 148.363" stroke="#121212" stroke-width="1.5" stroke-linecap="round" stroke-linejoin="round"/>
<path d="M162.814 147.187C162.814 147.187 132.776 155.228 130.955 193.301C130.505 202.316 128.436 211.12 124.882 219.137C119.908 230.413 114.746 247.661 120.019 263.433C128.807 289.719 182.184 213.719 176.189 159.29" stroke="#121212" stroke-width="1.5" stroke-linecap="round" stroke-linejoin="round"/>
<path d="M206.033 148.363C206.033 148.363 259.001 246.087 232.648 307.728C206.296 369.368 63.4056 304.988 84.4878 245.402C84.4878 245.402 71.6043 232.389 78.6316 229.649C85.659 226.91 118.462 240.557 118.462 240.557" stroke="#121212" stroke-width="1.5" stroke-linecap="round" stroke-linejoin="round"/>
<path d="M149.516 248.035L210.395 268.799" stroke="#121212" stroke-width="1.5" stroke-linecap="round" stroke-linejoin="round"/>
<path d="M100.058 116.058C100.058 116.058 65.4055 138.263 67.505 226.91C67.505 226.91 61.6488 150.202 39.3955 129.655C17.1421 109.108 -0.636945 120.901 1.1199 123.641C2.87674 126.38 17.1421 131.71 17.1421 131.71C17.1421 131.71 6.60104 141.983 17.7277 156.366C17.7277 156.366 4.23279 335.397 67.9952 322.616" stroke="#121212" stroke-width="1.5" stroke-linecap="round" stroke-linejoin="round"/>
</svg>
