<svg width="856" height="614" viewBox="0 0 856 614" fill="none" xmlns="http://www.w3.org/2000/svg">
<path fill-rule="evenodd" clip-rule="evenodd" d="M450.324 45.7993C450.324 45.7993 437.103 47.7389 414.412 45.7993C414.412 45.7993 415.714 55.2025 410.327 59.4936" fill="#FF83A8"/>
<path d="M450.324 45.7993C450.324 45.7993 437.103 47.7389 414.412 45.7993C414.412 45.7993 415.714 55.2025 410.327 59.4936" stroke="#FF83A8" stroke-width="5" stroke-linecap="round" stroke-linejoin="round"/>
<path fill-rule="evenodd" clip-rule="evenodd" d="M407.401 74.3644C407.401 74.3644 391.325 57.7897 399.415 42.4491C407.505 27.1086 433.362 28.3429 446.578 34.5144C459.795 40.6859 453.878 46.9744 449.437 52.6465" fill="#FF83A8"/>
<path d="M407.401 74.3644C407.401 74.3644 391.325 57.7897 399.415 42.4491C407.505 27.1086 433.362 28.3429 446.578 34.5144C459.795 40.6859 453.878 46.9744 449.437 52.6465" stroke="#FF83A8" stroke-width="5" stroke-linecap="round" stroke-linejoin="round"/>
<path d="M397.139 40.2744C397.139 40.2744 392.443 46.5754 393.89 51.5948" stroke="black" stroke-width="1.5" stroke-linecap="round" stroke-linejoin="round"/>
<path fill-rule="evenodd" clip-rule="evenodd" d="M393.614 40.2744C393.614 40.2744 395.624 25.5203 377.851 28.666C375.678 29.0405 373.456 29.1424 371.251 28.9687C367.248 28.6715 361.065 29.0457 361.333 34.2502C361.558 38.633 365.07 41.778 368.038 43.6688C370.267 45.0729 372.267 46.746 373.983 48.6403C376.29 51.214 381.143 54.02 390.339 49.8548" fill="#FF83A8"/>
<path d="M393.614 40.2744C393.614 40.2744 395.624 25.5203 377.851 28.666C375.678 29.0405 373.456 29.1424 371.251 28.9687C367.248 28.6715 361.065 29.0457 361.333 34.2502C361.558 38.633 365.07 41.778 368.038 43.6688C370.267 45.0729 372.267 46.746 373.983 48.6403C376.29 51.214 381.143 54.02 390.339 49.8548" stroke="#FF83A8" stroke-width="5" stroke-linecap="round" stroke-linejoin="round"/>
<path d="M354.185 255.218C354.185 255.218 290.53 335.497 294.476 402.77C298.423 470.044 330.799 538.722 330.799 538.722L311.84 554.534H393.925L374.337 384.701C374.337 384.701 434.967 350.846 441.282 318.402C447.596 285.958 418.942 240.995 418.942 240.995" fill="#E2E2E2"/>
<path d="M377.367 382.938C371.663 369.473 368.245 352.354 368.245 333.713C368.245 290.361 386.715 255.218 409.499 255.218C418.384 255.218 426.613 260.563 433.346 269.655C439.345 284.592 444.295 302.921 441.282 318.402C435.818 346.474 389.7 375.597 377.367 382.938Z" fill="black"/>
<path d="M374.337 225.04L466.753 219.383L483.557 225.499L491.455 586.158H405.617L414.693 571.624L374.337 225.04Z" fill="#EDEEEF"/>
<path d="M449.437 51.5948V64.6303C449.437 74.7099 441.737 83.4872 430.783 85.893L407.57 90.9915V40.0252L426.871 35.7858C432.307 34.592 438.054 35.6972 442.459 38.7832C446.864 41.8691 449.437 46.5931 449.437 51.5948V51.5948Z" fill="#EDEEEF"/>
<path d="M449.437 64.6302C449.437 74.7098 441.737 83.4871 430.783 85.8929L407.57 90.9914" stroke="black" stroke-width="1.5" stroke-linecap="round" stroke-linejoin="round"/>
<path d="M425.787 62.0438C425.169 62.0438 424.667 61.5959 424.667 61.0434C424.667 60.491 425.169 60.0431 425.787 60.0431C426.405 60.0431 426.906 60.491 426.906 61.0434C426.906 61.5959 426.405 62.0438 425.787 62.0438Z" fill="black"/>
<path d="M442.981 62.0438C442.362 62.0438 441.861 61.5959 441.861 61.0434C441.861 60.491 442.362 60.0431 442.981 60.0431C443.599 60.0431 444.1 60.491 444.1 61.0434C444.1 61.5959 443.599 62.0438 442.981 62.0438Z" fill="black"/>
<path d="M437.936 67.0112V51.5945H446.579" stroke="black" stroke-width="1.5" stroke-linecap="round" stroke-linejoin="round"/>
<path d="M423.678 51.5947H432.32" stroke="black" stroke-width="1.5" stroke-linecap="round" stroke-linejoin="round"/>
<path d="M410.328 59.4936V64.8471C407.096 64.8471 404.476 62.5061 404.476 59.6183C404.476 59.4579 404.484 59.2992 404.5 59.1424C404.828 55.8954 410.328 56.2334 410.328 59.4936Z" fill="#EDEEEF"/>
<path d="M410.328 64.8473C407.096 64.8473 404.476 62.5062 404.476 59.6184" stroke="black" stroke-width="1.5" stroke-linecap="round" stroke-linejoin="round"/>
<path fill-rule="evenodd" clip-rule="evenodd" d="M433.211 68.8121C432.484 69.4619 431.499 69.827 430.471 69.827C429.444 69.827 428.458 69.4619 427.731 68.8121" fill="#FF83A8"/>
<path d="M433.211 68.8121C432.484 69.4619 431.499 69.827 430.471 69.827C429.444 69.827 428.458 69.4619 427.731 68.8121" stroke="#FF83A8" stroke-width="5" stroke-linecap="round" stroke-linejoin="round"/>
<path d="M437.937 67.0232L434.157 67.8534" stroke="black" stroke-width="1.5" stroke-linecap="round" stroke-linejoin="round"/>
<path d="M483.699 145.074V226.772L354.185 255.218V164.228C354.185 131.965 378.833 103.87 413.894 96.1694H413.894C430.708 92.4765 448.488 95.8954 462.114 105.441C475.74 114.988 483.699 129.601 483.699 145.074V145.074Z" fill="#FF83A8"/>
<path d="M374.337 586.158V554.534H279.451" stroke="black" stroke-width="1.5" stroke-linecap="round" stroke-linejoin="round"/>
<path d="M330.8 554.534V522.91H235.914" stroke="black" stroke-width="1.5" stroke-linecap="round" stroke-linejoin="round"/>
<path d="M287.262 522.91V491.286H192.376" stroke="black" stroke-width="1.5" stroke-linecap="round" stroke-linejoin="round"/>
<path d="M243.725 491.286V459.662H148.839" stroke="black" stroke-width="1.5" stroke-linecap="round" stroke-linejoin="round"/>
<path d="M414.693 571.624L374.337 225.04" stroke="black" stroke-width="1.5" stroke-linecap="round" stroke-linejoin="round"/>
<path d="M462.797 105.933C462.797 105.933 519.157 152.889 507.055 210.724C494.952 268.56 339.728 225.301 330.783 196.618L326.573 183.452C326.573 183.452 308.157 180.091 315.524 174.954C322.89 169.816 444.1 186.274 444.1 186.274L434.156 152.419" stroke="black" stroke-width="1.5" stroke-linecap="round" stroke-linejoin="round"/>
<path d="M366.139 127.039C366.139 127.039 350.76 151.898 341.043 174.954" stroke="black" stroke-width="1.5" stroke-linecap="round" stroke-linejoin="round"/>
<path d="M324.074 172.606C324.074 172.606 303.159 140.311 290.925 147.717C278.691 155.122 271.588 156.338 275.534 159.609C279.48 162.881 289.741 159.609 289.741 159.609C289.741 159.609 284.029 169.431 291.335 172.029C292.286 172.351 293.285 172.545 294.3 172.606C294.3 172.606 299.034 267.597 350.031 260.732" stroke="black" stroke-width="1.5" stroke-linecap="round" stroke-linejoin="round"/>
<path d="M573.004 100.821C573.004 100.821 542.42 128.063 537.107 136.511C537.107 136.511 518.182 103.82 509.217 108.227C500.253 112.635 490.956 122.186 493.944 122.92C496.932 123.655 501.581 121.818 501.581 121.818C501.581 121.818 502.538 133.573 507.87 132.838" stroke="#121212" stroke-width="1.5" stroke-linecap="round" stroke-linejoin="round"/>
<path d="M637.977 229.086C637.977 229.086 651.382 471.141 613.521 585.745L621.429 598.6H554.088C554.088 598.6 546.731 290.72 546.731 224.268L637.977 229.086Z" fill="#FF83A8"/>
<path d="M551.837 501.114L631.402 423.267C631.402 423.267 633.869 424.632 637.647 427.023C636.204 452.368 634.052 477.906 630.929 502.128C595.062 507.168 551.837 501.114 551.837 501.114Z" fill="#121212"/>
<path d="M603.005 386.293L599.825 213.294L655.697 224.268C655.697 224.268 710.063 407.229 662.253 452.408C614.444 497.586 529.782 504.197 529.782 504.197L518.826 522.93L507.87 440.287L603.005 386.293Z" fill="#FF83A8"/>
<path d="M507.869 440.287L603.005 386.293" stroke="#121212" stroke-width="1.5" stroke-linecap="round" stroke-linejoin="round"/>
<path d="M655.697 224.268C655.697 224.268 710.063 407.229 662.253 452.408C614.444 497.586 529.782 504.197 529.782 504.197" stroke="#121212" stroke-width="1.5" stroke-linecap="round" stroke-linejoin="round"/>
<path d="M590.149 41.8059V73.2625L625.374 82.8408V29.7548L590.149 20.1772V41.8059Z" fill="#EDEEEF"/>
<path d="M610.047 52.6894C609.527 52.6894 609.105 52.2229 609.105 51.6474C609.105 51.072 609.527 50.6055 610.047 50.6055C610.567 50.6055 610.989 51.072 610.989 51.6474C610.989 52.2229 610.567 52.6894 610.047 52.6894Z" fill="#121212"/>
<path d="M595.581 52.6894C595.061 52.6894 594.639 52.2229 594.639 51.6474C594.639 51.072 595.061 50.6055 595.581 50.6055C596.101 50.6055 596.523 51.072 596.523 51.6474C596.523 52.2229 596.101 52.6894 595.581 52.6894Z" fill="#121212"/>
<path d="M599.825 57.8629V41.8058H592.554" stroke="#121212" stroke-width="1.5" stroke-linecap="round" stroke-linejoin="round"/>
<path d="M611.821 41.8057H604.55" stroke="#121212" stroke-width="1.5" stroke-linecap="round" stroke-linejoin="round"/>
<path d="M623.053 50.0331V55.6093C625.772 55.6093 627.976 53.1709 627.976 50.163C627.976 49.9958 627.969 49.8306 627.956 49.6672C627.68 46.2852 623.053 46.6374 623.053 50.0331Z" fill="#EDEEEF"/>
<path d="M623.053 55.6093C625.772 55.6093 627.976 53.1709 627.976 50.163" stroke="#121212" stroke-width="1.5" stroke-linecap="round" stroke-linejoin="round"/>
<path d="M603.005 61.8214C605.757 61.8214 607.988 59.3535 607.988 56.3091" stroke="#FF83A8" stroke-width="1.5" stroke-linecap="round" stroke-linejoin="round"/>
<path d="M590.149 73.2628L625.374 82.8408" stroke="#121212" stroke-width="1.5" stroke-linecap="round" stroke-linejoin="round"/>
<path d="M599.825 57.8757L603.005 58.7405" stroke="#121212" stroke-width="1.5" stroke-linecap="round" stroke-linejoin="round"/>
<path d="M623.053 50.033C623.053 50.033 618.232 45.0481 618.453 32.3143H590.149" stroke="#121212" stroke-width="1.5" stroke-linecap="round" stroke-linejoin="round"/>
<path d="M590.149 38.0691C590.149 38.0691 583.148 33.7837 587.133 17.4991C587.133 17.4991 618.122 9.90779 627.308 27.7841L628.968 21.2947C628.968 21.2947 644.025 50.3131 625.374 64.6387" stroke="#121212" stroke-width="1.5" stroke-linecap="round" stroke-linejoin="round"/>
<path d="M655.697 139.172V224.268L546.731 253.897V159.123C546.731 125.518 567.468 96.255 596.966 88.2341H596.967C611.113 84.3876 626.072 87.9487 637.536 97.8918C649 107.835 655.697 123.056 655.697 139.172V139.172Z" fill="#EDEEEF"/>
<path d="M556.585 179.985L541.092 111.778C541.092 111.778 510.545 115.207 503.905 136.266C503.905 136.266 489.296 125.002 474.687 129.41L499.035 202.384L538.151 211.939" fill="#FF83A8"/>
<path d="M643.39 103.908C643.39 103.908 681.427 139.695 657.964 216.587C634.501 293.48 510.702 203.303 512.316 178.876C513.367 162.958 529.782 175.422 529.782 175.422C529.782 175.422 530.19 165.765 533.289 171.407C536.388 177.049 537.219 179.85 537.219 179.85L607.988 180.345L608.185 145.082" stroke="#121212" stroke-width="1.5" stroke-linecap="round" stroke-linejoin="round"/>
<path d="M507.87 180.957C507.87 180.957 503.905 240.096 547.732 234.953" stroke="#121212" stroke-width="1.5" stroke-linecap="round" stroke-linejoin="round"/>
<path d="M605.595 6.80033C605.595 6.80033 624.271 -8.93676 632.747 14.2584" stroke="#FF6498" stroke-width="1.5" stroke-linecap="round" stroke-linejoin="round"/>
<path d="M591.774 36.4826C591.774 36.4826 569.344 23.9195 574.878 12.7747C580.413 1.62982 628.917 4.56781 646.395 24.6286C663.874 44.6894 634.889 47 634.889 47" stroke="#FF6498" stroke-width="1.5" stroke-linecap="round" stroke-linejoin="round"/>
</svg>
