<svg width="35" height="38" viewBox="0 0 35 38" fill="none" xmlns="http://www.w3.org/2000/svg">
<g id="share">
<path id="icon" fill-rule="evenodd" clip-rule="evenodd" d="M20.4167 9.49984C20.4167 9.95492 20.4609 10.3988 20.5449 10.8267L13.1497 14.8412C12.0803 13.5086 10.5057 12.6665 8.75002 12.6665C5.52836 12.6665 2.91669 15.502 2.91669 18.9998C2.91669 22.4976 5.52836 25.3332 8.75002 25.3332C10.5058 25.3332 12.0803 24.491 13.1498 23.1584L20.5449 27.173C20.4609 27.6008 20.4167 28.0447 20.4167 28.4998C20.4167 31.9976 23.0284 34.8332 26.25 34.8332C29.4717 34.8332 32.0834 31.9976 32.0834 28.4998C32.0834 25.002 29.4717 22.1665 26.25 22.1665C24.4943 22.1665 22.9198 23.0086 21.8503 24.3412L14.4551 20.3266C14.5391 19.8988 14.5834 19.4549 14.5834 18.9998C14.5834 18.5447 14.5391 18.1009 14.4551 17.673L21.8503 13.6585C22.9197 14.991 24.4943 15.8332 26.25 15.8332C29.4717 15.8332 32.0834 12.9976 32.0834 9.49984C32.0834 6.00203 29.4717 3.1665 26.25 3.1665C23.0284 3.1665 20.4167 6.00203 20.4167 9.49984ZM11.6667 18.9998C11.6667 20.7487 10.3609 22.1665 8.75002 22.1665C7.13919 22.1665 5.83335 20.7487 5.83335 18.9998C5.83335 17.2509 7.13919 15.8332 8.75002 15.8332C10.3609 15.8332 11.6667 17.2509 11.6667 18.9998ZM26.25 12.6665C27.8609 12.6665 29.1667 11.2487 29.1667 9.49983C29.1667 7.75093 27.8609 6.33316 26.25 6.33316C24.6392 6.33316 23.3334 7.75093 23.3334 9.49983C23.3334 11.2487 24.6392 12.6665 26.25 12.6665ZM29.1667 28.4998C29.1667 30.2487 27.8609 31.6665 26.25 31.6665C24.6392 31.6665 23.3334 30.2487 23.3334 28.4998C23.3334 26.7509 24.6392 25.3332 26.25 25.3332C27.8609 25.3332 29.1667 26.7509 29.1667 28.4998Z" fill="#FF83A8"/>
</g>
</svg>
