<svg width="35" height="38" viewBox="0 0 35 38" fill="none" xmlns="http://www.w3.org/2000/svg">
<g id="24 / basic / share">
<path id="icon" fill-rule="evenodd" clip-rule="evenodd" d="M20.4165 9.49999C20.4165 9.95507 20.4607 10.3989 20.5447 10.8268L13.1495 14.8413C12.0801 13.5088 10.5056 12.6667 8.74984 12.6667C5.52818 12.6667 2.9165 15.5022 2.9165 19C2.9165 22.4978 5.52818 25.3333 8.74984 25.3333C10.5056 25.3333 12.0802 24.4912 13.1496 23.1586L20.5447 27.1731C20.4607 27.601 20.4165 28.0449 20.4165 28.5C20.4165 31.9978 23.0282 34.8333 26.2498 34.8333C29.4715 34.8333 32.0832 31.9978 32.0832 28.5C32.0832 25.0022 29.4715 22.1667 26.2498 22.1667C24.4941 22.1667 22.9196 23.0088 21.8502 24.3413L14.455 20.3268C14.539 19.8989 14.5832 19.4551 14.5832 19C14.5832 18.5449 14.539 18.101 14.4549 17.6731L21.8501 13.6586C22.9195 14.9912 24.4941 15.8333 26.2498 15.8333C29.4715 15.8333 32.0832 12.9978 32.0832 9.49999C32.0832 6.00219 29.4715 3.16666 26.2498 3.16666C23.0282 3.16666 20.4165 6.00219 20.4165 9.49999ZM11.6665 19C11.6665 20.7489 10.3607 22.1666 8.74984 22.1666C7.13901 22.1666 5.83317 20.7489 5.83317 19C5.83317 17.2511 7.13901 15.8333 8.74984 15.8333C10.3607 15.8333 11.6665 17.2511 11.6665 19ZM26.2498 12.6667C27.8607 12.6667 29.1665 11.2489 29.1665 9.49998C29.1665 7.75108 27.8607 6.33332 26.2498 6.33332C24.639 6.33332 23.3332 7.75108 23.3332 9.49998C23.3332 11.2489 24.639 12.6667 26.2498 12.6667ZM29.1665 28.5C29.1665 30.2489 27.8607 31.6666 26.2498 31.6666C24.639 31.6666 23.3332 30.2489 23.3332 28.5C23.3332 26.7511 24.639 25.3333 26.2498 25.3333C27.8607 25.3333 29.1665 26.7511 29.1665 28.5Z" fill="#FF83A8"/>
</g>
</svg>
